<!-- Generated by IcoMoon.io -->
<svg version="1.1" xmlns="http://www.w3.org/2000/svg" width="1200" height="1200" viewBox="0 0 1200 1200">
<title>bike</title>
<path d="M585 180c-24.938 0-45 20.063-45 45s20.063 45 45 45h48.187l64.875 120h-280.125l-51.375-71.25c-8.438-11.813-22.125-18.75-36.563-18.75h-105c-24.938 0-45 20.063-45 45s20.063 45 45 45h81.937l41.438 57.563-49.875 99.562c-18.75-4.688-38.438-7.125-58.5-7.125-132.563 0-240 107.438-240 240s107.438 240 240 240c122.438 0 223.313-91.688 238.125-210h91.875c15.938 0 30.563-8.438 38.813-22.125l159-269.063 40.688 75.188c-54 44.063-88.5 111-88.5 186 0 132.563 107.438 240 240 240s240-107.438 240-240-107.438-240-240-240c-25.313 0-49.687 3.938-72.562 11.25l-183.563-339.75c-10.5-19.5-30.75-31.5-52.875-31.5h-66zM859.875 689.438l60.562 111.937c11.813 21.938 39.188 30 60.938 18.188s30-39.187 18.188-60.938l-60.562-111.938c6.75-1.125 13.875-1.688 21-1.688 74.625 0 135 60.375 135 135s-60.375 135-135 135-135-60.375-135-135c0-34.875 13.125-66.562 34.875-90.562zM249.75 810h121.875c-13.688 60.188-67.5 105-131.625 105-74.625 0-135-60.375-135-135s60.375-135 135-135c3.188 0 6.375 0.187 9.563 0.375l-45.375 90.938c-16.875 33.938 7.688 73.875 45.563 73.875zM312.938 720l95.063-189.938 136.687 189.75-0.188 0.188h-231.75zM482.813 480h203.25l-91.688 155.25-111.75-155.25z"></path>
</svg>
