<!-- Generated by IcoMoon.io -->
<svg version="1.1" xmlns="http://www.w3.org/2000/svg" width="1200" height="1200" viewBox="0 0 1200 1200">
<title>box-opaque</title>
<path d="M581.953 4.57c11.25-6.094 24.609-6.094 35.859 0l446.951 243.749c11.953 6.563 19.453 19.219 19.453 32.813s-7.5 26.25-19.453 32.813l-446.716 243.749c-11.25 6.094-24.609 6.094-35.859 0l-446.951-243.749c-11.953-6.563-19.453-19.219-19.453-32.813s7.5-26.25 19.453-32.813l446.716-243.749zM130.549 398.318l412.498 224.999c11.953 6.563 19.453 19.219 19.453 32.813v506.248c0 13.125-7.031 25.547-18.281 32.344s-25.547 7.031-37.031 0.703l-412.732-225.233c-11.953-6.563-19.453-18.984-19.453-32.813v-506.248c0-13.125 7.031-25.547 18.281-32.344s25.547-7.031 37.031-0.703zM1069.685 398.318c11.719-6.328 25.781-6.094 37.031 0.703s18.281 18.984 18.281 32.344v506.013c0 13.828-7.5 26.25-19.453 32.813l-412.498 224.999c-11.719 6.328-25.781 6.094-37.031-0.703s-18.281-18.984-18.281-32.344v-506.013c0-13.828 7.5-26.25 19.453-32.813l412.498-224.999z"></path>
</svg>
