<!-- Generated by IcoMoon.io -->
<svg version="1.1" xmlns="http://www.w3.org/2000/svg" width="1200" height="1200" viewBox="0 0 1200 1200">
<title>brand-vscode</title>
<path d="M1157.509 129.374l-247-118.85c-9.475-4.668-20.624-7.398-32.411-7.398-20.637 0-39.32 8.368-52.839 21.896v0l-473 431.5-206-156.4c-8.284-6.336-18.79-10.153-30.186-10.153-12.964 0-24.775 4.939-33.653 13.038l-66.061 60.064c-10.072 9.18-16.368 22.354-16.368 36.997 0 14.62 6.275 27.775 16.279 36.918l0.039 0.035 178.65 163-178.65 163c-10.042 9.177-16.317 22.332-16.317 36.953 0 14.644 6.295 27.818 16.328 36.962l0.040 0.035 66.15 60.050c8.839 8.064 20.65 13.003 33.614 13.003 11.396 0 21.901-3.817 30.306-10.241l-0.121 0.088 206-156.4 473 431.5c13.505 13.532 32.176 21.902 52.802 21.902 11.783 0 22.928-2.732 32.837-7.597l-0.439 0.195 247.1-118.85c25.295-12.412 42.4-37.98 42.4-67.545 0-0.020 0-0.039 0-0.059v0.004-806.050c0-0.002 0-0.005 0-0.007 0-29.603-17.15-55.2-42.057-67.397l-0.443-0.196zM900.21 872.423l-358.9-272.4 358.9-272.4z"></path>
</svg>
