<!-- Generated by IcoMoon.io -->
<svg version="1.1" xmlns="http://www.w3.org/2000/svg" width="1200" height="1200" viewBox="0 0 1200 1200">
<title>brand-switch</title>
<path d="M708.8 1200h183.7c168.8 0 307.5-138.7 307.5-307.5v-585c0-168.75-138.7-307.5-307.5-307.5h-187.5c-3.7 0-7.5 3.7-7.5 7.5v1185c-0.050 3.8 3.75 7.5 11.3 7.5zM937.5 540.050c67.55 0 119.95 56.25 119.95 119.9 0 67.6-56.25 120-119.95 120-67.5 0-120-52.45-120-120-3.75-67.45 52.5-119.9 120-119.9zM570 0h-262.5c-168.75 0-307.5 138.75-307.5 307.5v585c0 168.8 138.75 307.5 307.5 307.5h262.5c3.7 0 7.5-3.7 7.5-7.45v-1185.050c0.050-3.8-3.75-7.5-7.5-7.5zM483.8 1102.55h-176.3c-116.3 0-210.050-93.75-210.050-210.050v-585c0-116.3 93.75-210.050 210.050-210.050h172.5zM187.5 359.95c0 63.75 48.75 112.5 112.5 112.5s112.5-48.75 112.5-112.5c0-63.65-48.75-112.5-112.5-112.5s-112.5 48.85-112.5 112.5z"></path>
</svg>
