<!-- Generated by IcoMoon.io -->
<svg version="1.1" xmlns="http://www.w3.org/2000/svg" width="1200" height="1200" viewBox="0 0 1200 1200">
<title>brand-reddit</title>
<path d="M300 675c0-41.421 33.579-75 75-75s75 33.579 75 75c0 41.421-33.579 75-75 75s-75-33.579-75-75zM750 675c0-41.421 33.579-75 75-75s75 33.579 75 75c0 41.421-33.579 75-75 75s-75-33.579-75-75zM753.647 835.287c19.315-15.218 47.316-11.899 62.536 7.42s11.897 47.318-7.423 62.538c-53.784 42.373-135.729 69.755-208.76 69.755-73.034 0-154.978-27.382-208.762-69.752-19.32-15.223-22.641-43.221-7.42-62.541 15.223-19.315 43.221-22.638 62.538-7.42 30.963 24.396 92.252 50.651 153.645 50.651s122.681-26.255 153.647-50.651zM1200 525c0-82.842-67.158-150-150-150-56.386 0-105.459 31.137-131.077 77.133-77.1-42.18-171.037-69.429-273.375-75.713l89.51-201.007 171.321 49.453c15.413 43.76 57.091 75.134 106.12 75.134 62.133 0 112.5-50.367 112.5-112.5s-50.367-112.5-112.5-112.5c-42.844 0-80.088 23.955-99.087 59.196l-190.905-55.106c-21.356-6.162-43.99 4.362-53.030 24.67l-121.605 273.077c-99.771 7.027-191.323 34.010-266.761 75.277-25.622-45.996-74.726-77.114-131.112-77.114-82.842 0-150 67.158-150 150 0 61.303 36.799 113.97 89.498 137.229-9.457 28.158-14.498 57.544-14.498 87.771 0 207.105 235.050 375 525 375 289.948 0 525-167.895 525-375 0-30.225-5.039-59.604-14.494-87.757 52.699-23.262 89.494-75.94 89.494-137.243zM1012.5 145.313c23.299 0 42.188 18.888 42.188 42.188s-18.888 42.188-42.188 42.188-42.188-18.888-42.188-42.188 18.888-42.188 42.188-42.188zM75 525c0-41.355 33.645-75 75-75 29.892 0 55.748 17.583 67.788 42.945-39.197 29.726-71.679 64.015-95.702 101.646-27.567-11.098-47.086-38.1-47.086-69.591zM600 1035.938c-240.762 0-435.938-128.018-435.938-285.938s195.176-285.938 435.938-285.938c240.762 0 435.938 128.018 435.938 285.938s-195.176 285.938-435.938 285.938zM1077.914 594.591c-24.023-37.631-56.505-71.92-95.702-101.646 12.042-25.362 37.896-42.945 67.788-42.945 41.355 0 75 33.645 75 75 0 31.491-19.519 58.493-47.086 69.591z"></path>
</svg>
