<!-- Generated by IcoMoon.io -->
<svg version="1.1" xmlns="http://www.w3.org/2000/svg" width="1200" height="1200" viewBox="0 0 1200 1200">
<title>brand-google</title>
<path d="M611.953 514.219v205.781h340.313c-13.828 88.359-102.891 258.75-340.313 258.75-204.844 0-371.953-169.687-371.953-378.75s167.109-378.75 371.953-378.75c116.484 0 194.531 49.688 239.063 92.578l162.891-156.797c-104.531-97.969-240-157.031-401.953-157.031-331.641 0-600 268.359-600 600s268.359 600 600 600c346.172 0 576.094-243.516 576.094-586.172 0-39.375-4.219-69.375-9.375-99.375l-566.719-0.234z"></path>
</svg>
