<!-- Generated by IcoMoon.io -->
<svg version="1.1" xmlns="http://www.w3.org/2000/svg" width="1200" height="1200" viewBox="0 0 1200 1200">
<title>brand-gba</title>
<path d="M81.229 76.45l130.077-76.448 907.433 523.85 0.565 597.507-133.618 78.415-0.173-0.102-0.565 0.329-904.249-528.28 0.53-595.27zM1015.018 1112.7h0.005l44.088-25.812-0.567-493.195-43.528 25.596v493.411zM985.345 566.536l43.297-25.249-817.091-471.697-40.481 23.755 814.274 473.19zM954.872 1112.153v-493.271l-813.422-473.157-0.565 491.467 813.988 474.962zM773.345 949.396l-482.855-281.055v-380.064l482.855 279.504v381.613zM708.843 604.976l-353.848-204.829v231.11l353.848 205.958v-232.235zM831.32 775.747l-37.404-21.796v67.61l37.404 21.741v57.493l65.38 40.582v-60.071l36.559 21.258-0.387-67.615-36.172-21.088v-58.488l-65.38-40.582v60.957zM202.652 465.070c1.157 27.178 14.473 48.686 29.741 48.040s26.709-23.209 25.553-50.388c-1.157-27.18-14.473-48.686-29.741-48.040s-26.709 23.208-25.553 50.388zM164.517 366.635c1.157 27.18 14.474 48.686 29.746 48.040s26.715-23.209 25.559-50.391-14.474-48.686-29.746-48.040c-15.273 0.65-26.714 23.215-25.559 50.391z"></path>
</svg>
