<!-- Generated by IcoMoon.io -->
<svg version="1.1" xmlns="http://www.w3.org/2000/svg" width="1200" height="1200" viewBox="0 0 1200 1200">
<title>brand-unreal</title>
<path d="M600 0c-328.6 0-594.95 268.65-594.95 600 0 331.4 266.35 600 594.95 600 328.55 0 594.95-268.6 594.95-600 0-331.35-266.4-600-594.95-600zM600 26.4c151.9 0 294.75 59.7 402.15 168 102.957 103.463 166.603 246.127 166.603 403.655 0 0.683-0.001 1.368-0.004 2.051v-0.105c0 153.2-59.15 297.25-166.6 405.6-102.135 103.732-244.089 168.001-401.053 168.001-0.368 0-0.736 0-1.104-0.001h0.057c-0.346 0.001-0.757 0.001-1.167 0.001-156.959 0-298.905-64.269-400.962-167.929l-0.071-0.073c-102.987-103.475-166.654-246.165-166.654-403.726 0-0.659 0.001-1.317 0.004-1.976v0.102c0-153.2 59.2-297.25 166.6-405.6 102.12-103.731 244.059-168.001 401.012-168.001 0.417 0 0.836 0 1.253 0.001h-0.064zM570.251 237.55c-96.9 26-186.6 75.8-306.15 212.9-119.6 137.1-96.9 250.3-96.9 250.3s33-77.9 112.35-159.95c37.6-38.85 65.7-51.85 84.9-51.9 0.509-0.030 1.103-0.048 1.702-0.048 16.513 0 29.9 13.386 29.9 29.9 0 0.088 0 0.175-0.001 0.261v-0.013 278.35c0 27.5-17.7 33.45-34 33.15-13.95-0.25-26.85-5.1-26.85-5.1 81.5 118.4 276.3 135 276.3 135l85.55-91.4 2 1.75 78.4 66.8c143.3-85.15 212.4-243 212.4-243-63.95 67.65-104.7 83.45-128.9 83.35-21.45-0.15-29.85-12.75-29.85-12.75-1.15-5.85-3.15-90.5-3.9-175.25-0.7-87.8-0.050-175.65 4.35-175.9 24.7-46.45 103.65-140.1 103.65-140.1-147.4 29.050-227.8 125.65-227.8 125.65-23.75-18.7-72.2-15.55-72.2-15.55 22.7 12.5 45.35 48.8 45.35 78.9v296c0 0-49.5 43.65-87.6 43.65-22.55 0-36.45-12.35-44.050-22.45-2.879-3.729-5.393-7.976-7.352-12.517l-0.148-0.383v-365.55c-5.021 3.724-11.305 6.012-18.117 6.15h-0.033c-8.1 0-16.5-4.1-22.2-16-4.3-9-7.050-22.5-7.050-42.1 0-67.5 76.25-112.15 76.25-112.15z"></path>
</svg>
