<!-- Generated by IcoMoon.io -->
<svg version="1.1" xmlns="http://www.w3.org/2000/svg" width="1200" height="1200" viewBox="0 0 1200 1200">
<title>brand-playstation</title>
<path d="M449.208 129.787v877.376l195.744 63.049v-735.83c0-34.499 15.2-57.548 39.698-49.549 31.799 9.050 37.999 40.699 37.999 75.247v293.791c122.046 59.648 218.094-0.1 218.094-157.645 0-161.845-56.299-233.743-221.895-291.342-65.347-22.399-186.395-59.299-269.543-75.097zM682.001 941.865l314.791-113.747c35.749-12.9 41.299-31.249 12.3-40.898-29.299-9.6-81.847-6.95-117.846 6.15l-210.244 74.947v-119.246l12-4.25c0 0 60.049-21 145.646-30.749 84.798-9 189.245 1.45 271.843 33.049 92.398 30.049 102.048 73.597 78.798 103.597s-81.097 51.799-81.097 51.799l-427.188 155.345v-114.846zM90.367 929.965c-94.998-27.248-110.696-83.398-67.597-116.046 40.049-29.249 107.946-52.549 107.946-52.549l280.792-100.648v115.646l-201.244 73.597c-35.249 13.55-41.249 31.598-11.95 41.299 29.299 9.75 81.847 7.5 117.146-6l96.898-35.299v103.698c-6.050 1.45-12.8 2.2-19.55 3.65-96.898 16.55-199.744 9.8-301.842-23.948z"></path>
</svg>
