<!-- Generated by IcoMoon.io -->
<svg version="1.1" xmlns="http://www.w3.org/2000/svg" width="1200" height="1200" viewBox="0 0 1200 1200">
<title>brand-slack</title>
<path d="M1060.046 562.5c54.911 0 97.098 40.179 97.098 95.089 0 42.857-22.098 72.991-62.277 87.054l-115.179 39.509 37.5 111.831c3.348 10.044 4.688 20.759 4.688 31.473 0 52.902-42.857 97.098-95.759 97.098-42.188 0-79.688-26.116-93.081-66.294l-36.831-110.491-207.589 70.982 36.831 109.821c3.348 10.044 5.357 20.759 5.357 31.473 0 52.232-42.857 97.098-96.429 97.098-42.188 0-79.018-26.116-92.411-66.294l-36.831-109.152-102.456 35.491c-10.714 3.348-22.098 6.027-33.482 6.027-54.241 0-95.089-40.179-95.089-94.419 0-41.518 26.786-79.018 66.294-92.411l104.464-35.491-70.313-209.598-104.464 36.161c-10.714 3.348-21.429 5.357-32.143 5.357-53.571 0-95.089-40.848-95.089-94.419 0-41.518 26.786-79.018 66.294-92.411l105.134-35.491-35.491-106.473c-3.348-10.044-5.357-20.759-5.357-31.473 0-52.902 42.857-97.098 96.429-97.098 42.188 0 79.018 26.116 92.411 66.294l36.161 107.143 207.589-70.313-36.161-107.143c-3.348-10.044-5.357-20.759-5.357-31.473 0-52.902 43.527-97.098 96.429-97.098 42.188 0 79.688 26.786 93.081 66.294l35.491 107.813 108.482-36.831c9.375-2.679 18.75-4.018 28.794-4.018 52.232 0 97.098 38.839 97.098 92.411 0 41.518-32.143 76.339-69.643 89.062l-105.134 36.161 70.313 211.607 109.821-37.5c10.044-3.348 20.759-5.357 30.804-5.357zM528.35 737.946l207.589-70.313-70.313-210.938-207.589 71.652z"></path>
</svg>
