<!-- Generated by IcoMoon.io -->
<svg version="1.1" xmlns="http://www.w3.org/2000/svg" width="1200" height="1200" viewBox="0 0 1200 1200">
<title>brand-gameboy</title>
<path d="M966.673 0h-733.352c-29.727 0-53.865 24.121-53.865 53.87v1092.26c0 29.749 24.141 53.87 53.865 53.87h537.775c137.771 0 249.451-111.683 249.451-249.432v-896.698c0-29.749-24.143-53.87-53.873-53.87zM281.009 167.968c0-24.43 19.811-44.215 44.223-44.215h549.531c24.414 0 44.22 19.785 44.22 44.215v310.747c0 24.432-19.806 44.215-44.22 44.215h-549.529c-24.414 0-44.223-19.782-44.223-44.215v-310.747zM550.078 894.961c0 9.688-7.855 17.543-17.538 17.543h-64.965v64.962c0 9.69-7.85 17.543-17.541 17.543h-84.915c-9.688 0-17.543-7.85-17.543-17.543v-64.962h-64.954c-9.69 0-17.544-7.855-17.544-17.543v-84.919c0-9.688 7.855-17.543 17.544-17.543h64.957v-64.964c0-9.688 7.855-17.541 17.543-17.541h84.921c9.688 0 17.538 7.849 17.538 17.541v64.964h64.965c9.683 0 17.538 7.85 17.538 17.543v84.918h-0.008zM735.894 1020c-35.898 0-64.997-29.099-64.997-64.999 0-35.898 29.099-65.002 64.997-65.002 35.9 0 64.999 29.099 64.999 65.002 0.005 35.9-29.099 64.999-64.999 64.999zM855.894 820.002c-35.9 0-64.995-29.096-64.995-64.999 0-35.9 29.094-65.002 64.995-65.002 35.903 0 65.002 29.096 65.002 65.002 0 35.9-29.099 64.999-65.002 64.999z"></path>
</svg>
