<!-- Generated by IcoMoon.io -->
<svg version="1.1" xmlns="http://www.w3.org/2000/svg" width="1200" height="1200" viewBox="0 0 1200 1200">
<title>brand-gameboy-outline</title>
<path d="M181.663 4.583c-39 14.106-65.681 46.69-72.098 87.748-1.542 10.004-2.313 204.736-1.8 519.027l0.771 502.863 5.903 14.621c13.604 33.355 41.045 58.752 72.87 67.226 14.878 4.102 43.103 4.358 345.847 3.587 327.895-1.029 329.684-1.029 350.205-6.417 49.262-13.348 93.391-38.742 128.278-73.886 46.69-46.946 72.87-104.168 78.258-170.621 3.33-40.287 3.33-832.044 0-855.64-5.132-36.429-28.225-67.739-61.323-84.146l-16.935-8.216-407.941-0.514c-400.998-0.503-408.173-0.503-422.034 4.372zM984.711 522.080c-0.257 467.205 1.029 439.239-19.236 479.782-18.991 38.486-49.777 65.681-93.135 82.616l-17.191 6.674-640.129 1.286v-985.216h769.693v414.859z"></path>
<path d="M303.28 168.531c-14.106 6.417-25.91 21.293-29.252 37.2-2.057 8.975-2.571 74.4-2.057 210.895l0.771 197.817 7.702 12.318c5.645 9.233 11.546 14.621 21.551 19.751l13.848 7.188 573.162-1.286 12.318-7.702c8.975-5.388 14.364-11.546 18.991-20.522l6.674-12.575 0.771-196.274c0.514-131.364-0.257-200.633-2.057-209.352-3.33-16.164-14.878-31.041-29.252-37.457-10.004-4.616-23.865-4.874-296.585-4.874-272.733 0-286.581 0.257-296.585 4.874zM820.507 408.679v137.265h-441.284v-274.532h441.284v137.265z"></path>
<path d="M381.783 765.301v55.164h-110.326v107.755h110.326v107.755h107.755v-107.755h110.326v-107.755h-110.326v-110.326h-107.755v55.164z"></path>
<path d="M858.221 767.358c-13.335 4.102-26.425 15.393-32.842 27.967-4.358 8.461-5.132 14.106-4.358 26.681 1.286 20.009 10.519 34.898 27.71 44.13 23.609 12.575 56.706 3.33 70.298-19.751 17.449-30.012 2.559-68.756-30.282-78.503-14.865-4.384-17.437-4.641-30.526-0.526z"></path>
<path d="M742.261 878.958c-21.551 10.004-33.87 32.070-31.297 54.906 2.057 16.164 8.216 26.681 21.807 37.2 37.2 28.481 91.078-4.616 84.146-51.833-2.057-13.348-14.106-30.783-26.681-37.971-12.318-7.175-35.4-8.204-47.975-2.302z"></path>
</svg>
