<!-- Generated by IcoMoon.io -->
<svg version="1.1" xmlns="http://www.w3.org/2000/svg" width="1200" height="1200" viewBox="0 0 1200 1200">
<title>brand-3ds</title>
<path d="M882.65 831.503c0 19.662 15.939 35.6 35.6 35.6s35.6-15.939 35.6-35.6v0c0-19.662-15.939-35.6-35.6-35.6s-35.6 15.939-35.6 35.6v0zM410.15 1043.402h378.75c15 0 26.2-11.25 27.2-26.2v-258.75c-1-14.1-13.15-26.25-27.2-25.35h-378.75c-0.062 0-0.136-0.001-0.211-0.001-14.648 0-26.572 11.665-26.988 26.213l-0.001 0.039v257.8c0 15.050 12.2 26.25 27.2 26.25zM1062.7 867.152c0.015 0 0.033 0 0.050 0 20.13 0 36.45-16.32 36.45-36.45v0c0-0.015 0-0.033 0-0.050 0-20.159-16.342-36.5-36.5-36.5s-36.5 16.342-36.5 36.5c0 20.159 16.342 36.5 36.5 36.5v0zM990.55 866.202c-0.391-0.015-0.85-0.025-1.31-0.025-19.717 0-35.7 15.983-35.7 35.7s15.983 35.7 35.7 35.7c0.478 0 0.955-0.009 1.429-0.028l-0.068 0.002c19.123-0.752 34.339-16.436 34.339-35.674 0-19.255-15.245-34.951-34.323-35.674l-0.066-0.002zM954.9 759.353c0 19.662 15.939 35.6 35.6 35.6s35.6-15.939 35.6-35.6v0c0-19.662-15.939-35.6-35.6-35.6s-35.6 15.939-35.6 35.6v0zM127 830.603c0 45.564 36.936 82.5 82.5 82.5s82.5-36.936 82.5-82.5v0c0-45.564-36.936-82.5-82.5-82.5s-82.5 36.936-82.5 82.5v0zM1063.6 0.002h-927.2c-0.12 0-0.26-0.001-0.401-0.001-75.211 0-136.215 60.829-136.499 135.974v927.127c0.95 75.95 61.9 136.9 136.9 136.9h926.3c0.048 0 0.104 0 0.161 0 75.424 0 136.68-60.663 137.639-135.86l0.001-0.090v-927.2c-0.95-75.9-61.9-136.85-136.9-136.85zM1159.25 1064.052c-0.226 52.707-42.893 95.374-95.578 95.6h-927.272c-52.729-0.198-95.423-42.875-95.65-95.578v-422.821h1118.45zM1159.25 579.353h-1118.5v-442.5c0.198-52.746 42.904-95.452 95.631-95.65h927.219c52.45 0 95.6 43.15 95.6 95.65v442.5zM870.45 155.603h-543.75c-15 0-27.2 13.15-27.2 28.15v273.75c0 15 11.3 28.15 27.2 28.15h543.75c15.050-0.108 27.21-12.334 27.21-27.4 0-0.264-0.004-0.527-0.012-0.789l0.001 0.039v-274.7c0-0.015 0-0.033 0-0.050 0-14.994-12.156-27.15-27.15-27.15-0.018 0-0.035 0-0.053 0h0.002z"></path>
</svg>
