<!-- Generated by IcoMoon.io -->
<svg version="1.1" xmlns="http://www.w3.org/2000/svg" width="1200" height="1200" viewBox="0 0 1200 1200">
<title>crown-queen-outline</title>
<path d="M601.015 262.5c72.375 0 131.25-58.875 131.25-131.25s-58.828-131.25-131.25-131.25-133.359 58.875-133.359 131.25 60.938 131.25 133.359 131.25zM1198.905 462.656c0-12.136-5.88-23.906-16.631-31.078l-64.697-37.359c-5.859-4.102-12.884-6.141-19.915-6.141-12.893 0.293-24.914 6.727-32.227 16.98-21.096 28.125-54.281 44.836-89.438 44.836-7.324 0-14.271-0.593-21.302-2.058-54.211-9.961-91.125-61.523-91.125-116.602-2.166-17.173-16.228-31.235-31.462-31.235h-90.82c-14.065 0-27.258 9.375-30.188 23.145-11.18 52.090-56.883 89.355-112.195 89.355-53.32 0-99.023-37.219-110.156-89.344-0.938-13.781-13.828-23.156-28.125-23.156h-90.82c-19.336 0-33.398 14.063-33.398 31.406 0 43.336-32.016 118.641-112.383 118.641-35.461 0-68.672-16.683-89.766-45.094-5.273-10.266-16.852-16.594-29.766-16.828-7.031 0-13.901 2.098-19.763 6.199l-67.102 37.5c-10.732 6.926-16.613 18.879-16.613 30.832 0 5.714 1.309 11.487 4.031 16.84l253.547 533.004h124.523l-218.391-458.438c19.922 5.625 40.453 8.438 61.242 8.438 5.7 0 133.195 3.523 198.656-123.047 40.688 53.906 107.484 85.547 176.156 85.547 68.859 0 133.617-31.359 176.391-84.961 11.578 23.086 69 122.461 198.844 122.461 20.51 0 41.016-2.637 60.937-8.203l-217.969 458.203h124.523l253.359-532.969c2.742-5.391 2.039-11.25 2.039-16.875zM994.765 1087.5h-787.547c-31.078 0-56.25 25.195-56.25 54.141s25.172 58.359 56.25 58.359h787.5c31.078 0 56.25-25.195 56.25-54.141s-25.031-58.359-56.203-58.359z"></path>
</svg>
