<!-- Generated by IcoMoon.io -->
<svg version="1.1" xmlns="http://www.w3.org/2000/svg" width="1200" height="1200" viewBox="0 0 1200 1200">
<title>crown</title>
<path d="M643.751 287.501c23.75-14.583 39.584-41.041 39.584-70.833 0-46.042-37.291-83.333-83.333-83.333s-83.333 37.291-83.333 83.333c0 30 15.833 56.25 39.584 70.833l-119.375 238.75c-18.959 37.917-68.125 48.75-101.25 22.291l-185.625-148.542c10.417-13.958 16.666-31.25 16.666-50 0-46.042-37.291-83.333-83.333-83.333s-83.333 37.291-83.333 83.333 37.291 83.333 83.333 83.333c0.417 0 1.042 0 1.458 0l95.208 523.75c11.459 63.333 66.667 109.583 131.25 109.583h577.5c64.375 0 119.583-46.042 131.25-109.583l95.208-523.75c0.417 0 1.042 0 1.458 0 46.042 0 83.333-37.291 83.333-83.333s-37.291-83.333-83.333-83.333-83.333 37.291-83.333 83.333c0 18.75 6.25 36.042 16.666 50l-185.625 148.542c-33.125 26.459-82.291 15.625-101.25-22.291l-119.375-238.75z"></path>
</svg>
