<!-- Generated by IcoMoon.io -->
<svg version="1.1" xmlns="http://www.w3.org/2000/svg" width="1200" height="1200" viewBox="0 0 1200 1200">
<title>gem-outline</title>
<path d="M1190.317 460.079l-244.155-361.068c-10.564-15.612-30.050-24.885-46.718-24.885h-603.11c-16.669 0-34.041 9.273-44.605 24.791l-242.043 361.068c-14.818 21.826-12.398 50.991 5.648 70.171l542.541 577.991c10.785 11.386 25.575 17.725 41.070 17.725s30.379-6.418 41.013-17.718l544.654-577.991c18.148-19.14 20.495-48.251 5.705-70.084zM895.923 225.761l149.31 223.989h-328.905l179.595-223.989zM598.945 418.996l-184.056-232.182h367.876l-183.82 232.182zM301.968 225.761l177.482 223.989h-328.812l151.329-223.989zM598.945 987.361l-400.461-424.924h801.016l-400.555 424.924z"></path>
</svg>
