<!-- Generated by IcoMoon.io -->
<svg version="1.1" xmlns="http://www.w3.org/2000/svg" width="1200" height="1200" viewBox="0 0 1200 1200">
<title>gem</title>
<path d="M273.555 88.474c10.547-14.297 27.422-22.969 45.234-22.969h562.502c17.813 0 34.688 8.438 45.234 22.969l262.501 356.252c15.938 21.563 14.297 51.328-3.516 71.25l-543.752 600.004c-10.781 11.719-25.781 18.516-41.719 18.516s-30.938-6.797-41.719-18.516l-543.752-600.004c-18.047-19.922-19.453-49.688-3.516-71.25l262.501-356.252zM363.79 181.755c-7.734 5.859-9.844 16.406-4.922 24.609l134.532 224.064-345.001 28.828c-9.609 0.703-17.109 8.906-17.109 18.75s7.5 17.813 17.109 18.75l450.002 37.5c0.938 0 2.109 0 3.047 0l450.002-37.5c9.609-0.703 17.109-8.906 17.109-18.75s-7.5-17.813-17.109-18.75l-344.767-28.594 134.532-224.064c4.922-8.203 2.813-18.984-4.922-24.609s-18.516-4.688-25.078 2.344l-211.173 228.517-211.173-228.751c-6.563-7.031-17.344-7.969-25.078-2.344z"></path>
</svg>
