<!-- Generated by IcoMoon.io -->
<svg version="1.1" xmlns="http://www.w3.org/2000/svg" width="1200" height="1200" viewBox="0 0 1200 1200">
<title>tower</title>
<path d="M120 430.5v-390.5c0-22 18-40 40-40h140c22 0 40 18 40 40v100c0 11 9 20 20 20h80c11 0 20-9 20-20v-100c0-22 18-40 40-40h200c22 0 40 18 40 40v100c0 11 9 20 20 20h80c11 0 20-9 20-20v-100c0-22 18-40 40-40h140c22 0 40 18 40 40v390.5c0 30.25-17 58-44.25 71.5l-71.5 35.75c-27 13.5-44.25 41.25-43.75 71.5 5 212.5 39.5 350.75 39.5 350.75h-719.999s34.5-138.25 39.5-350.5c0.75-30.25-16.5-58-43.75-71.5l-71.5-36c-27.25-13.5-44.25-41.25-44.25-71.5zM559.999 720h80c22 0 40-18 40-40v-120c0-44.25-35.75-80-80-80s-80 35.75-80 80v120c0 22 18 40 40 40zM199.999 1040h799.999c44.25 0 80 35.75 80 80s-35.75 80-80 80h-799.999c-44.25 0-80-35.75-80-80s35.75-80 80-80z"></path>
</svg>
