<!-- Generated by IcoMoon.io -->
<svg version="1.1" xmlns="http://www.w3.org/2000/svg" width="1200" height="1200" viewBox="0 0 1200 1200">
<title>user-circle-outline</title>
<path d="M600 262.5c-113.906 0-206.25 92.344-206.25 206.25s92.344 206.25 206.25 206.25 206.25-92.344 206.25-206.25c0-113.906-92.344-206.25-206.25-206.25zM600 562.5c-51.703 0-93.75-42.070-93.75-93.75 0-51.797 41.953-93.75 93.75-93.75s93.75 42.047 93.75 93.75c0 51.797-41.953 93.75-93.75 93.75zM600 0c-331.406 0-600 268.594-600 600s268.594 600 600 600 600-268.594 600-600-268.594-600-600-600zM600 1087.5c-109.523 0-210.375-36.75-291.797-97.945 40.547-77.836 119.297-127.055 207.891-127.055h168.023c88.477 0 167.133 49.242 207.844 127.055-81.492 61.148-182.508 97.945-291.961 97.945zM975.469 910.547c-63.281-98.906-171.094-160.547-291.563-160.547h-167.813c-120.375 0-228.164 61.523-291.563 160.5-69.938-84.328-112.031-192.609-112.031-310.5 0-268.828 218.695-487.5 487.5-487.5s487.5 218.695 487.5 487.5c0 117.891-42.188 226.172-112.031 310.547z"></path>
</svg>
