<!-- Generated by IcoMoon.io -->
<svg version="1.1" xmlns="http://www.w3.org/2000/svg" width="1200" height="1200" viewBox="0 0 1200 1200">
<title>user-circle</title>
<path d="M935.156 900.469c-51.797-90-149.063-150.469-260.156-150.469h-150c-111.094 0-208.359 60.469-260.156 150.469 82.5 91.875 202.031 149.531 335.156 149.531s252.656-57.891 335.156-149.531zM1200 600c0 331.406-268.594 600-600 600s-600-268.594-600-600 268.594-600 600-600 600 268.594 600 600zM600 637.5c93.281 0 168.75-75.469 168.75-168.75s-75.469-168.75-168.75-168.75-168.75 75.469-168.75 168.75 75.469 168.75 168.75 168.75z"></path>
</svg>
