<!-- Generated by IcoMoon.io -->
<svg version="1.1" xmlns="http://www.w3.org/2000/svg" width="1200" height="1200" viewBox="0 0 1200 1200">
<title>view-grid-12x</title>
<path d="M948.148 158.518h251.852v251.852h-251.852v-251.852zM948.148 1041.482v-251.852h251.852v251.852h-251.852zM631.111 1041.482v-251.852h254.815v251.852h-254.815zM317.037 1041.482v-251.852h251.852v251.852h-251.852zM0 1041.482v-251.852h251.852v251.852h-251.852zM948.148 727.407v-254.815h251.852v254.815h-251.852zM631.111 158.518h254.815v251.852h-254.815v-251.852zM317.037 410.371v-251.852h251.852v251.852h-251.852zM631.111 727.407v-254.815h254.815v254.815h-254.815zM317.037 727.407v-254.815h251.852v254.815h-251.852zM0 727.407v-254.815h251.852v254.815h-251.852zM0 410.371v-251.852h251.852v251.852h-251.852z"></path>
</svg>
