<svg height="38" viewBox="0 0 50.1 38" width="50.1" xmlns="http://www.w3.org/2000/svg" xmlns:xlink="http://www.w3.org/1999/xlink"><clipPath id="a"><path d="m0 0h50.1v38h-50.1z"/></clipPath><g clip-path="url(#a)"><path d="m46.9 14.8-8.6-12a1.9 1.9 0 0 0 -3 0l-8.6 12a1.4 1.4 0 0 0 .9 2.3h3.8c-.1 8-4.7 13.9-8 15.9s-1.5 2.7.5 2.9c16.9 0 18-16.7 18.1-18.8h4a1.4 1.4 0 0 0 .9-2.3" fill="#fff"/><path d="m46.9 14.8-8.6-12a1.9 1.9 0 0 0 -3 0l-8.6 12a1.4 1.4 0 0 0 .9 2.3h3.8c-.1 8-4.7 13.9-8 15.9s-1.5 2.7.5 2.9c16.9 0 18-16.7 18.1-18.8h4a1.4 1.4 0 0 0 .9-2.3z" fill="none" stroke="#333" stroke-linejoin="round" stroke-width="3"/><path d="m20.4 20.3h-3.8c.1-8 4.7-13.9 8-15.9s1.5-2.7-.5-2.9c-17 .1-18 16.8-18.1 18.8h-3.8a1.4 1.4 0 0 0 -.9 2.3l8.6 12a1.9 1.9 0 0 0 3 0l8.6-12a1.4 1.4 0 0 0 -.9-2.3" fill="#e40b20"/></g></svg>