<!-- Generated by IcoMoon.io -->
<svg version="1.1" xmlns="http://www.w3.org/2000/svg" width="1200" height="1200" viewBox="0 0 1200 1200">
<title>bars</title>
<path d="M0 171.429c0-47.411 38.304-85.714 85.714-85.714h1028.571c47.411 0 85.714 38.304 85.714 85.714s-38.304 85.714-85.714 85.714h-1028.571c-47.411 0-85.714-38.304-85.714-85.714zM0 600c0-47.411 38.304-85.714 85.714-85.714h1028.571c47.411 0 85.714 38.304 85.714 85.714s-38.304 85.714-85.714 85.714h-1028.571c-47.411 0-85.714-38.304-85.714-85.714zM1200 1028.571c0 47.411-38.304 85.714-85.714 85.714h-1028.571c-47.411 0-85.714-38.304-85.714-85.714s38.304-85.714 85.714-85.714h1028.571c47.411 0 85.714 38.304 85.714 85.714z"></path>
</svg>
