<!-- Generated by IcoMoon.io -->
<svg version="1.1" xmlns="http://www.w3.org/2000/svg" width="1200" height="1200" viewBox="0 0 1200 1200">
<title>box-select</title>
<path d="M901.409 1200v-118.31h180.281v-180.281h118.31v208.451q0 36.62-26.761 63.381t-63.381 26.761h-208.451zM298.591 1200h-208.451q-36.62 0-63.381-26.761t-26.761-63.381v-208.451h118.31v180.281h180.281v118.31zM901.409 0h208.451q36.62 0 63.381 26.761t26.761 63.381v208.451h-118.31v-180.281h-180.281v-118.31zM298.591 0v118.31h-180.281v180.281h-118.31v-208.451q0-36.62 26.761-63.381t63.381-26.761h208.451zM659.155 915.493l242.254-138.028v-276.056l-242.254 138.028v276.056zM600 535.212l239.436-138.028-239.436-140.845-239.436 140.845zM298.591 777.465l242.254 138.028v-276.056l-242.254-138.028v276.056zM974.648 335.211q45.070 28.17 45.070 78.873v380.282q0 50.705-45.070 78.873l-329.577 191.549q-45.070 28.17-90.141 0l-329.577-191.549q-45.070-28.17-45.070-78.873v-380.282q0-50.705 45.070-78.873l329.577-191.549q22.535-11.268 45.070-11.268t45.070 11.268z"></path>
</svg>
