<!-- Generated by IcoMoon.io -->
<svg version="1.1" xmlns="http://www.w3.org/2000/svg" width="1200" height="1200" viewBox="0 0 1200 1200">
<title>brand-twitter</title>
<path d="M1200.117 227.813c-44.063 19.688-91.641 32.813-141.328 38.672 50.859-30.469 89.766-78.75 108.281-136.172-47.578 28.125-100.313 48.75-156.328 59.766-45-47.813-108.984-77.578-179.766-77.578-135.938 0-246.094 110.156-246.094 246.094 0 19.219 2.109 37.969 6.328 56.016-204.609-10.313-386.016-108.281-507.422-257.344-21.094 36.328-33.281 78.75-33.281 123.75 0 85.313 43.359 160.781 109.453 204.844-40.313-1.172-78.281-12.422-111.563-30.703 0 0.938 0 2.109 0 3.047 0 119.297 84.844 218.906 197.578 241.406-20.625 5.625-42.422 8.672-64.922 8.672-15.938 0-31.172-1.641-46.406-4.453 31.406 97.734 122.344 168.984 229.922 171.094-84.375 66.094-190.313 105.469-305.859 105.469-19.922 0-39.375-1.172-58.828-3.516 109.219 70.078 238.594 110.625 377.578 110.625 452.812 0 700.547-375.234 700.547-700.547 0-10.781-0.234-21.328-0.703-31.875 48.047-34.453 89.766-77.813 122.813-127.266z"></path>
</svg>
