<!-- Generated by IcoMoon.io -->
<svg version="1.1" xmlns="http://www.w3.org/2000/svg" width="1200" height="1200" viewBox="0 0 1200 1200">
<title>brand-whatsapp</title>
<path d="M1022.93 174.375c-112.266-112.5-261.563-174.375-420.703-174.375-327.656 0-594.375 266.719-594.375 594.609 0 104.766 27.422 207.188 79.453 297.188l-84.375 308.203 315.234-82.734c86.953 47.344 184.688 72.422 284.063 72.422h0.234c0 0 0 0 0 0 327.656 0 594.609-266.719 594.609-594.609 0-158.906-61.875-308.203-174.141-420.703zM602.461 1089.375v0c-88.828 0-175.781-23.906-251.719-68.906l-18.047-10.781-187.031 48.984 49.922-182.344-11.719-18.75c-49.688-78.516-75.703-169.453-75.703-262.969 0-272.578 221.719-494.297 494.531-494.297 131.953 0 256.172 51.563 349.453 144.844 93.281 93.516 144.609 217.5 144.609 349.687-0.234 272.813-221.953 494.531-494.297 494.531zM873.398 719.063c-14.766-7.5-87.891-43.359-101.484-48.281s-23.438-7.5-33.516 7.5c-9.844 14.766-38.437 48.281-47.109 58.359-8.672 9.844-17.344 11.25-32.109 3.75s-62.813-23.203-119.531-73.828c-44.063-39.375-74.063-88.125-82.734-102.891s-0.938-22.969 6.563-30.234c6.797-6.563 14.766-17.344 22.266-26.016s9.844-14.766 14.766-24.844c4.922-9.844 2.578-18.516-1.172-26.016s-33.516-80.625-45.703-110.391c-11.953-29.063-24.375-25.078-33.516-25.547-8.672-0.469-18.516-0.469-28.359-0.469s-26.016 3.75-39.609 18.516c-13.594 14.766-52.031 50.859-52.031 123.984s53.203 143.672 60.703 153.75c7.5 9.844 104.766 160.078 253.828 224.297 35.391 15.234 63.047 24.375 84.609 31.406 35.625 11.25 67.969 9.609 93.516 5.859 28.594-4.219 87.891-35.859 100.313-70.547s12.422-64.453 8.672-70.547c-3.516-6.563-13.359-10.312-28.359-17.813z"></path>
</svg>
