<!-- Generated by IcoMoon.io -->
<svg version="1.1" xmlns="http://www.w3.org/2000/svg" width="1200" height="1200" viewBox="0 0 1200 1200">
<title>brand-github</title>
<path d="M600.009 14.815c-331.334 0-600.009 268.615-600.009 599.998 0 265.095 171.919 489.998 410.316 569.339 29.984 5.552 41.006-13.020 41.006-28.866 0-14.302-0.563-61.573-0.816-111.708-166.931 36.3-202.153-70.793-202.153-70.793-27.284-69.347-66.619-87.792-66.619-87.792-54.436-37.24 4.113-36.473 4.113-36.473 60.234 4.23 91.964 61.835 91.964 61.835 53.522 91.723 140.363 65.203 174.614 49.873 5.377-38.773 20.92-65.25 38.093-80.231-133.277-15.166-273.37-66.621-273.37-296.522 0-65.505 23.442-119.032 61.828-161.048-6.23-15.117-26.782-76.139 5.803-158.789 0 0 50.398-16.116 165.047 61.512 47.855-13.298 99.183-19.964 150.18-20.196 50.979 0.232 102.347 6.898 150.3 20.196 114.532-77.63 164.831-61.512 164.831-61.512 32.662 82.65 12.129 143.672 5.902 158.789 38.461 42.019 61.751 95.545 61.751 161.048 0 230.454-140.365 281.191-273.973 296.044 21.52 18.621 40.692 55.132 40.692 111.108 0 80.283-0.698 144.895-0.698 164.658 0 15.97 10.807 34.68 41.217 28.788 238.268-79.425 409.971-304.249 409.971-569.259 0-331.383-268.634-599.998-599.991-599.998z"></path>
</svg>
