<!-- Generated by IcoMoon.io -->
<svg version="1.1" xmlns="http://www.w3.org/2000/svg" width="1200" height="1200" viewBox="0 0 1200 1200">
<title>brand-xbox</title>
<path d="M205.1 1051.65c105.45 92.4 243.75 148.35 394.9 148.35 151.3 0 289.45-55.95 395.1-148.35 93.85-95.6-215.8-435.45-395.1-570.85-179.1 135.4-488.95 475.25-394.9 570.85zM763.1 331.35c125 148.050 374.2 515.65 303.8 645.6 83.2-102.95 133.1-233.9 133.1-376.75 0-167-68.25-318.1-178.5-426.8 0 0-1.35-1.1-4.1-2.1-3.15-1.1-7.6-2.25-14.050-2.25-29.6 0-99.25 21.7-240.25 162.3zM182.7 171.3c-2.85 1-4.1 2.050-4.3 2.1-110.15 108.7-178.4 259.8-178.4 426.8 0 142.7 49.9 273.65 133.050 376.65-70.050-130.25 178.95-497.55 304-645.5-141-140.65-210.8-162.25-240.3-162.25-6.55 0-11.15 1.050-14.050 2.3zM600 177.55c0 0-147.25-86.15-262.25-90.25-45.15-1.65-72.7 14.75-76.050 16.95 107.25-71.95 221.25-104.25 337.5-104.25h0.8c116.7 0 230.25 32.3 338.3 104.25-3.4-2.3-30.75-18.6-76-16.95-115 4.1-262.3 89.95-262.3 89.95z"></path>
</svg>
