<!-- Generated by IcoMoon.io -->
<svg version="1.1" xmlns="http://www.w3.org/2000/svg" width="1200" height="1200" viewBox="0 0 1200 1200">
<title>brand-youtube</title>
<path d="M1187.813 360.117c0 0-11.719-82.734-47.813-119.062-45.703-47.813-96.797-48.047-120.234-50.859-167.813-12.188-419.766-12.188-419.766-12.188h-0.469c0 0-251.953 0-419.766 12.188-23.438 2.813-74.531 3.047-120.234 50.859-36.094 36.328-47.578 119.062-47.578 119.062s-11.953 97.031-11.953 194.297v90.938c0 97.031 11.953 194.297 11.953 194.297s11.719 82.734 47.578 119.063c45.703 47.813 105.703 46.172 132.422 51.328 96.094 9.141 408.047 11.953 408.047 11.953s252.188-0.469 420-12.422c23.438-2.813 74.531-3.047 120.234-50.859 36.094-36.328 47.813-119.063 47.813-119.063s11.953-97.031 11.953-194.297v-90.938c-0.234-97.031-12.188-194.297-12.188-194.297zM475.781 755.742v-337.266l324.141 169.219-324.141 168.047z"></path>
</svg>
