<!-- Generated by IcoMoon.io -->
<svg version="1.1" xmlns="http://www.w3.org/2000/svg" width="1200" height="1200" viewBox="0 0 1200 1200">
<title>brand-apple</title>
<path d="M927.536 637.608c-1.516-151.971 123.935-224.855 129.541-228.476-70.491-103.148-180.293-117.279-219.424-118.912-93.448-9.462-182.339 55.017-229.765 55.017-47.306 0-120.49-53.618-197.991-52.209-101.855 1.514-195.771 59.224-248.217 150.445-105.825 183.63-27.101 455.672 76.043 604.6 50.4 72.895 110.498 154.777 189.405 151.852 75.987-3.033 104.721-49.17 196.589-49.17s117.689 49.17 198.105 47.66c81.766-1.519 133.573-74.295 183.623-147.417 57.879-84.572 81.71-166.451 83.114-170.655-1.814-0.827-159.445-61.214-161.025-242.735zM776.439 191.627c41.88-50.81 70.148-121.303 62.437-191.627-60.326 2.456-133.451 40.184-176.73 90.879-38.838 44.972-72.83 116.749-63.72 185.667 67.343 5.255 136.088-34.223 178.013-84.919z"></path>
</svg>
