<!-- Generated by IcoMoon.io -->
<svg version="1.1" xmlns="http://www.w3.org/2000/svg" width="1200" height="1200" viewBox="0 0 1200 1200">
<title>brand-discord</title>
<path d="M1011.1 0c70.3 0 127 56.85 130.35 123.75v1076.25l-133.85-113.65-73.5-66.9-80.2-69.9 33.5 110.25h-701.9c-70.1 0-127-53.25-127-123.8v-812c0-66.9 57-123.85 127.25-123.85h825zM705.2 284.15h-1.5l-10.1 10c103.65 30 153.8 76.85 153.8 76.85-66.8-33.4-127-50.1-187.2-56.85-43.5-6.75-87-3.2-123.75 0h-10c-23.5 0-73.5 10-140.5 36.75-23.35 10.15-36.75 16.8-36.75 16.8s50.1-50.1 160.5-76.85l-6.75-6.75c0 0-83.6-3.2-173.85 63.5 0 0-90.25 157.2-90.25 351 0 0 50 87 187.15 90.3 0 0 20-26.65 40.25-50.1-77-23.4-107-70.2-107-70.2s6.7 3.3 16.75 10h3c1.5 0 2.2 0.75 3 1.5v0.3c0.8 0.8 1.5 1.5 3 1.5 16.5 6.8 33 13.5 46.5 20 23.3 10.1 53.25 20.15 90 26.8 46.5 6.75 99.8 10 160.5 0 30-6.75 60-13.35 90-26.75 19.5-10 43.5-20 69.85-36.85 0 0-30 46.8-110.25 70.2 16.5 23.3 39.75 50 39.75 50 137.2-3 190.5-90 193.5-86.3 0-193.5-90.75-351-90.75-351-81.75-60.7-158.25-63-171.75-63zM713.6 504.8c35.15 0 63.5 30 63.5 66.75 0 37-28.5 67-63.5 67s-63.5-30-63.5-66.7c0.1-37 28.65-66.9 63.5-67.050zM486.45 504.8c35 0 63.3 30 63.3 66.75 0 37-28.5 67-63.5 67s-63.5-30-63.5-66.7c0-37 28.5-66.9 63.7-67.050z"></path>
</svg>
