<!-- Generated by IcoMoon.io -->
<svg version="1.1" xmlns="http://www.w3.org/2000/svg" width="1200" height="1200" viewBox="0 0 1200 1200">
<title>brand-instagram</title>
<path d="M600 108.047c160.313 0 179.297 0.703 242.344 3.516 58.594 2.578 90.234 12.422 111.328 20.625 27.891 10.781 48.047 23.906 68.906 44.766 21.094 21.094 33.984 41.016 45 68.906 8.203 21.094 18.047 52.969 20.625 111.328 2.812 63.281 3.516 82.266 3.516 242.344s-0.703 179.297-3.516 242.344c-2.578 58.594-12.422 90.234-20.625 111.328-10.781 27.891-23.906 48.047-44.766 68.906-21.094 21.094-41.016 33.984-68.906 45-21.094 8.203-52.969 18.047-111.328 20.625-63.281 2.813-82.266 3.516-242.344 3.516s-179.297-0.703-242.344-3.516c-58.594-2.578-90.234-12.422-111.328-20.625-27.891-10.781-48.047-23.906-68.906-44.766-21.094-21.094-33.984-41.016-45-68.906-8.203-21.094-18.047-52.969-20.625-111.328-2.813-63.281-3.516-82.266-3.516-242.344s0.703-179.297 3.516-242.344c2.578-58.594 12.422-90.234 20.625-111.328 10.781-27.891 23.906-48.047 44.766-68.906 21.094-21.094 41.016-33.984 68.906-45 21.094-8.203 52.969-18.047 111.328-20.625 63.047-2.813 82.031-3.516 242.344-3.516zM600 0c-162.891 0-183.281 0.703-247.266 3.516-63.75 2.813-107.578 13.125-145.547 27.891-39.609 15.469-73.125 35.859-106.406 69.375-33.516 33.281-53.906 66.797-69.375 106.172-14.766 38.203-25.078 81.797-27.891 145.547-2.813 64.219-3.516 84.609-3.516 247.5s0.703 183.281 3.516 247.266c2.813 63.75 13.125 107.578 27.891 145.547 15.469 39.609 35.859 73.125 69.375 106.406 33.281 33.281 66.797 53.906 106.172 69.141 38.203 14.766 81.797 25.078 145.547 27.891 63.984 2.813 84.375 3.516 247.266 3.516s183.281-0.703 247.266-3.516c63.75-2.813 107.578-13.125 145.547-27.891 39.375-15.234 72.891-35.859 106.172-69.141s53.906-66.797 69.141-106.172c14.766-38.203 25.078-81.797 27.891-145.547 2.813-63.984 3.516-84.375 3.516-247.266s-0.703-183.281-3.516-247.266c-2.813-63.75-13.125-107.578-27.891-145.547-14.766-39.844-35.156-73.359-68.672-106.641-33.281-33.281-66.797-53.906-106.172-69.141-38.203-14.766-81.797-25.078-145.547-27.891-64.219-3.047-84.609-3.75-247.5-3.75v0z"></path>
<path d="M600 291.797c-170.156 0-308.203 138.047-308.203 308.203s138.047 308.203 308.203 308.203 308.203-138.047 308.203-308.203c0-170.156-138.047-308.203-308.203-308.203zM600 799.922c-110.391 0-199.922-89.531-199.922-199.922s89.531-199.922 199.922-199.922c110.391 0 199.922 89.531 199.922 199.922s-89.531 199.922-199.922 199.922z"></path>
<path d="M992.344 279.609c0 39.738-32.215 71.953-71.953 71.953s-71.953-32.215-71.953-71.953c0-39.738 32.215-71.953 71.953-71.953s71.953 32.215 71.953 71.953z"></path>
</svg>
