<!-- Generated by IcoMoon.io -->
<svg version="1.1" xmlns="http://www.w3.org/2000/svg" width="1200" height="1200" viewBox="0 0 1200 1200">
<title>brand-telegram</title>
<path d="M600 0c-331.406 0-600 268.594-600 600s268.594 600 600 600 600-268.594 600-600-268.594-600-600-600zM894.844 411.328l-98.438 463.828c-6.797 33.047-26.719 40.781-54.375 25.547l-150-110.859-71.953 70.078c-8.438 8.203-15 15-30 15-19.453 0-16.172-7.266-22.734-25.781l-51.094-167.812-148.359-46.172c-32.109-9.844-32.344-31.875 7.266-47.578l577.969-223.125c26.25-11.953 51.797 6.328 41.719 46.875z"></path>
</svg>
