<!-- Generated by IcoMoon.io -->
<svg version="1.1" xmlns="http://www.w3.org/2000/svg" width="1200" height="1200" viewBox="0 0 1200 1200">
<title>brand-android</title>
<path d="M1049.996 450.006c-41.25 0-75 33.75-75 75v299.998c0 41.25 33.75 75 75 75s75-33.75 75-75v-299.998c0-41.25-33.75-75-75-75zM150.004 450.006c-41.25 0-75 33.75-75 75v299.998c0 41.25 33.75 75 75 75s75-33.75 75-75v-299.998c0-41.25-33.752-75-75-75zM262.502 862.502c0 62.133 50.367 112.499 112.499 112.499v0 149.999c0 41.25 33.75 75 75 75s75-33.75 75-75v-149.999h149.999v149.999c0 41.25 33.75 75 75 75s75-33.75 75-75v-149.999c62.133 0 112.499-50.367 112.499-112.499v-412.496h-674.995v412.496z"></path>
<path d="M935.407 375.008c-11.386-102.988-69.145-191.943-151.897-245.677l37.528-75.054c9.262-18.523 1.753-41.048-16.77-50.311s-41.051-1.753-50.311 16.772l-37.666 75.335-9.785-3.886c-33.478-11.135-69.284-17.18-106.506-17.18-37.221 0-73.027 6.045-106.508 17.175l-9.783 3.886-37.666-75.33c-9.262-18.525-31.791-26.030-50.311-16.772-18.525 9.263-26.032 31.788-16.772 50.311l37.526 75.054c-82.752 53.733-140.511 142.689-151.9 245.674v37.5h672.912v-37.498h-2.091zM487.501 300.007c-20.712 0-37.5-16.791-37.5-37.5 0-20.681 16.744-37.451 37.418-37.495 0.038 0 0.073 0.002 0.11 0.002 0.021 0 0.042-0.002 0.061-0.002 20.67 0.049 37.411 16.816 37.411 37.495 0 20.709-16.788 37.5-37.5 37.5zM712.499 300.007c-20.712 0-37.5-16.791-37.5-37.5 0-20.679 16.741-37.446 37.411-37.495 0.019 0 0.040 0.002 0.059 0.002 0.038 0 0.075-0.002 0.112-0.002 20.672 0.045 37.418 16.814 37.418 37.495 0 20.709-16.788 37.5-37.5 37.5z"></path>
</svg>
