<!-- Generated by IcoMoon.io -->
<svg version="1.1" xmlns="http://www.w3.org/2000/svg" width="1200" height="1200" viewBox="0 0 1200 1200">
<title>brand-godot</title>
<path d="M477.989 34.127c-54.805 12.202-109.059 29.153-159.913 54.755 1.15 44.904 4.050 87.907 9.952 131.611-19.751 12.652-40.504 23.502-58.904 38.304-18.751 14.401-37.903 28.202-54.854 45.054-33.902-22.403-69.806-43.453-106.759-62.054-39.853 42.853-77.107 89.107-107.509 140.912 22.902 37.054 46.804 71.756 72.606 104.708h0.7v317.827c0.6 0 1.15 0 1.75 0.15l194.816 18.802c10.201 1 18.202 9.202 18.901 19.451l6 86.007 169.964 12.101 11.701-79.357c1.5-10.301 10.351-17.902 20.752-17.902h205.568c10.402 0 19.252 7.601 20.752 17.902l11.701 79.357 169.964-12.101 6-86.007c0.7-10.252 8.701-18.451 18.901-19.451l194.767-18.802c0.6 0 1.15-0.15 1.75-0.15v-25.352h0.1v-292.425h0.7c25.802-32.952 49.705-67.656 72.606-104.708-30.402-51.805-67.706-98.058-107.559-140.961-36.954 18.601-72.855 39.654-106.759 62.054-16.951-16.852-36.054-30.653-54.805-45.054-18.451-14.801-39.204-25.652-58.904-38.304 5.85-43.704 8.752-86.707 9.952-131.611-50.855-25.602-105.060-42.553-159.913-54.755-21.902 36.804-41.904 76.656-59.354 115.609-20.701-3.45-41.454-4.7-62.305-4.95h-0.8c-20.851 0.25-41.604 1.5-62.305 4.95-17.452-38.953-37.453-78.807-59.405-115.609zM323.825 499.417c64.856 0 117.459 52.555 117.459 117.409s-52.604 117.409-117.459 117.409c-64.806 0-117.409-52.555-117.409-117.409s52.555-117.409 117.409-117.409zM876.273 499.417c64.806 0 117.409 52.555 117.409 117.409s-52.555 117.409-117.409 117.409-117.459-52.555-117.459-117.409 52.555-117.409 117.459-117.409zM335.077 545.921c-43.054 0-77.957 34.902-77.957 77.957s34.902 77.907 77.957 77.907 77.957-34.902 77.957-77.907-34.853-77.957-77.957-77.957zM864.971 545.921c-43.054 0-77.907 34.902-77.907 77.957s34.853 77.907 77.907 77.907 77.957-34.902 77.957-77.907-34.853-77.957-77.957-77.957zM600.049 568.573c20.851 0 37.854 15.401 37.854 34.352v108.109c0 18.952-16.951 34.352-37.854 34.352s-37.804-15.401-37.804-34.352v-108.109c0-18.952 16.951-34.352 37.804-34.352zM73.004 847.296c0.1 18.851 0.3 39.454 0.3 43.554 0 185.065 234.72 273.974 526.344 275.024h0.7c291.625-1 526.295-89.957 526.295-275.024 0-4.2 0.25-24.752 0.35-43.554l-175.116 16.901-6.050 86.457c-0.75 10.402-9.001 18.751-19.451 19.501l-209.067 14.801c-10.301 0-19.201-7.552-20.752-17.902l-11.902-80.707h-169.314l-11.902 80.707c-1.6 10.852-11.302 18.652-22.253 17.851l-207.567-14.801c-10.402-0.75-18.751-9.052-19.451-19.451l-6-86.457z"></path>
</svg>
