<!-- Generated by IcoMoon.io -->
<svg version="1.1" xmlns="http://www.w3.org/2000/svg" width="1200" height="1200" viewBox="0 0 1200 1200">
<title>brand-ios</title>
<path d="M55 302.5c-30.7 0-55 24-55 54 0 0.002 0 0.006 0 0.009 0 29.823 24.177 54 54 54 0.352 0 0.702-0.004 1.052-0.011l-0.053 0.001c31 0 55.5-24 55.5-54s-24.5-54-55.5-54zM435.5 303.5c-168 0-273 114.5-273 296.5 0 183.5 105 297.5 273 297.5 167 0 272.5-114 272.5-297.5 0-182-105.5-296.5-272.5-296.5zM977.5 303.5c-125 0-214 69-214 171.5 0 81.5 50.5 132.5 156.5 157l74.5 18c72.5 16.5 102 40.5 102 82 0 48-48.5 82-117.5 82-70.5 0-123.5-34.5-129-87.5h-100c4 106 91 171 223 171 139.5 0 227-68.5 227-177.5 0-85.5-50-134-166-160.5l-66.5-15c-70.5-17-99.5-39.5-99.5-77.5 0-48 44-80 109-80 65.5 0 110.5 32.5 115.5 86h98c-2.5-101-86-169.5-213-169.5zM435.5 391c102 0 167.5 81.5 167.5 209 0 128.5-65.5 210-167.5 210-103 0-168-81.5-168-210 0-127.5 65-209 168-209zM5.55 465.5v422.5h99.45v-422.5z"></path>
</svg>
