<!-- Generated by IcoMoon.io -->
<svg version="1.1" xmlns="http://www.w3.org/2000/svg" width="1200" height="1200" viewBox="0 0 1200 1200">
<title>brightness-sun2</title>
<path d="M140.426 984.257l97.022-99.574 76.596 76.596-97.022 99.574zM546.382 1196.171v-160.852h107.234v160.852h-107.234zM600 271.915q135.319 0 231.063 95.745t95.745 231.063-95.745 231.063-231.063 95.745-231.063-95.745-95.745-231.063 95.745-231.063 231.063-95.745zM1036.596 545.107h163.404v109.788h-163.404v-109.788zM885.959 961.279l76.596-74.044 97.022 97.022-76.596 76.596zM1059.574 215.746l-97.022 97.022-76.596-76.596 97.022-97.022zM653.618 3.83v160.852h-107.234v-160.852h107.234zM163.404 545.107v109.788h-163.404v-109.788h163.404zM314.041 236.17l-76.596 76.596-97.022-97.022 76.596-76.596z"></path>
</svg>
