<!-- Generated by IcoMoon.io -->
<svg version="1.1" xmlns="http://www.w3.org/2000/svg" width="1200" height="1200" viewBox="0 0 1200 1200">
<title>brightness</title>
<path d="M600 436.596v326.809q66.383 0 114.894-48.511t48.511-114.894-48.511-114.894-114.894-48.511zM382.979 817.021v-135.319l-81.702-81.702 81.702-81.702v-135.319h135.319l81.702-81.702 81.702 81.702h135.319v135.319l81.702 81.702-81.702 81.702v135.319h-135.319l-81.702 81.702-81.702-81.702h-135.319zM1090.213 982.979v-765.957h-980.426v765.957h980.426zM1090.213 109.787q43.404 0 76.596 33.191t33.191 76.596v760.852q0 43.404-33.191 76.596t-76.596 33.191h-980.426q-43.404 0-76.596-33.191t-33.191-76.596v-760.852q0-43.404 33.191-76.596t76.596-33.191h980.426z"></path>
</svg>
