<!-- Generated by IcoMoon.io -->
<svg version="1.1" xmlns="http://www.w3.org/2000/svg" width="1200" height="1200" viewBox="0 0 1200 1200">
<title>cross-circle</title>
<path d="M600 0c-331.452 0-600 268.548-600 600s268.548 600 600 600 600-268.548 600-600-268.548-600-600-600zM894.193 757.5c11.371 11.371 11.371 29.759 0 41.129l-95.807 95.564c-11.371 11.371-29.759 11.371-41.129 0l-157.259-158.709-157.5 158.709c-11.371 11.371-29.759 11.371-41.129 0l-95.564-95.807c-11.371-11.371-11.371-29.759 0-41.129l158.709-157.259-158.709-157.5c-11.371-11.371-11.371-29.759 0-41.129l95.807-95.807c11.371-11.371 29.759-11.371 41.129 0l157.259 158.952 157.5-158.709c11.371-11.371 29.759-11.371 41.129 0l95.807 95.807c11.371 11.371 11.371 29.759 0 41.129l-158.952 157.259 158.709 157.5z"></path>
</svg>
