<!-- Generated by IcoMoon.io -->
<svg version="1.1" xmlns="http://www.w3.org/2000/svg" width="1200" height="1200" viewBox="0 0 1200 1200">
<title>crown-queen</title>
<path d="M731.25 131.25c0-72.422-58.828-131.25-131.25-131.25s-131.25 58.828-131.25 131.25 58.828 131.25 131.25 131.25 131.25-58.828 131.25-131.25zM150 1125c0 41.484 33.516 75 75 75h750c41.484 0 75-33.516 75-75s-33.516-75-75-75h-750c-41.484 0-75 33.516-75 75zM79.688 397.031l-58.125 38.438c-13.359 9.141-21.563 24.375-21.563 40.547 0 7.5 1.641 15 5.156 21.797l238.594 477.187h712.5l238.594-477.188c3.281-6.797 5.156-14.297 5.156-21.797 0-16.172-8.203-31.406-21.563-40.547l-58.125-38.438c-19.219-12.656-44.531-10.313-60.938 6.094-30.234 30.234-72.422 51.328-112.5 36.328-41.953-15.703-65.859-47.109-76.875-83.906-8.672-29.766-32.578-55.547-63.75-55.547h-37.5c-31.172 0-56.016 26.25-69.375 54.375-13.594 28.594-41.719 58.125-99.375 58.125s-85.781-29.531-99.375-58.125c-13.359-28.125-38.203-54.375-69.375-54.375h-37.5c-31.172 0-55.078 25.781-63.984 55.547-11.016 36.562-34.922 68.203-76.875 83.906-39.844 15-82.266-6.328-112.5-36.328-16.172-16.172-41.719-18.75-60.703-6.094z"></path>
</svg>
