<!-- Generated by IcoMoon.io -->
<svg version="1.1" xmlns="http://www.w3.org/2000/svg" width="1200" height="1200" viewBox="0 0 1200 1200">
<title>diamond-outline</title>
<path d="M124.256 487.509l365.010 389.617-175.767-389.617h-189.241zM599.999 939.816l204.476-452.307h-408.95zM315.257 412.515l119.521-224.982h-153.503l-168.736 224.982h202.718zM710.732 877.125l365.010-389.617h-189.241zM400.211 412.515h399.577l-119.521-224.982h-160.533zM884.741 412.515h202.718l-168.736-224.982h-153.503zM967.352 127.773l224.982 299.975c11.132 14.061 9.96 34.567-2.344 48.043l-562.454 599.951c-7.030 7.617-16.99 11.719-27.537 11.719s-20.507-4.102-27.537-11.719l-562.454-599.951c-12.304-13.475-13.475-33.982-2.344-48.043l224.982-299.975c7.030-9.96 18.162-15.233 29.88-15.233h674.945c11.719 0 22.85 5.273 29.88 15.233z"></path>
</svg>
