<!-- Generated by IcoMoon.io -->
<svg version="1.1" xmlns="http://www.w3.org/2000/svg" width="1200" height="1200" viewBox="0 0 1200 1200">
<title>dragon</title>
<path d="M660.037 353.455l-97.305-24.374c-12.186-3-21.186-13.311-22.499-25.874s5.25-24.561 16.311-30.185l76.495-38.248-80.994-60.745c-10.311-7.688-14.624-21.186-10.499-33.56s15.561-20.436 28.498-20.436h299.98c56.621 0 110.055 26.623 143.991 71.995l107.993 143.991c11.624 15.561 17.999 34.498 17.999 53.996 0 49.684-40.31 89.994-89.994 89.994h-40.31c-31.873 0-62.433-12.561-84.932-35.060l-24.749-24.936h-59.996v40.31c0 46.496 23.999 89.807 63.37 114.554l199.861 124.867c60.184 37.685 96.743 103.493 96.743 174.551 0 113.617-92.057 205.673-205.861 205.673h-933.499c-6.188 0-12.374-0.75-17.999-2.625-17.249-5.25-31.31-17.999-38.060-34.685-2.625-6.375-4.125-12.936-4.5-20.061-0.375-6.937 0.563-13.686 2.438-20.061 5.25-17.249 17.999-31.31 34.873-38.248 5.625-2.25 11.624-3.75 17.811-4.125l757.261-67.683c15.561-1.313 27.56-14.436 27.56-30.185 0-8.062-3.188-15.749-8.811-21.374l-83.244-83.244c-56.246-56.246-87.932-132.553-87.932-212.048v-192.175zM960.016 255.587c0-0.188 0-0.375 0-0.563s0-0.375 0-0.563v1.125zM957.58 269.461l-86.994-21.749c-0.375 2.438-0.563 4.875-0.563 7.313 0 24.936 20.061 44.996 44.996 44.996 19.874 0 36.56-12.749 42.56-30.56zM245.503 338.456c30.56-27.185 75.745-30.373 109.68-7.688l244.859 163.114v51.746c0 61.495 15.749 121.492 44.996 174.363h-434.971c-12.561 0-23.811-7.875-28.123-19.499s-0.938-24.936 8.625-33.185l130.116-111.743-286.105 44.059c-13.124 2.063-26.060-4.875-31.685-16.874s-2.813-26.435 7.125-35.248l235.484-209.048z"></path>
</svg>
