<!-- Generated by IcoMoon.io -->
<svg version="1.1" xmlns="http://www.w3.org/2000/svg" width="1200" height="1200" viewBox="0 0 1200 1200">
<title>motorbike</title>
<path d="M525 180.094c-24.937 0-45 20.063-45 45s20.063 45 45 45h108.187l30.75 56.813-183.938 153.188-84.938-84.938c-22.5-22.5-53.063-35.063-84.938-35.063h-190.125c-33.188 0-60 26.813-60 60v60h180c165.75 0 300 134.25 300 300 0 20.625-2.063 40.688-6 60h132c-3.938-19.313-6-39.375-6-60 0-97.875 46.875-184.875 119.438-239.625l28.875 53.625c-53.813 44.063-88.313 111-88.313 186 0 132.563 107.438 240 240 240s240-107.438 240-240-107.438-240-240-240c-25.313 0-49.688 3.938-72.562 11.25l-103.313-191.25h115.875c33.188 0 60-26.813 60-60v-60c0-33.187-26.813-60-60-60h-38.25c-14.063 0-27.563 4.875-38.438 13.875l-88.875 74.063-26.25-48.75c-13.125-24.188-38.437-39.375-66-39.375h-117.188zM867.563 703.594l52.875 97.875c11.813 21.938 39.188 30 60.938 18.187s30-39.187 18.187-60.938l-52.875-97.875c4.313-0.563 8.813-0.75 13.313-0.75 66.188 0 120 53.812 120 120s-53.813 120-120 120-120-53.812-120-120c0-29.062 10.312-55.687 27.563-76.5zM351.188 825.094c-17.813 44.063-60.938 75-111.188 75-66.187 0-120-53.812-120-120s53.813-120 120-120c50.438 0 93.563 30.938 111.188 75h124.5c-21-111-118.5-195-235.688-195-132.563 0-240 107.438-240 240s107.438 240 240 240c117.188 0 214.688-84 235.875-195h-124.688zM240 840.094c33.188 0 60-26.813 60-60s-26.813-60-60-60-60 26.813-60 60 26.813 60 60 60z"></path>
</svg>
