<!-- Generated by IcoMoon.io -->
<svg version="1.1" xmlns="http://www.w3.org/2000/svg" width="1200" height="1200" viewBox="0 0 1200 1200">
<title>ring</title>
<path d="M150 487.5c0 18.281 10.313 43.828 40.078 71.016 106.406-56.719 252.656-89.766 409.922-89.766s303.516 33.047 409.922 89.766c29.766-27.188 40.078-52.734 40.078-71.016 0-28.828-25.313-75-112.266-118.594-82.5-41.25-201.797-68.906-337.734-68.906s-255.234 27.656-337.734 68.906c-86.953 43.594-112.266 89.766-112.266 118.594zM600 581.25c-110.156 0-209.297 17.813-288.047 46.172 77.813 29.297 177.422 47.578 288.047 47.578s210.234-18.281 288.047-47.578c-78.75-28.359-177.891-46.172-288.047-46.172zM0 487.5c0-116.25 92.344-201.094 195.234-252.656 107.344-53.672 250.781-84.844 404.766-84.844s297.422 31.172 404.766 84.844c102.891 51.563 195.234 136.406 195.234 252.656v225c0 116.25-92.344 201.094-195.234 252.656-107.344 53.672-250.781 84.844-404.766 84.844s-297.422-31.172-404.766-84.844c-102.891-51.563-195.234-136.406-195.234-252.656v-225z"></path>
</svg>
