<!-- Generated by IcoMoon.io -->
<svg version="1.1" xmlns="http://www.w3.org/2000/svg" width="1200" height="1200" viewBox="0 0 1200 1200">
<title>scroll</title>
<path d="M0 233.333v100c0 36.875 29.791 66.667 66.667 66.667h133.334v-166.666c0-55.208-44.791-100-100-100s-100 44.791-100 100zM233.333 133.334c20.834 27.916 33.333 62.5 33.333 100v633.333c0 73.542 59.791 133.334 133.334 133.334s133.334-59.791 133.334-133.334v-11.041c0-67.5 54.792-122.292 122.292-122.292h344.375v-400c0-110.416-89.583-200-200-200h-566.667zM966.667 1066.666c128.958 0 233.333-104.375 233.333-233.333 0-18.333-15-33.333-33.333-33.333h-511.042c-30.625 0-55.625 24.792-55.625 55.625v11.041c0 110.416-89.583 200-200 200h566.667z"></path>
</svg>
