<!-- Generated by IcoMoon.io -->
<svg version="1.1" xmlns="http://www.w3.org/2000/svg" width="1200" height="1200" viewBox="0 0 1200 1200">
<title>search</title>
<path d="M447.185 756.032q128.686 0 218.767-90.081t90.081-218.767-90.081-218.767-218.767-90.081-218.767 90.081-90.081 218.767 90.081 218.767 218.767 90.081zM858.981 756.032l341.019 341.019-102.949 102.949-341.019-341.019v-54.691l-19.303-19.303q-122.252 106.166-289.545 106.166-186.595 0-316.89-128.686t-130.295-315.281 130.295-316.89 316.89-130.295 315.281 130.295 128.686 316.89q0 67.56-32.171 152.815t-73.995 136.73l19.303 19.303h54.691z"></path>
</svg>
