<!-- Generated by IcoMoon.io -->
<svg version="1.1" xmlns="http://www.w3.org/2000/svg" width="1200" height="1200" viewBox="0 0 1200 1200">
<title>tower-outline</title>
<path d="M1020 1080h-842.25c-30.875 0-57.75 26.75-57.75 57.75s26.875 62.25 57.75 62.25h842.25c33.25 0 60-26.75 60-60s-26.75-60-60-60zM982.75 0h-770c-50.25 0-92.75 42.5-92.75 95v348.5c0 23.5 10 45.25 27.5 60.5l92.5 80.5c0 22.213 0.127 44.1 0.127 66.15 0 98.3-2.502 199.9-29.825 349.5h122.5c24.574-144.4 27.473-246.9 27.473-366.4 0-37-0.275-76-0.275-118.25l-120-104.25v-291.25h160v120h120v-120h160v120h120v-120h160v291.25l-120 104.25c0 41.925-0.281 80.625-0.281 117.75 0 119.475 2.91 222.875 27.475 366.75h122.5c-27.3-149.575-29.825-251.5-29.825-349.75-0.118-22 0.131-43.75 0.131-65.75l92.5-80.325c17.5-15.425 27.5-37.175 27.5-60.675v-348.5c0-52.5-42.5-95-97.25-95zM600 480c-44 0-80 36-80 80v160h160v-160c0-44-36-80-80-80z"></path>
</svg>
