<!-- Generated by IcoMoon.io -->
<svg version="1.1" xmlns="http://www.w3.org/2000/svg" width="1200" height="1200" viewBox="0 0 1200 1200">
<title>view-vert-3x-rounded</title>
<path d="M693.333 158.518q26.667 0 45.926 17.777t19.26 44.446v758.518q0 26.667-19.26 44.446t-45.926 17.777h-189.629q-26.667 0-44.446-17.777t-17.777-44.446v-758.518q0-26.667 17.777-44.446t44.446-17.777h189.629zM1137.778 158.518q26.667 0 44.446 17.777t17.777 44.446v758.518q0 26.667-17.777 44.446t-44.446 17.777h-189.629q-26.667 0-45.926-17.777t-19.26-44.446v-758.518q0-26.667 19.26-44.446t45.926-17.777h189.629zM251.851 158.518q26.667 0 44.446 17.777t17.777 44.446v758.518q0 26.667-17.777 44.446t-44.446 17.777h-189.629q-26.667 0-44.446-17.777t-17.777-44.446v-758.518q0-26.667 17.777-44.446t44.446-17.777h189.629z"></path>
</svg>
