<!-- Generated by IcoMoon.io -->
<svg version="1.1" xmlns="http://www.w3.org/2000/svg" width="1200" height="1200" viewBox="0 0 1200 1200">
<title>view-horiz-2x-rounded</title>
<path d="M1137.777 31.111q26.667 0 44.445 17.777t17.777 44.445v379.26q0 26.667-17.777 45.926t-44.445 19.26h-1075.555q-26.667 0-44.445-19.26t-17.777-45.926v-379.26q0-26.667 17.777-44.445t44.445-17.777h1075.555zM1137.777 662.222q26.667 0 44.445 19.26t17.777 45.926v379.26q0 26.667-17.777 44.445t-44.445 17.777h-1075.555q-26.667 0-44.445-17.777t-17.777-44.445v-379.26q0-26.667 17.777-45.926t44.445-19.26h1075.555z"></path>
</svg>
