<?xml version="1.0" encoding="UTF-8"?><svg id="_イヤー_2" xmlns="http://www.w3.org/2000/svg" width="269.88" height="272.95" viewBox="0 0 269.88 272.95"><g id="copy_01"><g><path d="M32.73,116.2c-1.4-8.4-3.5-14-7.2-19.8s-4.7-19-.4-25.4,8-5.1,11.3-1.8c4.8,5,3.1,18.8,1.6,25.8-1.6,7.1-5.3,21.2-5.3,21.2" style="fill:#eddf76;"/><path d="M53.03,59.7c3.2-3.5,6.5-13,6.2-19.8-.3-1.7,1.8-2.6,3.1-.6s2.1,3.9,.7,8.6c-.9,3.1-6.9,11.3-9.8,12.2-.3,.1-.4-.2-.2-.4" style="fill:#e4d85b;"/><path d="M76.93,41c-.4,.5-1.2,.1-1-.5,2.1-5.3,12.4-21.7,20.8-28.5C107.83,3.1,118.43,0,126.93,0s13.3,.7,16.8,5.9c.4,.6,.8,1.5,.8,1.9-1.2,.1-2.8-.1-3.4-.2,.7,.2,2.8,1.9,2.8,2.1-.1,.1-3.7,.8-4.6,.5,.9,.5,3,1.6,2.9,1.7s-4.9,.8-4.9,.8l5.7,.8c-1.1,1-2.7,3.6-6.8,4.1-10.8,1.5-20-.5-32.1,3.6-13.3,4.4-27.2,19.8-27.2,19.8" style="fill:#ead13b;"/><path d="M170.13,7.4c6.4-3.6,14.7-7,24-1.4,6.2,3.7,6.5,6.8,4,9.3-2.4,2.3-6.7,0-10.6-2.8-6.4-4.5-14.2-5.3-17.4-5.1" style="fill:#e4d85b;"/><path d="M251.03,213.7c.3-.6,1.2-.2,1,.4-1.4,5.3-15.7,24.1-21.8,29.7-8.8,8.1-19.2,11.8-27.4,12.7-8,.9-15.4-1.3-18.1-3.5-.6-.5-1.5-1.8-1.5-2.1,1.1-.2,3.3-.1,3.9-.1-.7-.1-3.4-1.3-3.3-1.4,.1-.1,3.5-1,4.4-.8-.9-.4-2.9-1.6-2.8-1.7,.1-.1,4.4-.5,4.4-.5l-3.2-.9c1.6-1.2,5.8-2.7,8.7-2.8,12.8-.2,19.7,.3,29.8-4.3,6-2.7,15.4-11.4,18.4-14.8,3.1-3.2,7.5-9.9,7.5-9.9" style="fill:#ead13b;"/><path d="M217.53,234.5c5.6-.5,19.5-7.8,23.3-12.9s6.4-13,2.2-14.4c-5-1.7-9.5,8.9-11.9,14.4-3.7,8.7-10,11.1-13.6,12.9" style="fill:#e2d46c;"/><path d="M206.23,256.4s-14,6.5-22.1,7.4c-9.1,1-15.2-1.8-18.5-2.6-7.7-1.9-17.8,1-24,7.8-7,7.7,25.9,2.3,38.4-.7,8.5-2,26.2-11.9,26.2-11.9" style="fill:#e1c033;"/><path d="M67.63,50.1c4.3-3.6,8.5-12.3,9.4-19.5,.6-4.7-1.1-8.8-2.2-9.4-4.2-2.3-6.4,5.2-5.9,8.1,.6,5.8,2.9,13.6-1.3,20.8" style="fill:#eddf76;"/><path d="M182.33,251.6c-8.5,2-18.5,2-23.4,2.5-8.2,1-8.3,1.8-11,3.1,0-1.3,2.9-6.1,10.7-6.4,8.9-.2,16.2,2.3,23.7,.8" style="fill:#eddf76;"/><path d="M127.43,27.1c4.1,1.1,11.9,2.7,20.3,1.9,13-1.3,30.4-8.6,29.1-13.8h0l-2.3,1.5,1.6-2.2-2.2,1.7,1-2.3-2.1,1.8,.6-2.1c-3.7-.5-9.5,0-12.5,.8-4,1-9.1,6.3-16.2,8.5-5.3,1.7-13,2.6-17.3,3-.6,.1-.7,1,0,1.2" style="fill:#eddf76;"/><path d="M269.53,169c.4,3.5,.8,10.2-.9,17.1-2.7,10.6-11,24.1-15.2,22.5h0l1.6-1.7-2,1,1.7-1.6-2.1,.6,1.8-1.5-1.9,.3c0-3.1,1.1-7.9,2.2-10.3,1.4-3.2,6.4-6.8,9.2-12.3,2.1-4.2,3.8-10.5,4.7-14,.1-.7,.8-.7,.9-.1" style="fill:#eddf76;"/><path d="M17.03,108.3l6.3-2.2-4.3,5.1,5-4.3-2.5,6.6,3.5-5.6c.9,1.3,1,3.6,.9,5-.7,8.8-4.8,23-4.3,34.3,.8,19.9,5.8,30.3,22.4,52.7,.5,.7-.4,1.5-1.1,1-18.6-16.5-33.4-32.7-40.3-54.5-6.7-21-.3-36,15.7-41,1.6-.5,3-.5,4-.4l-5.3,3.3Z" style="fill:#ead13b;"/><path d="M79.23,204.5l-6.8-1.7,6.2,3.1-6.4-.6,6.1,2.7-6.2-.6,5.8,2.4c-1.6,1.6-8.4,2.1-12.2,1-20.4-5.8-26.5-22.5-31.6-34.2-3-7.7-3.4-9.7-7.8-24.7-.5-1.6,1.8-2.9,2.8-1,7,13,10.2,19.2,16,24.3,10.4,9.1,23.6,12.9,30.1,19.8,3.1,3.4,4,9.5,4,9.5" style="fill:#eddf76;"/><path d="M37.13,200.7c-14.8-14-23.8-19.6-29-19.9l1.6,2.4s-3.6-2.2-3.7-2.2l2.7,3.4s-4-2.8-4.1-2.7l3.1,4.8-4.2-3.7,2.6,5.5-3-3.7c.1,7.7,15.6,31.4,29.6,36.4,18,5.3,34,4.1,52.1-1.9-18.7,1.2-30.4-2.7-47.7-18.4" style="fill:#e1c033;"/><path d="M17.73,88.8c1.4-4.1,5-8.6,11.3-16.5,2.4-3,5.9-8.3,4.7-11.3l-1.5,3.6,.5-4c-.1,0-1.5,4-1.5,4l.5-4.1c-.1,0-1.8,3.9-1.8,3.9l.5-3.7c-.3,0-1.8,3.4-1.8,3.4l1.1-3.4c-2.5,.4-10.2,6.5-12.8,10.9-4.4,7.6-3.9,16.1-4.4,22.1-.2,2.8-1.3,8.8-2.4,11.6,1.7-2.3,5.9-11.5,7.6-16.5" style="fill:#e1c033;"/><path d="M43.03,29.2l1.8,4.6-.6-5.1,2.4,4.1-.8-4.8,2.3,3.9-.7-4.1c1.7,.2,4.8,2.6,5.9,5.3,5.3,12.4-2.6,29.5-7.7,36.2-4.3,5.5-7.6,8.9-16.2,15.3-.5,.4-1.1-.2-.7-.7,7.7-9.1,9.2-14.6,10.3-20.1,1.7-8.5-2.3-21.2-.5-28.4,.8-3.6,4.5-6.2,4.5-6.2" style="fill:#e1c033;"/><path d="M122.03,254.2c-6.8-.8-10.8-.6-16.3,.4-9.8,1.8-14,1.8-21.1-.3-13.8-4.1-18.5-10.8-20.6-24.3l1.9,1.7-.1-2.2,2.3,1.6-.7-1.9c-.3-.6,7,.9,9.5,2.3,6.2,3.5,5.6,10.4,14.7,15.4,5.3,2.9,9.8,3.6,14,4.1,5.1,.4,12.2,1,16.4,3.2" style="fill:#ead13b;"/><path d="M120.03,239.2c3,.6,8.1,3.5,13.5,3.3,6.1-.2,12.4-3.7,18,0l-3.5,1.2,3.7-.6-3.5,1.8s3.8-.6,3.8-.5l-3.9,1.8,3.7-.8c-1.9,3.7-7.6,7.4-12.8,7.6-7.6,.2-12-4.2-19.3-9.7-2.8-2.1-4.6-3.8-7.4-4.5,2.8,.1,3.8-.3,7.7,.4" style="fill:#eddf76;"/><path d="M91.33,229.3c3.7-.7,9.1-3.7,15.1-7.5,6.4-4,11.5-7.2,17.8-7.9l-3.1,3.8,3.9-3.3-2.9,3.9s3.8-2.8,3.9-2.8l-2.6,4.1,3-2.9c.1,5.1-7.4,12.8-13,15.9-7,3.9-14.2,3.8-22.4,2.1-4.5-.9-11.4-4.3-15.1-6.8,5.2,2,10,2.3,15.4,1.4" style="fill:#eddf76;"/><path d="M75.53,48.3c-5.4,7.5-1.4,13.8,.5,14.9,2.1,1.3,5.5-3.7,7.3-7.3,3.1-6.4,6.7-18,20.7-27.2,.7-.5,3.8-2.1,3.5-2.6-.7-1.3-12.3,4.3-15.8,6.5-5.3,3.4-14.5,12.5-16.2,15.7" style="fill:#eddf76;"/></g></g></svg>