<svg height="1600pt" preserveAspectRatio="xMidYMid meet" viewBox="0 0 1600 1600" width="1600pt" xmlns="http://www.w3.org/2000/svg"><g transform="matrix(.1 0 0 -.1 0 1600)"><path d="m7943 14930c-102-21-143-63-250-256-72-131-390-768-713-1429-233-477-490-986-525-1038-91-136-202-174-375-126-41 11-459 151-930 311-1652 562-1806 609-1908 587-116-25-196-105-221-220-22-104-6-157 704-2257 219-647 232-694 206-787-15-56-64-117-131-165-52-36-528-277-1045-530-1157-566-1548-766-1612-829-51-50-76-112-76-191 0-109 57-201 158-252 22-12 54-31 70-43 63-48 405-229 910-483 334-168 380-209 378-337-1-56-8-75-121-295-66-129-139-280-162-334-194-458-277-959-240-1445 58-761 370-1440 910-1981 500-500 1113-801 1826-897 159-21 571-24 714-5 435 57 758 157 1114 344 265 139 276 143 347 143 55 0 72-4 105-27 77-54 160-193 427-718 193-380 275-514 344-559 84-56 195-61 285-15 74 38 175 155 253 294 36 65 307 607 842 1690 153 311 298 598 322 638 77 131 147 181 256 182 111 0 221-35 2152-688 292-99 564-185 604-192 91-16 203-8 262 18 56 25 114 83 141 141 31 67 29 235-3 345-12 43-176 529-363 1080-452 1334-498 1481-498 1591 1 109 50 179 182 256 40 24 327 169 638 322 1083 535 1625 806 1690 842 139 78 256 179 294 253 46 90 41 201-15 285-42 64-179 152-429 277-452 226-724 376-792 438-77 70-97 153-59 249 10 26 53 105 94 174 367 616 510 1268 431 1973-66 598-323 1189-720 1656-700 825-1773 1229-2837 1069-421-63-774-191-1188-430-179-104-222-122-289-123-73-1-123 24-172 88-22 28-133 236-247 461-210 415-344 665-386 720-12 17-31 48-43 70-59 116-185 179-309 155zm173-1128c61-125 193-394 294-598l182-370-64-90c-336-467-526-972-579-1537-18-201-7-565 25-757 95-588 336-1103 724-1551 480-555 1143-918 1877-1029 183-28 520-37 716-21 419 36 803 150 1189 352 121 64 324 194 424 273 33 25 65 46 72 46 6 0 146-67 310-148 165-82 399-197 522-257 122-60 222-111 222-115s-91-51-202-105c-112-54-484-238-828-408s-688-340-765-377c-411-198-774-385-804-413-50-48-81-120-81-193 0-66-31 28 633-1929 157-462 285-841 284-842s-261 86-577 194c-2167 736-2129 723-2194 723-73 0-145-30-193-81-31-32-157-284-875-1739-126-256-272-554-325-663-53-108-99-197-102-197s-122 234-263 521l-257 521 55 64c260 307 474 713 589 1116 81 283 116 540 116 848 1 511-94 917-321 1375-184 371-411 668-728 951-414 370-950 627-1522 730-14 3-32 6-40 8-8 1-55 6-105 11-98 8-114 13-94 26 11 7 10 9-3 9-10 0-18-4-18-10 0-5-25-10-56-10-30 0-53 4-50 8 2 4-36 6-85 4-60-3-95 0-104 8-11 9-18 8-31-4-13-13-35-17-98-17-44 0-126-4-181-10-72-8-104-8-117 0-24 15-31 14-25-3 4-11-7-17-41-25-104-21-122-23-122-12 0 6-4 11-10 11-5 0-10-6-10-14 0-16-102-42-120-31-5 3-10 2-10-3 0-19-33-23-49-7-15 15-14 17 1 29 15 11 15 13-3 24-15 10-23 9-39 0-24-15-24-18-5-44 20-27 19-30-14-44-25-10-35-9-60 3-17 9-31 11-31 6s5-9 11-9 9-5 7-11c-5-15-85-48-117-48-14-1-32-7-40-15-27-23-110-55-117-45-3 5-10 7-15 3-5-3-7-10-4-15 6-9-7-13-39-9-10 1-15-3-12-9 10-15-108-73-122-59-12 12-35 1-26-14 10-16-16-27-55-21-33 5-34 4-17-9 17-14 17-15-8-32-15-9-35-16-44-14-20 3-66-21-58-29s-23-43-37-43c-6 0-19 8-30 18-19 17-20 16-8-6 11-20 9-26-15-45-55-44-109-77-112-68-2 6-12 1-22-9-12-12-26-17-36-13-14 5-15 3-5-15s8-23-11-33c-13-6-30-20-38-30-15-19-17-19-65 5-28 14-44 25-37 25 22 1 13 19-13 23-14 3-25 1-25-3 0-5-20 1-45 13-48 23-58 38-25 38 11 0 20 7 20 15 0 18-14 19-41 4-11-5-17-14-14-20 4-5-10-2-29 8-22 10-36 24-36 35 0 10-11 28-25 40-19 16-22 25-15 39 13 24 13 29-5 29-8 0-15-4-15-10 0-5-9-10-20-10-14 0-18-5-13-16 3-9 0-20-7-24-20-12-55 5-55 26 0 10-11 24-24 30-23 12-23 12-2 19 12 3 21 11 21 16 0 6 9 7 20 4 21-7 29 10 8 18-9 3-10 8-3 15 7 6 20 4 39-8l29-19-37-15c-24-10-35-20-30-27 5-9 11-7 20 6 11 15 16 16 29 5s19-10 36 9c24 25 40 20 32-10-4-16-2-20 8-17 8 3 14 11 14 19 0 17 29 40 47 37 9-2 12 6 10 25-2 16 2 35 9 43 10 12 9 13-5 8-9-3-21-15-27-25-5-11-18-19-29-19-13 0-18-5-14-15s0-15-11-15c-12 0-15 6-11 20 3 11 9 29 12 41 4 15 0 22-17 26-22 6-22 7-3 14 32 13 44 10 44-11 0-23 18-27 26-5 3 8-6 29-20 46s-26 36-26 44c0 7-7 18-15 25-20 17-11 27 22 26 24-1 28-5 25-27-2-28 31-68 42-50 4 6 13 8 21 4 10-3 15 1 15 14 0 21-23 46-52 56-10 4-18 13-18 22 0 8-9 15-20 15-12 0-20 7-20 18 0 9-9 27-18 40-16 20-24 23-55 17-37-7-46-18-27-30 6-3 17-20 25-36 15-29 15-30-12-40-26-10-43-25-43-41 0-14 23-8 35 9 7 10 19 14 29 10 28-11 2-50-27-41-20 6-20 5-8-10 13-15 13-19 0-27-9-5-9-9-2-9 6 0 15-9 18-20 7-22-14-50-38-50-8 0-17-13-20-29-6-30-27-44-53-34-13 5-10 11 12 34s25 32 15 42c-10 9-16 8-29-9-9-12-27-25-39-29-18-5-23-14-23-37 0-30 0-31-20-13-24 22-26 35-5 35 25 0 17 25-14 43-22 13-27 22-23 42 2 14 0 25-6 25-16 0-21-50-5-58 19-11 24-48 9-61-18-15-39 10-40 49-1 16-5 25-10 20-13-13-36-1-29 16 3 8 10 14 16 14 5 0 25 11 42 24 23 18 35 22 43 14 6-6 15-7 21-4 19 12 12 32-14 44-33 15-32 16-38-8-5-19-27-29-27-12 0 4-25 8-55 9s-55-2-55-8c0-5 4-9 9-9s7-9 4-20c-7-26 12-26 34 0 21 24 43 26 43 5 0-8-3-15-7-15-5 0-23-14-41-31-23-22-38-28-53-24-17 6-20 12-15 37 4 21 2 28-7 25-6-2-12-13-11-25 0-21 0-21-37-2-20 11-39 26-43 35-3 9-11 13-17 9-11-7-269 114-269 126 0 10 249 130 270 130 10 0 23 6 27 14 13 22 190 106 210 100 12-4 14-3 6 3-9 6 8 19 53 41 36 18 69 30 74 27s12-1 15 5c10 16 185 101 185 90 0-17 18-11 24 8s65 52 91 52c21 0 28-19 15-35-10-12-9-15 5-15 11 0 15-5 11-16-3-8-2-13 3-10 4 3 6 28 3 57-4 46-3 51 14 47 10-2 21-14 25-28 7-26 10-19 13 32 2 28 12 29 26 3 11-21 11-27-4-44-10-10-16-25-15-33 1-7-1-21-6-31-11-25 2-33 22-14 18 16 22 17 47 17 7 0 16 9 19 20 5 21 23 25 45 11 15-9 18-37 8-68-6-18-4-22 8-17 9 3 16 12 16 20s7 14 15 14 15-2 15-4 3-11 6-20c4-12 0-16-15-16-12 0-21-4-21-10 0-16 37-12 55 6 9 9 13 24 10 35-4 11-2 19 4 19s11 5 11 12c0 9-3 9-12 0-23-23-40-14-33 18 4 19 3 30-4 30s-9 11-6 28c3 15 2 20-2 12-3-8-13-21-21-29-12-12-15-12-22 0-6 8-4 19 4 29 7 8 16 23 19 33 8 21 37 23 37 2 0-8 6-15 14-15s17-6 19-12c3-7 6-3 6 9 1 13 12 30 26 39 23 15 25 15 50-12 14-15 25-21 25-14 0 8 9 11 26 7 18-3 24-1 20 9-3 7-1 16 4 19 17 11 11 34-17 60-36 33-46 32-38-5 7-32 7-32-78-15-10 2-21-3-24-11-8-20-20-17-26 7l-6 20-20-20c-12-12-21-25-21-31 0-5-4-10-10-10-5 0-10 10-10 23 0 17 16 30 75 59 44 23 76 34 80 28 10-16 23-12 30 9 3 11 22 27 43 36 20 10 116 57 212 104 96 48 183 86 193 83 10-2 17 2 17 10 0 16 265 148 298 148 12 0 22 4 22 10 0 5 13 16 29 25 23 11 31 12 34 2 3-7 6-4 6 6 1 16 48 42 67 37 4-1 10 3 13 8 8 13 72 45 78 39 2-3-3-17-12-31-16-24-16-26 0-26 9 0 19 9 22 20s10 20 15 20c6 0 6 6-1 14-10 12 2 22 69 56 154 81 219 197 188 337-6 27-4 32 12 35 14 2 17 7 11 17-7 11-13 12-23 3-12-9-18-2-31 42-20 63-20 63-4 69 6 2 4 3-5 2-10-2-18-2-18 0 0 1-79 236-176 521-278 822-603 1779-644 1901l-38 111 81-28c85-30 1820-618 2337-792 234-78 307-99 352-99 76-1 152 34 202 92 35 41 306 583 1076 2151 118 241 217 437 220 438 3 0 55-103 116-228zm3274-357c922-137 1697-764 2025-1639 69-187 154-580 130-604-4-4-292-9-640-10l-634-4-11 44c-56 221-175 430-338 592-192 191-432 314-696 358-117 20-334 14-456-11-461-97-839-447-962-889l-23-82h-380c-209 0-498 3-641 7l-262 6 5 41c10 85 55 295 89 414 83 288 228 567 432 832 83 108 311 335 422 421 412 320 863 496 1390 543 93 8 449-4 550-19zm-206-1810c38-8 112-36 165-61 81-40 109-60 187-138 76-76 98-106 138-186 54-111 76-201 76-323 0-119-22-213-78-327-38-80-60-109-131-180-141-140-283-206-471-217-210-13-405 62-555 212-399 398-213 1071 336 1215 91 23 236 26 333 5zm-1672-982 277-6 12-51c46-195 168-405 330-566 185-186 421-310 676-354 112-20 325-20 435-1 467 81 848 414 993 865 15 47 29 91 31 98 3 9 141 12 648 12h644l-5-42c-12-108-69-355-108-473-355-1076-1382-1794-2505-1751-396 15-736 104-1085 285-242 125-424 259-625 461-259 259-446 542-575 872-74 190-155 519-155 629v29h368c202 0 492-3 644-7zm-6382-2093c0-12-40-33-48-25-4 4 2 13 12 21 23 16 36 18 36 4zm24-45c-4-8-7-15-9-15s-5 7-9 15c-3 9 0 15 9 15s12-6 9-15zm-34-25c0-4-7-10-15-14-11-4-15 2-15 21 0 21 2 24 15 13 8-7 15-16 15-20zm-17-44c4-9-2-17-14-21-25-8-34-1-26 20 8 19 33 20 40 1zm-283-417c0-11-4-17-10-14-5 3-10 13-10 21s5 14 10 14c6 0 10-9 10-21zm18-178c3-8-1-12-9-9-7 2-15 10-17 17-3 8 1 12 9 9 7-2 15-10 17-17zm-363-91c3-5 2-10-4-10-5 0-13 5-16 10-3 6-2 10 4 10 5 0 13-4 16-10zm345-160c0-18-3-19-20-10-22 12-18 30 6 30 8 0 14-9 14-20zm2540-20c223-20 473-74 666-145 254-94 557-270 769-448 479-402 814-1017 880-1615l7-62-642 2-642 3-25 85c-131 454-529 811-998 895-115 21-323 21-437 1-175-32-346-101-499-201-150-99-338-313-421-480-29-59-83-201-98-264l-12-44-171 6c-95 4-383 7-641 7h-469l7 61c10 105 55 304 97 436 70 218 165 419 287 608 192 298 505 604 807 788 463 281 1011 413 1535 367zm-10-1840c526-148 703-811 320-1200-197-200-481-270-743-182-119 40-188 83-282 177-134 134-201 279-212 465-22 363 223 680 586 756 87 18 234 11 331-16zm-1708-970c206 0 269-3 272-12 20-74 74-225 98-273 110-221 311-432 523-551 273-152 619-198 920-123 297 74 554 248 731 494 69 98 154 269 185 376l23 79h245c135 0 426 3 645 7l399 6-7-64c-32-312-178-716-366-1016-264-420-668-772-1116-972-844-378-1832-266-2569 289-554 418-903 1022-1000 1729l-6 44 377-6c208-4 498-7 646-7z"/><path d="m5360 10155c0-8 9-15 20-15s20 7 20 15-9 15-20 15-20-7-20-15z"/><path d="m4926 10108c-16-22-22-48-9-35 3 4 12-1 19-11 8-10 13-12 14-4 0 21 20 13 20-8 0-11 4-20 9-20 12 0 8 51-7 78-16 28-27 28-46 0z"/><path d="m5423 10123c-7-3-13-18-13-35 0-23 4-29 15-24 8 3 15 1 15-4 0-6 5-10 11-10 8 0 8 4 1 13-6 6-12 24-14 38-2 15-8 24-15 22z"/><path d="m5090 10094c0-8 5-12 10-9 6 4 8 11 5 16-9 14-15 11-15-7z"/><path d="m5028 10051c-4-25 0-30 20-34 29-5 82 10 82 24 0 5-7 9-15 9s-15-4-15-10c0-20-31-9-42 15-15 33-25 32-30-4z"/><path d="m5190 10056c0-9-4-16-10-16-5 0-10-4-10-10 0-17 19-11 30 9 7 13 7 22 0 26-5 3-10-1-10-9z"/><path d="m5476 10061c-4-7-5-15-2-18 9-9 19 4 14 18-4 11-6 11-12 0z"/><path d="m4866 10045c-3-8-14-15-24-15-11 0-25-7-32-15-7-9-19-14-27-11-7 3-13-1-13-9 0-10-10-15-30-15-19 0-30-5-29-12 3-26-1-38-12-35-6 1-14-4-17-12-3-10 0-12 12-8 10 4 26 7 37 7 13 0 19 7 19 24 0 32 25 40 42 14 9-13 19-18 26-14 17 10 15 26-3 26-8 0-15 7-15 15 0 17 25 20 35 5 4-6 11-7 18-3s4 9-8 13c-17 6-14 10 18 25 37 17 49 35 23 35-8 0-16-7-20-15z"/><path d="m5282 10044c2-10 9-19 16-18 6 1 26 2 44 3 34 1 30 15-5 17-12 1-30 5-41 9-14 6-17 4-14-11z"/><path d="m5540 10041c0-5 7-12 16-15 14-5 15-4 4 9-14 17-20 19-20 6z"/><path d="m5606 10025c-10-28-7-45 9-45 22 0 30 29 13 47-14 13-16 13-22-2z"/><path d="m5793 10033c-21-7-15-33 7-33 11 0 20 6 20 14 0 18-11 25-27 19z"/><path d="m4745 10020c3-5 8-10 11-10 2 0 4 5 4 10 0 6-5 10-11 10-5 0-7-4-4-10z"/><path d="m6450 10015c0-8 2-15 4-15s6 7 10 15c3 8 1 15-4 15-6 0-10-7-10-15z"/><path d="m5257 10013c-4-3-2-12 4-19 6-8 8-21 5-30-5-14-4-15 9-4 19 15 20 60 2 60-8 0-17-3-20-7z"/><path d="m5316 10013c-3-3-6-20-6-38 0-17-5-36-12-43-8-8-8-12-1-12 19 0 32 25 26 49-3 14-1 26 7 31 7 4 8 10 2 13-5 4-12 4-16 0z"/><path d="m4900 9995c7-8 16-12 21-9 16 9 10 20-12 21-17 2-18-1-9-12z"/><path d="m5430 10000c0-5 5-10 10-10 6 0 10 5 10 10 0 6-4 10-10 10-5 0-10-4-10-10z"/><path d="m6790 10000c0-5 5-10 10-10 6 0 10 5 10 10 0 6-4 10-10 10-5 0-10-4-10-10z"/><path d="m6985 10000c3-5 8-10 11-10 2 0 4 5 4 10 0 6-5 10-11 10-5 0-7-4-4-10z"/><path d="m5020 9992c0-15 11-21 27-15 12 5 12 7 1 14-17 11-28 11-28 1z"/><path d="m5091 9964c0-22 3-32 6-24s10 20 14 26c6 7 3 16-6 24-13 11-15 7-14-26z"/><path d="m6400 9979c0-5 5-7 10-4 6 3 10 8 10 11 0 2-4 4-10 4-5 0-10-5-10-11z"/><path d="m5680 9970c0-5 5-10 11-10 5 0 7 5 4 10-3 6-8 10-11 10-2 0-4-4-4-10z"/><path d="m5926 9971c-4-7-5-15-2-18 9-9 19 4 14 18-4 11-6 11-12 0z"/><path d="m6750 9970c0-5 5-10 10-10 6 0 10 5 10 10 0 6-4 10-10 10-5 0-10-4-10-10z"/><path d="m7236 9965c-3-8-1-15 4-15 13 0 22 18 11 24-5 3-11-1-15-9z"/><path d="m5175 9960c-3-5 1-10 10-10s13 5 10 10c-3 6-8 10-10 10s-7-4-10-10z"/><path d="m4617 9944c-9-9 4-35 14-28 5 3 9 12 9 20 0 14-12 19-23 8z"/><path d="m6050 9944c0-6 73-44 78-40 10 11-19 34-48 38-17 3-30 4-30 2z"/><path d="m5212 9920c0-14 2-19 5-12 2 6 2 18 0 25-3 6-5 1-5-13z"/><path d="m6250 9930c0-5 7-10 16-10 8 0 12 5 9 10-3 6-10 10-16 10-5 0-9-4-9-10z"/><path d="m6680 9930c-13-8-12-10 3-10 9 0 17 5 17 10 0 12-1 12-20 0z"/><path d="m4758 9903c-35-5-36-19-2-27 32-8 26-30-9-34-19-2-27-9-27-23 0-23 9-24 37-4 20 14 23 14 32-2s10-16 11 4c0 12 5 25 12 29 8 5 6 11-7 20-10 7-15 20-12 29 4 8 3 14-1 14-4-1-19-4-34-6z"/><path d="m5610 9899c0-5 5-7 10-4 6 3 10 8 10 11 0 2-4 4-10 4-5 0-10-5-10-11z"/><path d="m5065 9890c-4-6 3-10 14-10 25 0 27 6 6 13-8 4-17 2-20-3z"/><path d="m5310 9886c0-8 7-16 15-20 10-4 15 1 15 14 0 11-7 20-15 20s-15-6-15-14z"/><path d="m5555 9890c-3-5-1-10 4-10 6 0 11 5 11 10 0 6-2 10-4 10-3 0-8-4-11-10z"/><path d="m4678 9873c7-3 16-2 19 1 4 3-2 6-13 5-11 0-14-3-6-6z"/><path d="m5225 9870c3-5 8-10 11-10 2 0 4 5 4 10 0 6-5 10-11 10-5 0-7-4-4-10z"/><path d="m5495 9870c-3-5-1-10 4-10 6 0 11 5 11 10 0 6-2 10-4 10-3 0-8-4-11-10z"/><path d="m5247 9842c-16-17-15-20 10-40 28-23 53-29 53-13 0 5-6 14-14 20-8 7-12 21-9 31 7 26-18 27-40 2z"/><path d="m5710 9830c0-16 4-30 10-30 5 0 7 7 4 15-4 8-1 22 6 30 10 12 9 15-4 15-11 0-16-9-16-30z"/><path d="m6650 9849c0-5 5-7 10-4 6 3 10 8 10 11 0 2-4 4-10 4-5 0-10-5-10-11z"/><path d="m5490 9843c0-7-8-13-17-13-12 0-8-5 11-15 35-18 36-17 19 15-7 14-13 19-13 13z"/><path d="m4953 9814c-7-7-13-19-13-26s7-2 16 10c18 26 16 37-3 16z"/><path d="m5168 9803c7-3 16-2 19 1 4 3-2 6-13 5-11 0-14-3-6-6z"/><path d="m6597 9795c-4-8-1-17 6-21s9-4 5 1c-4 4-3 14 3 22 7 8 8 13 1 13-5 0-12-7-15-15z"/><path d="m4750 9781c0-25 6-27 13-6 4 8 2 17-3 20-6 4-10-3-10-14z"/><path d="m5361 9784c0-11 3-14 6-6 3 7 2 16-1 19-3 4-6-2-5-13z"/><path d="m4798 9773c0-10-1-23-1-30s-8-15-18-18c-23-8-25-25-3-25 23 0 43 29 44 63 0 29-19 38-22 10z"/><path d="m5000 9765c7-8 16-15 21-15s6 7 3 15c-4 8-13 15-21 15-13 0-13-3-3-15z"/><path d="m5117 9768c-3-8 4-13 18-13s21 5 18 13c-3 6-11 12-18 12s-15-6-18-12z"/><path d="m4720 9740c0-19 3-21 12-12s9 15 0 24-12 7-12-12z"/><path d="m4850 9740c0-11 5-20 12-20 6 0 8 3 5 7-4 3-2 12 4 20 9 10 8 13-5 13-9 0-16-8-16-20z"/><path d="m4968 9753c7-3 16-2 19 1 4 3-2 6-13 5-11 0-14-3-6-6z"/><path d="m5250 9745c0-8 7-15 16-15 14 0 14 3 4 15-7 8-14 15-16 15s-4-7-4-15z"/><path d="m5488 9753c7-3 16-2 19 1 4 3-2 6-13 5-11 0-14-3-6-6z"/><path d="m5645 9740c-3-5 1-10 10-10s13 5 10 10c-3 6-8 10-10 10s-7-4-10-10z"/><path d="m5218 9733c7-3 16-2 19 1 4 3-2 6-13 5-11 0-14-3-6-6z"/><path d="m5683 9725c-3-9-3-18-1-21 3-3 8 4 11 16 6 23-1 27-10 5z"/><path d="m6076 9715c-11-8-15-15-9-15 19 0 43 12 43 21 0 13-12 11-34-6z"/><path d="m5225 9691c-3-6-1-11 4-11 6 0 11-7 11-15s5-15 11-15c14 0 7 42-8 47-6 2-14-1-18-6z"/><path d="m5580 9690c0-5 5-10 10-10 6 0 10 5 10 10 0 6-4 10-10 10-5 0-10-4-10-10z"/><path d="m5148 9683c7-3 16-2 19 1 4 3-2 6-13 5-11 0-14-3-6-6z"/><path d="m5420 9669c7-11 14-18 17-15 8 8-5 36-17 36-7 0-7-6 0-21z"/><path d="m6608 9683c7-3 16-2 19 1 4 3-2 6-13 5-11 0-14-3-6-6z"/><path d="m4721 9664c0-11 3-14 6-6 3 7 2 16-1 19-3 4-6-2-5-13z"/><path d="m4680 9660c0-5 5-10 10-10 6 0 10 5 10 10 0 6-4 10-10 10-5 0-10-4-10-10z"/><path d="m4910 9655c-16-20-10-26 18-18 12 3 22 12 22 19 0 19-24 18-40-1z"/><path d="m6577 9663c-4-3-7-11-7-17s5-5 12 2c6 6 9 14 7 17-3 3-9 2-12-2z"/><path d="m6065 9650c3-5 8-10 11-10 2 0 4 5 4 10 0 6-5 10-11 10-5 0-7-4-4-10z"/><path d="m7115 9640c-3-5 1-10 9-10 9 0 16 5 16 10 0 6-4 10-9 10-6 0-13-4-16-10z"/><path d="m5657 9616c3-14 11-27 19-30 20-8 17 18-5 38-17 16-18 16-14-8z"/><path d="m5232 9619c2-7 10-15 17-17 8-3 12 1 9 9-2 7-10 15-17 17-8 3-12-1-9-9z"/><path d="m4936 9612c-2-4-1-14 4-21 10-17 31-5 23 14-6 16-19 20-27 7z"/><path d="m5161 9594c-11-13-11-21-2-42l12-26 25 27c26 29 31 41 12 34-7-2-17 2-23 9-8 10-13 10-24-2z"/><path d="m4861 9571c-9-6-10-11-2-15 13-8 31 1 31 15 0 11-11 11-29 0z"/><path d="m5244 9569c-9-16 18-30 33-17 7 6 10 14 7 19-7 13-31 11-40-2z"/><path d="m6146 9555c-9-14-12-25-6-25s13 7 16 15c4 8 15 15 25 15s19-7 19-15 7-15 15-15c14 0 13 3-1 25-9 14-24 25-34 25s-25-11-34-25z"/><path d="m5307 9564c-4-4-4-10-1-15 6-10 34 0 34 12 0 10-24 12-33 3z"/><path d="m5089 9534c-5-15-7-29-5-32 8-8 33 17 39 38 8 31-22 25-34-6z"/><path d="m6392 9548c3-7 13-15 22-16 12-3 17 1 14 10-3 7-13 15-22 16-12 3-17-1-14-10z"/><path d="m6640 9549c0-5 5-7 10-4 6 3 10 8 10 11 0 2-4 4-10 4-5 0-10-5-10-11z"/><path d="m6007 9532c1-8 3-18 3-23s7-9 15-9 15 7 15 15-6 15-14 15-16 3-19 8c-2 4-2 1 0-6z"/><path d="m7290 9540c0-5 7-10 16-10 8 0 12 5 9 10-3 6-10 10-16 10-5 0-9-4-9-10z"/><path d="m5520 9530c0-5 7-10 15-10s15 5 15 10c0 6-7 10-15 10s-15-4-15-10z"/><path d="m4841 9521c-10-6-11-14-3-26 9-17 10-17 21 3 12 23 2 35-18 23z"/><path d="m5020 9520c0-5 5-10 11-10 5 0 7 5 4 10-3 6-8 10-11 10-2 0-4-4-4-10z"/><path d="m5570 9521c0-5 5-13 10-16 6-3 10-2 10 4 0 5-4 13-10 16-5 3-10 2-10-4z"/><path d="m5675 9510c3-5 10-10 16-10 5 0 9 5 9 10 0 6-7 10-16 10-8 0-12-4-9-10z"/><path d="m4675 9500c-3-5 1-10 9-10 9 0 16 5 16 10 0 6-4 10-9 10-6 0-13-4-16-10z"/><path d="m4893 9496c3-7 0-19-6-25s-8-11-3-11c8 0 36 26 36 33 0 3-7 8-16 11-11 4-15 2-11-8z"/><path d="m4956 9495c4-8 12-15 20-15s11 6 8 15c-4 8-12 15-20 15s-11-6-8-15z"/><path d="m5460 9499c0-5 5-7 10-4 6 3 10 8 10 11 0 2-4 4-10 4-5 0-10-5-10-11z"/><path d="m5120 9484c0-8 5-12 10-9 6 3 10 10 10 16 0 5-4 9-10 9-5 0-10-7-10-16z"/><path d="m5404 9474c-4-14-16-29-27-33-19-7-18-9 11-13 24-3 32-1 32 10 0 8 8 20 17 27 15 11 15 13-5 24-19 10-22 9-28-15z"/><path d="m5310 9480c0-5 6-10 14-10s18 5 21 10c3 6-3 10-14 10-12 0-21-4-21-10z"/><path d="m5596 9475c4-8 8-15 10-15s4 7 4 15-4 15-10 15c-5 0-7-7-4-15z"/><path d="m4988 9453c-7-15-24-30-38-34-24-7-23-7 6-8 25-1 33-6 36-26 3-13 1-26-4-27-12-4 1-38 14-38 5 0 12 9 15 20s12 20 20 20c12 0 12 2-1 15-8 8-19 15-24 15-17 0-22 29-7 44 17 16 20 46 6 46-6 0-16-12-23-27z"/><path d="m6411 9466c-10-12-8-13 8-9 12 3 18 9 15 14-7 12-10 11-23-5z"/><path d="m5950 9453c0-25 33-33 46-11 5 8 2 9-9 5-10-4-20 0-26 11-9 15-10 14-11-5z"/><path d="m5070 9450c0-5 5-10 11-10 5 0 7 5 4 10-3 6-8 10-11 10-2 0-4-4-4-10z"/><path d="m5850 9445c0-8 7-15 16-15 14 0 14 3 4 15-7 8-14 15-16 15s-4-7-4-15z"/><path d="m6058 9433c7-3 16-2 19 1 4 3-2 6-13 5-11 0-14-3-6-6z"/><path d="m5670 9420c-9-6-10-10-3-10 6 0 15 5 18 10 8 12 4 12-15 0z"/><path d="m5610 9400c0-5 5-10 10-10 6 0 10 5 10 10 0 6-4 10-10 10-5 0-10-4-10-10z"/><path d="m5775 9400c3-5 8-10 11-10 2 0 4 5 4 10 0 6-5 10-11 10-5 0-7-4-4-10z"/><path d="m5075 9380c3-5 10-10 16-10 5 0 9 5 9 10 0 6-7 10-16 10-8 0-12-4-9-10z"/><path d="m5178 9383c7-3 16-2 19 1 4 3-2 6-13 5-11 0-14-3-6-6z"/><path d="m5378 9383c7-3 16-2 19 1 4 3-2 6-13 5-11 0-14-3-6-6z"/><path d="m5510 9364c0-22 2-25 15-14 12 10 13 16 4 26-16 20-19 18-19-12z"/><path d="m5970 9375c0-8 2-15 4-15s6 7 10 15c3 8 1 15-4 15-6 0-10-7-10-15z"/><path d="m6397 9350c-3-11-1-20 4-20s9 9 9 20-2 20-4 20-6-9-9-20z"/><path d="m5397 9341c-16-6-17-9-4-19 11-10 17-9 26 2 14 17 3 26-22 17z"/><path d="m4939 9327c-1-4-1-16-1-27 0-33 2-40 11-40 10 0 8 57-3 67-3 3-6 3-7 0z"/><path d="m5265 9320c-3-5 1-10 9-10 9 0 16 5 16 10 0 6-4 10-9 10-6 0-13-4-16-10z"/><path d="m6418 9313c-10-2-18-9-18-14 0-13 13-11 36 6 19 14 14 17-18 8z"/><path d="m5921 9291c-10-6-9-10 3-14 8-3 18-2 21 3 8 13-9 20-24 11z"/><path d="m5120 9282c0-12 19-26 26-19 2 2-2 10-11 17-9 8-15 8-15 2z"/><path d="m5310 9280c0-5 6-10 14-10s18 5 21 10c3 6-3 10-14 10-12 0-21-4-21-10z"/><path d="m5980 9271c0-5 5-13 10-16 6-3 10-2 10 4 0 5-4 13-10 16-5 3-10 2-10-4z"/><path d="m4565 9260c3-5 8-10 11-10 2 0 4 5 4 10 0 6-5 10-11 10-5 0-7-4-4-10z"/><path d="m4830 9254c0-9 5-14 12-12 18 6 21 28 4 28-9 0-16-7-16-16z"/><path d="m4976 9251-19-21h46c26 0 47-4 47-10 0-5 5-10 10-10 6 0 10 7 10 15 0 10-10 15-34 15s-36 5-38 16c-3 14-6 13-22-5z"/><path d="m5190 9250c0-5 5-10 10-10 6 0 10 5 10 10 0 6-4 10-10 10-5 0-10-4-10-10z"/><path d="m5291 9244c0-11 3-14 6-6 3 7 2 16-1 19-3 4-6-2-5-13z"/><path d="m5400 9244c0-8 5-12 10-9 6 3 10 10 10 16 0 5-4 9-10 9-5 0-10-7-10-16z"/><path d="m4890 9232c0-4-20-18-45-30-50-24-54-32-25-50 18-11 20-10 20 12 0 17 7 26 26 30 41 11 71 46 39 46-8 0-15-4-15-8z"/><path d="m4540 9211c0-5 5-13 10-16 6-3 10-2 10 4 0 5-4 13-10 16-5 3-10 2-10-4z"/><path d="m5221 9202c-9-16-6-18 20-14 32 5 38 16 13 26-22 8-22 8-33-12z"/><path d="m4475 9200c3-5 8-10 11-10 2 0 4 5 4 10 0 6-5 10-11 10-5 0-7-4-4-10z"/><path d="m5917 9180c3-11 12-20 20-20 11 0 11 4 3 20-6 11-15 20-19 20-5 0-7-9-4-20z"/><path d="m4558 9172c-35-21-38-46-5-36 12 3 22 7 22 8 0 0 6 11 13 24 15 26 7 28-30 4z"/><path d="m4980 9179c-13-8-13-10 0-19 19-12 27-12 34-1 9 15-18 31-34 20z"/><path d="m5455 9180c3-5 8-10 11-10 2 0 4 5 4 10 0 6-5 10-11 10-5 0-7-4-4-10z"/><path d="m5540 9179c0-5 5-7 10-4 6 3 10 8 10 11 0 2-4 4-10 4-5 0-10-5-10-11z"/><path d="m4491 9164c0-11 3-14 6-6 3 7 2 16-1 19-3 4-6-2-5-13z"/><path d="m5075 9160c-3-5-1-10 4-10 6 0 11 5 11 10 0 6-2 10-4 10-3 0-8-4-11-10z"/><path d="m5270 9160c0-5 7-10 16-10 8 0 12 5 9 10-3 6-10 10-16 10-5 0-9-4-9-10z"/><path d="m6435 9160c-3-5-1-10 4-10 6 0 11 5 11 10 0 6-2 10-4 10-3 0-8-4-11-10z"/><path d="m4690 9150c0-5 5-10 11-10 5 0 7 5 4 10-3 6-8 10-11 10-2 0-4-4-4-10z"/><path d="m5540 9146c0-9 7-16 16-16s14 5 12 12c-6 18-28 21-28 4z"/><path d="m5960 9140c0-5 7-10 15-10s15 5 15 10c0 6-7 10-15 10s-15-4-15-10z"/><path d="m6525 9140c-3-5-1-10 4-10 6 0 11 5 11 10 0 6-2 10-4 10-3 0-8-4-11-10z"/><path d="m4596 9108c-9-35-8-38 14-38 20 0 25 15 14 44-9 23-21 20-28-6z"/><path d="m5020 9126c0-22 24-62 38-62 9 0 32-4 50-8 32-8 33-7 20 13-8 13-19 19-30 15-11-3-18 0-18 7 0 14-30 38-47 39-7 0-13-2-13-4z"/><path d="m5330 9120c-12-8-10-10 8-10 13 0 20 4 17 10-7 12-6 12-25 0z"/><path d="m5380 9106c-5-15-17-29-25-32-13-6-13-9 5-21 12-8 24-12 28-8s1 10-6 12c-16 6 3 33 24 33 18 0 18 14-1 30-12 10-16 8-25-14z"/><path d="m6885 9120c3-5 8-10 11-10 2 0 4 5 4 10 0 6-5 10-11 10-5 0-7-4-4-10z"/><path d="m4380 9115c0-3 9-19 21-34 21-28 21-29 40-10 21 21 16 48-5 30-9-7-19-6-34 5-12 8-22 12-22 9z"/><path d="m5190 9109c0-5 5-7 10-4 6 3 10 8 10 11 0 2-4 4-10 4-5 0-10-5-10-11z"/><path d="m5628 9113c7-3 16-2 19 1 4 3-2 6-13 5-11 0-14-3-6-6z"/><path d="m5990 9095c-19-20-21-28-12-37 10-10 14-8 18 10 7 26 21 28 46 5 17-15 18-15 18 0 0 10-7 17-15 17-7 0-18 7-23 15-7 13-12 12-32-10z"/><path d="m4542 9098c-5-7-12-22-16-33-5-18-1-20 34-22 42-1 54 11 20 22-15 5-19 12-15 26 7 21-7 26-23 7z"/><path d="m5795 9100c3-5 11-10 16-10 6 0 7 5 4 10-3 6-11 10-16 10-6 0-7-4-4-10z"/><path d="m4250 9084c0-8 5-12 10-9 6 4 8 11 5 16-9 14-15 11-15-7z"/><path d="m4300 9079c-10-18-9-20 7-17 10 2 19 11 21 21 5 24-15 21-28-4z"/><path d="m4480 9085c0-17 2-18 24-9 18 7 12 24-10 24-8 0-14-7-14-15z"/><path d="m4868 9088c5-5 16-8 23-6 8 3 3 7-10 11-17 4-21 3-13-5z"/><path d="m5463 9086c1-11 9-21 17-23 10-3 11-2 4 4-6 4-14 15-17 23-5 11-6 9-4-4z"/><path d="m4360 9075c-13-15-12-19 5-31 24-17 41-18 27-1-5 6-11 21-13 31-4 18-5 18-19 1z"/><path d="m4760 9080c0-5 7-7 15-4 8 4 15 8 15 10s-7 4-15 4-15-4-15-10z"/><path d="m4955 9080c4-6 11-8 16-5 14 9 11 15-7 15-8 0-12-5-9-10z"/><path d="m5170 9080c0-5 5-10 10-10 6 0 10 5 10 10 0 6-4 10-10 10-5 0-10-4-10-10z"/><path d="m5263 9078c3-9 1-19-6-22-9-3-9-5 0-5 18-1 27 19 13 32-10 9-12 8-7-5z"/><path d="m5895 9070c-4-6 3-10 14-10 25 0 27 6 6 13-8 4-17 2-20-3z"/><path d="m6770 9069c0-5 9-9 20-9s20 2 20 4-9 6-20 9-20 1-20-4z"/><path d="m4165 9055c-3-8-7-22-10-30-5-16 12-20 34-6 10 7 11 13 2 30-14 25-20 26-26 6z"/><path d="m4650 9060c0-5 5-10 10-10 6 0 10 5 10 10 0 6-4 10-10 10-5 0-10-4-10-10z"/><path d="m5655 9060c3-5 8-10 11-10 2 0 4 5 4 10 0 6-5 10-11 10-5 0-7-4-4-10z"/><path d="m4805 9050c-3-5-2-10 4-10 5 0 13 5 16 10 3 6 2 10-4 10-5 0-13-4-16-10z"/><path d="m4261 9041c-7-5-12-14-9-21 2-7 10-4 22 9 19 21 12 28-13 12z"/><path d="m6193 9043c-7-3-13-12-13-21 0-15 2-15 17 1 18 18 16 27-4 20z"/><path d="m4301 9024c0-11 3-14 6-6 3 7 2 16-1 19-3 4-6-2-5-13z"/><path d="m4850 9030c0-13 11-13 30 0 12 8 11 10-7 10-13 0-23-4-23-10z"/><path d="m5191 9024c0-11 3-14 6-6 3 7 2 16-1 19-3 4-6-2-5-13z"/><path d="m4483 9000c0-29 10-39 21-22 7 11-4 52-13 52-4 0-8-13-8-30z"/><path d="m4617 9024c-8-9 36-44 46-37 5 3-1 14-12 24-22 21-25 22-34 13z"/><path d="m4530 9010c0-5 5-10 10-10 6 0 10 5 10 10 0 6-4 10-10 10-5 0-10-4-10-10z"/><path d="m5005 9010c-3-5-1-10 4-10 6 0 11 5 11 10 0 6-2 10-4 10-3 0-8-4-11-10z"/><path d="m5335 9010c3-5 10-10 16-10 5 0 9 5 9 10 0 6-7 10-16 10-8 0-12-4-9-10z"/><path d="m5137 9004c-12-12 5-32 23-27 17 4 17 7 5 19-15 16-19 17-28 8z"/><path d="m4031 8984c0-11 3-14 6-6 3 7 2 16-1 19-3 4-6-2-5-13z"/><path d="m4217 8994c-13-13-7-24 14-24 11 0 19 5 17 12-5 14-22 21-31 12z"/><path d="m4570 8989c0-5 5-7 10-4 6 3 10 8 10 11 0 2-4 4-10 4-5 0-10-5-10-11z"/><path d="m4750 8986c0-8-8-17-17-19-14-4-12-5 5-6 16-1 22 5 22 19 0 11-2 20-5 20s-5-6-5-14z"/><path d="m4370 8971c-11-22-40-29-40-10 0 8-5 8-15-1-8-7-15-20-14-29 0-10 2-11 6-3 2 6 20 12 39 12s34 5 34 10c0 6 7 10 16 10s14 5 12 12c-7 21-26 20-38-1z"/><path d="m4870 8980c0-5 5-10 10-10 6 0 10 5 10 10 0 6-4 10-10 10-5 0-10-4-10-10z"/><path d="m5395 8970c3-5 8-10 11-10 2 0 4 5 4 10 0 6-5 10-11 10-5 0-7-4-4-10z"/><path d="m5455 8970c-3-5 1-10 10-10s13 5 10 10c-3 6-8 10-10 10s-7-4-10-10z"/><path d="m5585 8970c-3-5 1-10 9-10s18 5 21 10c3 6-1 10-9 10s-18-4-21-10z"/><path d="m4170 8955c0-8-5-15-11-15s-9-12-7-27c2-17 9-28 18-28 11 0 14 8 12 28-2 16 2 35 9 43 9 11 8 14-5 14-9 0-16-7-16-15z"/><path d="m4512 8950c-19-30-14-38 8-12 11 13 24 21 30 17 5-3 10-1 10 4 0 19-35 12-48-9z"/><path d="m5733 8956c-7-8-18-16-25-19-7-2-10-8-6-12s13-2 20 4c7 7 22 18 33 26 15 11 16 14 5 14-8 0-20-6-27-13z"/><path d="m4611 8942c-15-28-14-32 8-32 27 0 36 19 18 37-13 14-16 13-26-5z"/><path d="m4770 8947c0-8 9-17 21-20 15-4 19-1 17 11-4 21-38 29-38 9z"/><path d="m6165 8950c-8-13-1-24 14-19 6 3 7 10 2 18-6 10-10 10-16 1z"/><path d="m5356 8941c-4-7-5-15-2-18 9-9 19 4 14 18-4 11-6 11-12 0z"/><path d="m5530 8940c0-5 4-10 9-10 6 0 13 5 16 10 3 6-1 10-9 10-9 0-16-4-16-10z"/><path d="m4400 8930c0-5-7-10-15-10s-15-4-15-10c0-13 3-13 34 3 14 8 23 17 19 20-10 10-23 8-23-3z"/><path d="m5770 8930c0-5 7-10 15-10s15 5 15 10c0 6-7 10-15 10s-15-4-15-10z"/><path d="m4221 8909c11-11 24-18 27-14 4 4-2 13-12 21-30 21-39 17-15-7z"/><path d="m4538 8902c-10-2-18-8-18-13 0-6 4-7 10-4 5 3 19 1 30-5 16-8 20-8 20 4 0 16-18 24-42 18z"/><path d="m4303 8893c-12-2-24-11-27-20-5-12-1-14 16-9 13 3 29 6 36 6 6 0 12 7 12 15s-3 14-7 14c-5-1-18-4-30-6z"/><path d="m4650 8890c0-5 5-10 10-10 6 0 10 5 10 10 0 6-4 10-10 10-5 0-10-4-10-10z"/><path d="m5185 8890c3-5 8-10 11-10 2 0 4 5 4 10 0 6-5 10-11 10-5 0-7-4-4-10z"/><path d="m4482 8878c2-6 10-14 16-16 7-2 10 2 6 12-7 18-28 22-22 4z"/><path d="m4680 8869c0-11-4-17-10-14-5 3-10 1-10-4 0-15 11-13 34 4 10 7 15 18 11 24-11 18-25 12-25-10z"/><path d="m5387 8883c-4-3-7-11-7-17s5-5 12 2c6 6 9 14 7 17-3 3-9 2-12-2z"/><path d="m5895 8860c3-5 8-10 11-10 2 0 4 5 4 10 0 6-5 10-11 10-5 0-7-4-4-10z"/><path d="m5210 8850c0-5 5-10 11-10 5 0 7 5 4 10-3 6-8 10-11 10-2 0-4-4-4-10z"/><path d="m3823 8843c9-2 23-2 30 0 6 3-1 5-18 5-16 0-22-2-12-5z"/><path d="m4315 8840c-7-12 2-30 16-30 5 0 9 9 9 20 0 21-15 27-25 10z"/><path d="m6200 8834c0-8 5-12 10-9 6 3 10 10 10 16 0 5-4 9-10 9-5 0-10-7-10-16z"/><path d="m3670 8830c-8-5-11-12-7-16s13-2 19 4c15 15 7 24-12 12z"/><path d="m4835 8830c3-5 8-10 11-10 2 0 4 5 4 10 0 6-5 10-11 10-5 0-7-4-4-10z"/><path d="m4080 8820c0-5 5-10 11-10 5 0 7 5 4 10-3 6-8 10-11 10-2 0-4-4-4-10z"/><path d="m4891 8821c-8-6-9-11-3-15 6-3 14-1 17 5 9 14 2 20-14 10z"/><path d="m4181 8810c-1-20 18-40 39-39 10 0 8 4-7 11-12 6-24 18-26 27-4 14-5 14-6 1z"/><path d="m4652 8809c2-7 10-15 17-17 8-3 12 1 9 9-2 7-10 15-17 17-8 3-12-1-9-9z"/><path d="m5756 8804c-4-9-5-19-3-21 8-8 37 10 37 23 0 19-26 18-34-2z"/><path d="m3803 8802c-18-11-27-61-14-76 10-12 18-11 52 7 47 25 51 39 7 30-28-6-31-4-26 15 7 24-2 34-19 24zm14-47c8-22-6-33-17-15-13 20-12 30 0 30 6 0 13-7 17-15z"/><path d="m3710 8793c8-3 19-11 23-17 6-7 7-6 4 4-2 8-12 16-23 17-13 2-15 1-4-4z"/><path d="m3910 8786c0-8 5-18 10-21 6-3 10 3 10 14 0 12-4 21-10 21-5 0-10-6-10-14z"/><path d="m4057 8789c7-7 15-10 18-7s-2 9-12 12c-14 6-15 5-6-5z"/><path d="m4350 8789c0-5 5-7 10-4 6 3 10 8 10 11 0 2-4 4-10 4-5 0-10-5-10-11z"/><path d="m4970 8790c19-13 30-13 30 0 0 6-10 10-22 10-19 0-20-2-8-10z"/><path d="m5220 8787c14-8 27-12 30-10 7 6-23 23-40 23-8 0-4-6 10-13z"/><path d="m4840 8779c0-5 5-7 10-4 6 3 10 8 10 11 0 2-4 4-10 4-5 0-10-5-10-11z"/><path d="m4131 8764c0-11 3-14 6-6 3 7 2 16-1 19-3 4-6-2-5-13z"/><path d="m4286 8751c-9-17-21-31-26-31-16 0-39-55-33-78 3-12 9-22 13-22 10 0 24 30 24 55 1 13 7 19 18 17 12-2 15 3 11 19-4 15 0 27 12 36 14 9 16 16 8 24s-16 3-27-20z"/><path d="m4870 8766c0-9 5-16 10-16 6 0 10 4 10 9 0 6-4 13-10 16-5 3-10-1-10-9z"/><path d="m4616 8755c-3-9 0-15 9-15 16 0 20 16 6 24-5 3-11-1-15-9z"/><path d="m5180 8755c-10-12-10-15 4-15 9 0 16 7 16 15s-2 15-4 15-9-7-16-15z"/><path d="m5110 8750c0-5 5-10 11-10 5 0 7 5 4 10-3 6-8 10-11 10-2 0-4-4-4-10z"/><path d="m4690 8741c0-4 11-6 25-3 14 2 25 6 25 8s-11 4-25 4-25-4-25-9z"/><path d="m4970 8734c0-8 5-12 10-9 6 3 10 10 10 16 0 5-4 9-10 9-5 0-10-7-10-16z"/><path d="m5727 8743c-4-3-7-11-7-17s5-5 12 2c6 6 9 14 7 17-3 3-9 2-12-2z"/><path d="m5260 8721c0-12 5-21 10-21 6 0 10 6 10 14s-4 18-10 21c-5 3-10-3-10-14z"/><path d="m4590 8719c0-5 5-7 10-4 6 3 10 8 10 11 0 2-4 4-10 4-5 0-10-5-10-11z"/><path d="m4095 8710c3-5 8-10 11-10 2 0 4 5 4 10 0 6-5 10-11 10-5 0-7-4-4-10z"/><path d="m6590 8710c0-5 5-10 10-10 6 0 10 5 10 10 0 6-4 10-10 10-5 0-10-4-10-10z"/><path d="m3410 8691c-7-14-7-22 2-27 7-5 8-3 3 6-6 10-2 11 20 6 23-6 26-4 21 9-3 9-6 19-6 21 0 13-31 1-40-15z"/><path d="m4400 8700c0-5 5-10 11-10 5 0 7 5 4 10-3 6-8 10-11 10-2 0-4-4-4-10z"/><path d="m4885 8700c-3-5-1-10 4-10 6 0 11 5 11 10 0 6-2 10-4 10-3 0-8-4-11-10z"/><path d="m4630 8691c0-5 5-13 10-16 6-3 10-2 10 4 0 5-4 13-10 16-5 3-10 2-10-4z"/><path d="m4695 8691c-10-17 12-21 25-6 10 12 10 15-3 15-9 0-18-4-22-9z"/><path d="m3530 8674c0-9 5-14 12-12 18 6 21 28 4 28-9 0-16-7-16-16z"/><path d="m3753 8683c-18-7-16-23 2-23 8 0 15 7 15 15s-1 15-2 14c-2 0-9-3-15-6z"/><path d="m4186 8675c-19-15-19-15 2-15 13 0 22 6 22 15 0 18 0 18-24 0z"/><path d="m4735 8670c-19-8-19-9 2-9 12-1 25 4 28 9 7 12-2 12-30 0z"/><path d="m3825 8660c-3-5-15-10-26-10-10 0-19-7-19-15 0-11-7-14-25-9-34 8-33-13 1-26s34-13 34 15c0 20 5 25 25 25 16 0 25 6 25 15 0 17-6 19-15 5z"/><path d="m3878 8645c-6-30-3-43 8-33 3 4 4 19 2 35l-3 28z"/><path d="m4296 8662c-3-3-6-14-6-24 0-13 7-18 25-18 14 0 28 0 32-1 4 0 9 4 11 9 3 11-54 43-62 34z"/><path d="m4500 8660c0-17 30-24 43-10 10 10 8 12-5 7-10-4-18-2-18 3 0 6-4 10-10 10-5 0-10-5-10-10z"/><path d="m4887 8664c-10-10-9-54 2-54 12 0 22 43 13 52-5 5-11 5-15 2z"/><path d="m5040 8655c-16-19-5-32 13-17 8 7 17 9 20 5 4-3 7 1 7 10 0 21-23 22-40 2z"/><path d="m5126 8654c-17-12-17-14-4-14 9 0 20 5 23 11 11 17 2 18-19 3z"/><path d="m5200 8654c0-8 5-12 10-9 6 4 8 11 5 16-9 14-15 11-15-7z"/><path d="m5260 8659c0-5 5-7 10-4 6 3 10 8 10 11 0 2-4 4-10 4-5 0-10-5-10-11z"/><path d="m3485 8651c-3-6 4-15 15-21 21-11 27-35 10-45-5-3-17 3-27 15-20 23-33 26-33 7 0-20 33-47 58-47 22 0 30-24 12-35-14-8-13-45 1-45 6 0 19 10 28 22 16 19 18 20 24 4 5-13 1-19-14-23-16-5-19-11-14-30 5-22 3-23-22-17-28 7-28 7-10-17 29-40 30-49 12-69-22-24-35-17-35 19 0 15-5 32-12 39-9 9-9 12 0 12 7 0 12 5 12 10 0 6-9 10-20 10-25 0-25-13-2-52 13-23 14-32 5-35-16-6-17-33-3-33 6 0 15-10 20-22l9-23 6 21c4 12 18 27 31 34 15 8 24 22 24 37 0 13 4 23 9 23 6 0 9 15 8 33-2 27 1 32 21 31 25-1 30 23 11 57-7 15-6 28 5 51 19 36 21 61 5 56-6-2-10-7-9-12 2-13-22-26-47-26-16 0-23 6-23 18 0 10-9 28-20 40-23 25-26 26-35 13zm105-101c0-5-8-10-17-10-15 0-16 2-3 10 19 12 20 12 20 0z"/><path d="m3680 8650c0-5 5-10 11-10 5 0 7 5 4 10-3 6-8 10-11 10-2 0-4-4-4-10z"/><path d="m4953 8652c-26-4-30-17-8-26 8-3 15-14 15-25s4-22 9-26c14-8 25 15 13 27-7 7-8 17-2 29 12 21 4 27-27 21z"/><path d="m4147 8644c-10-10 42-56 59-52 14 2 10 9-18 30-20 15-38 25-41 22z"/><path d="m4395 8640c4-6 11-8 16-5 14 9 11 15-7 15-8 0-12-5-9-10z"/><path d="m4789 8629c-8-15-8-24 0-32s11-5 11 11c0 13 6 22 15 22 8 0 15 5 15 10 0 18-29 10-41-11z"/><path d="m6260 8640c-8-5-12-11-10-14 3-2 14 2 24 10 22 15 10 19-14 4z"/><path d="m3305 8630c3-5 10-10 16-10 5 0 9 5 9 10 0 6-7 10-16 10-8 0-12-4-9-10z"/><path d="m4460 8626c0-2 7-6 15-10 8-3 15-1 15 4 0 6-7 10-15 10s-15-2-15-4z"/><path d="m5085 8620c-3-5-1-10 4-10 6 0 11 5 11 10 0 6-2 10-4 10-3 0-8-4-11-10z"/><path d="m5298 8623c7-3 16-2 19 1 4 3-2 6-13 5-11 0-14-3-6-6z"/><path d="m5380 8620c0-5 5-10 10-10 6 0 10 5 10 10 0 6-4 10-10 10-5 0-10-4-10-10z"/><path d="m3646 8611c-3-5 1-14 9-21 13-10 15-9 15 9 0 21-14 28-24 12z"/><path d="m4416 8605c-19-14-18-15 12-15 24 0 30 4 26 15-7 18-14 18-38 0z"/><path d="m4569 8608c0-2-2-14-4-28s-7-38-11-54c-4-19-2-31 6-36 20-12-4-38-38-43-25-4-25-4 4-6 18 0 34-7 37-14 7-19 67-10 67 9 0 12-4 12-21 4-28-16-35-5-21 32 10 26 9 35-3 48s-13 23-6 44c6 14 15 26 21 26s8 5 5 10c-5 9-34 15-36 8z"/><path d="m3694 8576c-1-14 5-27 13-30s11-2 8 3c-3 6 3 14 12 20 20 11 17 16-12 25-16 5-20 1-21-18z"/><path d="m3830 8586c0-9 5-16 10-16 6 0 10 4 10 9 0 6-4 13-10 16-5 3-10-1-10-9z"/><path d="m4494 8585c-7-18 3-35 21-35 7 0 12 10 11 25-1 27-23 34-32 10z"/><path d="m5218 8593c7-3 16-2 19 1 4 3-2 6-13 5-11 0-14-3-6-6z"/><path d="m5830 8596c0-9 30-14 35-6 4 6-3 10-14 10-12 0-21-2-21-4z"/><path d="m6058 8593c7-3 16-2 19 1 4 3-2 6-13 5-11 0-14-3-6-6z"/><path d="m4132 8573c2-10 10-18 18-18s16 8 18 18c2 12-3 17-18 17s-20-5-18-17z"/><path d="m3915 8560c10-11 23-20 28-20 6 0 2 9-8 20s-23 20-28 20c-6 0-2-9 8-20z"/><path d="m5440 8576c0-2 7-6 15-10 8-3 15-1 15 4 0 6-7 10-15 10s-15-2-15-4z"/><path d="m3630 8555c-10-12-10-15 3-15 8 0 17 7 21 15 3 8 2 15-3 15s-14-7-21-15z"/><path d="m3995 8550c-10-11-25-20-33-20-10 0-7-9 12-34 14-19 26-42 26-50 0-23 21-20 27 4s20 25 45 3c17-15 18-15 18 4 0 12-7 23-15 27-8 3-15 13-15 23-1 15-3 15-20-5-20-24-40-22-40 4 0 8 12 19 26 24 22 9 24 13 14 25-16 20-23 19-45-5z"/><path d="m4770 8555c0-8 4-15 10-15 5 0 7 7 4 15-4 8-8 15-10 15s-4-7-4-15z"/><path d="m4880 8555c-10-12-10-15 4-15 9 0 16 7 16 15s-2 15-4 15-9-7-16-15z"/><path d="m3772 8551c-10-6-10-10 3-21s15-9 15 9c0 24 0 24-18 12z"/><path d="m4370 8551c0-12 28-22 35-12 3 5-2 12-11 15-21 8-24 8-24-3z"/><path d="m4968 8541c-9-11-14-22-11-25 8-8 43 17 43 31 0 19-13 16-32-6z"/><path d="m5075 8550c-16-7-17-9-3-9 9-1 20 4 23 9 7 11 7 11-20 0z"/><path d="m5947 8546c-4-10-5-21-2-24 9-9 17 6 13 25-3 17-4 17-11-1z"/><path d="m4607 8531c3-12 10-21 15-21 13 0 6 32-9 37-7 3-9-3-6-16z"/><path d="m4715 8540c3-5 8-10 11-10 2 0 4 5 4 10 0 6-5 10-11 10-5 0-7-4-4-10z"/><path d="m3460 8525c0-8 7-15 16-15 14 0 14 3 4 15-7 8-14 15-16 15s-4-7-4-15z"/><path d="m3830 8537c0-3 9-21 21-39 17-28 19-29 14-8-7 24-35 62-35 47z"/><path d="m4110 8530c0-5 5-10 11-10 5 0 7 5 4 10-3 6-8 10-11 10-2 0-4-4-4-10z"/><path d="m4440 8530c0-5 6-13 14-17 7-4 15-15 18-23 5-12 7-11 14 5 4 11 12 24 18 28 7 5 2 7-11 4s-26-1-29 4c-7 12-24 12-24-1z"/><path d="m4670 8521c0-25 6-27 13-6 4 8 2 17-3 20-6 4-10-3-10-14z"/><path d="m3297 8523c-12-11-8-40 8-53 17-14 21 0 4 17-8 8-8 13 0 17 6 4 11 11 11 17 0 10-14 12-23 2z"/><path d="m3672 8510c-7-12-10-25-7-30 12-19 22-10 23 20 1 36 0 36-16 10z"/><path d="m3727 8509c-4-15-1-19 10-17 22 4 27 24 9 31-8 3-16-2-19-14z"/><path d="m4190 8520c-8-5-11-12-7-16s13-2 19 4c15 15 7 24-12 12z"/><path d="m5430 8519c0-5 5-7 10-4 6 3 10 8 10 11 0 2-4 4-10 4-5 0-10-5-10-11z"/><path d="m5460 8511c0-10 7-24 15-31 12-10 15-10 15 3 0 9-5 19-10 22-6 4-8 11-5 16 4 5 1 9-4 9-6 0-11-8-11-19z"/><path d="m5781 8514c0-11 3-14 6-6 3 7 2 16-1 19-3 4-6-2-5-13z"/><path d="m4710 8505c-6-8-10-20-8-26s12 0 21 15c18 27 8 37-13 11z"/><path d="m5020 8502c0-5 7-15 15-22s15-8 15-2c0 5-7 15-15 22s-15 8-15 2z"/><path d="m3405 8479c-11-34 9-42 22-9 9 24 9 30-2 30-8 0-17-9-20-21z"/><path d="m4257 8493c-4-3-7-11-7-17s5-5 12 2c6 6 9 14 7 17-3 3-9 2-12-2z"/><path d="m4634 8489c-3-6-1-16 5-22 8-8 11-5 11 11 0 24-5 28-16 11z"/><path d="m5860 8480c0-6 7-10 15-10s15 2 15 4-7 6-15 10c-8 3-15 1-15-4z"/><path d="m3771 8466c-8-10-9-21-1-40 13-35 28-26 25 14-3 38-9 44-24 26z"/><path d="m4300 8469c0-5 5-7 10-4 6 3 10 8 10 11 0 2-4 4-10 4-5 0-10-5-10-11z"/><path d="m3361 8454c0-11 3-14 6-6 3 7 2 16-1 19-3 4-6-2-5-13z"/><path d="m4955 8460c-3-5 3-10 14-10 12 0 21-5 21-11 0-13 38-49 52-49 4 0 8 9 8 19 0 14-5 18-20 14-14-4-23 2-31 21-12 26-33 34-44 16z"/><path d="m3900 8447c0-8 7-18 16-21 11-4 14-1 12 11-4 21-28 30-28 10z"/><path d="m4822 8449c2-6 8-10 13-10s11 4 13 10-4 11-13 11-15-5-13-11z"/><path d="m3653 8429c6-34 47-49 47-16 0 7-4 7-9-2-8-12-11-9-16 12-8 32-26 37-22 6z"/><path d="m3718 8443c7-3 16-2 19 1 4 3-2 6-13 5-11 0-14-3-6-6z"/><path d="m4127 8444c-8-8 1-24 14-24 5 0 9 7 9 15 0 15-12 20-23 9z"/><path d="m4030 8415c0-8-4-15-10-15-5 0-10-7-10-15s9-15 20-15 20 4 20 9 3 16 6 24-2 17-10 20c-10 4-16 1-16-8z"/><path d="m4903 8415c-15-16-16-25-5-25 4 0 13 9 20 20 14 23 3 26-15 5z"/><path d="m3290 8409c0-5 5-7 10-4 6 3 10 8 10 11 0 2-4 4-10 4-5 0-10-5-10-11z"/><path d="m3400 8410c0-5 5-10 10-10 6 0 10-4 10-10 0-5-6-10-14-10-7 0-13-10-12-22 1-13 7-23 16-23 8 0 14 6 12 14-1 7 3 19 9 27 9 11 8 18-1 29-14 17-30 20-30 5z"/><path d="m3603 8413c-15-5-18-53-4-53 5 0 11 12 14 28 6 31 6 31-10 25z"/><path d="m3830 8406c0-21 11-46 20-46 4 0 10 9 13 20s1 18-4 14c-5-3-9 2-9 10 0 9-4 16-10 16-5 0-10-6-10-14z"/><path d="m3720 8380c0-11 5-20 10-20 6 0 10 9 10 20s-4 20-10 20c-5 0-10-9-10-20z"/><path d="m4708 8393c7-3 16-2 19 1 4 3-2 6-13 5-11 0-14-3-6-6z"/><path d="m2840 8375c0-16 16-20 24-6 3 5-1 11-9 15-9 3-15 0-15-9z"/><path d="m3110 8380c-12-8-11-10 8-10 12 0 22 5 22 10 0 13-11 13-30 0z"/><path d="m3320 8379c0-5 5-7 10-4 6 3 10 8 10 11 0 2-4 4-10 4-5 0-10-5-10-11z"/><path d="m3907 8384c-3-3-3-12-1-19 3-7-2-15-10-18-13-5-13-9 0-36 15-30 34-42 34-21 0 6-4 10-10 10-18 0-11 40 8 41 9 0 12 3 6 5-7 3-10 14-7 24 5 19-7 27-20 14z"/><path d="m4569 8369c-30-23-7-26 41-5 32 13 32 13 7 18-15 3-34-2-48-13z"/><path d="m2940 8366c0-9 7-16 16-16 17 0 14 22-4 28-7 2-12-3-12-12z"/><path d="m4084 8365c-4-8-15-15-25-15s-19-4-19-10c0-5 9-10 20-10 26 0 25-11-1-34-15-13-18-21-11-28 8-8 15-8 25 1 12 9 16 8 21-4 7-20-7-49-33-67-14-10-18-21-14-41 3-15 8-27 12-27s17-9 29-20c18-17 22-18 22-5 0 8 9 15 20 15s20 5 20 11c0 7 9 9 21 6 25-7 49 1 49 15 0 6-14 8-32 5-18-2-40-1-49 4-13 6-18 3-22-11-3-11-12-20-20-20-38 0-31 54 8 64 18 5 25 13 25 30 0 14 7 31 15 40 8 8 15 17 15 20s-7 3-15 0c-8-4-15-1-15 5s-10 11-21 11c-19 0-21 4-15 32 3 18 12 36 19 40 8 5 7 8-6 8-10 0-20-7-23-15z"/><path d="m4200 8367c0-19 16-31 24-18 3 5-1 14-9 21-12 10-15 10-15-3z"/><path d="m4512 8360c7-11 16-20 20-20 5 0 8-9 8-20s4-20 10-20c5 0 7-7 4-15-4-8-1-22 5-29 9-11 9-16 0-21-8-6-8-10 2-16 18-11 40 31 26 49-8 10-7 16 3 22 11 7 8 11-11 20-13 6-32 24-41 41-9 16-22 29-28 29s-6-7 2-20z"/><path d="m5910 8370c0-5 5-10 11-10 5 0 7 5 4 10-3 6-8 10-11 10-2 0-4-4-4-10z"/><path d="m2990 8354c0-8 5-12 10-9 6 4 8 11 5 16-9 14-15 11-15-7z"/><path d="m3795 8359c-4-6-5-12-2-15 7-7 37 7 37 17 0 13-27 11-35-2z"/><path d="m4780 8355c-10-12-10-15 4-15 9 0 16 7 16 15s-2 15-4 15-9-7-16-15z"/><path d="m4963 8355c-9-24 1-27 15-5 8 13 8 20 2 20s-13-7-17-15z"/><path d="m5075 8360c4-6 11-8 16-5 14 9 11 15-7 15-8 0-12-5-9-10z"/><path d="m5561 8354c0-11 3-14 6-6 3 7 2 16-1 19-3 4-6-2-5-13z"/><path d="m3290 8350c0-5 5-10 11-10 5 0 7 5 4 10-3 6-8 10-11 10-2 0-4-4-4-10z"/><path d="m4345 8350c-18-8-17-9 8-9 15-1 27 4 27 9 0 12-8 12-35 0z"/><path d="m3020 8335c0-8 7-15 15-15s15 7 15 15-7 15-15 15-15-7-15-15z"/><path d="m3668 8343c-10-2-18-9-18-14 0-15 43-7 48 9 4 12 0 13-30 5z"/><path d="m5015 8340c3-5 8-10 11-10 2 0 4 5 4 10 0 6-5 10-11 10-5 0-7-4-4-10z"/><path d="m5410 8328c0-24 13-23 35 2 18 20 18 20-8 18-18-2-27-8-27-20z"/><path d="m3103 8324c-36-15-40-29-18-57 9-13 20-17 33-13 26 9 37-8 17-24-8-7-15-25-15-39 0-15-6-36-14-47-17-22-23-12-28 41-3 27-21 39-24 15-3-23-5-24-15-8-8 15-14 15-35 6-20-9-30-9-45 0-16 10-21 10-26-4-3-9-13-14-24-11-10 3-20-2-24-10-5-14-8-14-24 1-12 11-27 15-43 11-18-5-30 1-48 21-18 19-20 25-8 21 9-3 22 1 30 11 11 13 11 14 0 8-19-11-44 24-30 41 8 10 6 13-7 13s-16-6-11-25c4-14 2-25-4-25-5 0-10 5-10 10 0 6-7 10-15 10s-16 6-16 13c-1 6-2 18-3 26-1 19-26 26-26 8 0-9-3-22-6-31-4-11-1-16 10-16 21 0 56-31 56-50 0-8 9-21 20-28 24-15 18-32-11-32-10 0-19-6-19-13 0-14-31-47-43-47-4 0-7 6-7 14 0 16-44 26-82 19-23-4-25-7-15-24 7-12 18-17 29-13 13 4 18 0 18-14 0-18 28-52 43-52 4 0 7 10 7 21 0 22 25 48 48 49 6 0 12-7 12-15 0-18 20-20 21-2 1 6 2 21 3 31 0 12 11 22 29 27 30 8 34 3 13-20s-5-48 17-27c8 9 20 16 25 16 6 0 12 7 16 15 6 17 36 21 36 5 0-20 38-10 44 13 6 22 6 22 23-5 18-28 33-36 33-18 0 20 28 10 34-12s7-22 21-4c13 17 13 21-3 32-16 12-16 13 0 14 9 0 20-9 23-20 8-25 45-19 91 16 23 17 34 20 43 11 21-21 13-38-16-31-24 6-26 5-15-8 10-12 9-18-3-28-13-11-12-16 6-41 22-31 49-39 49-14 0 8-9 15-20 15-13 0-18 5-13 16 3 8 12 13 19 10 9-3 14 2 14 14 0 22 20 26 37 9 7-7 13-7 17-1 3 5-1 15-9 22s-15 21-15 31-9 21-20 24-23 17-26 31c-3 13-10 24-15 24-19 0-27 44-11 60 14 13 14 15-3 19-11 2-24 9-30 16-8 10-16 10-42-1zm37-30c0-8-6-14-13-14-19 0-27 10-20 25 6 17 33 8 33-11zm37-111c-3-3-11-2-17 2-9 6-9 10 1 16 14 8 27-7 16-18z"/><path d="m3359 8340c-8-24-4-53 8-57 27-10 35 12 14 38-11 13-21 22-22 19z"/><path d="m3551 8305c-17-19-38-35-46-35s-15-5-15-11-9-8-20-4c-12 4-20 2-20-5 0-15 33-26 38-12 2 7 10 12 18 12s14 5 14 10c0 11 33 14 43 3 11-10-24-43-45-43-10 0-21-7-25-15-7-21 4-32 19-17 16 16 28 15 28-3 0-8-12-18-27-21-20-5-30-2-44 15-10 13-23 20-29 16-16-10-12-28 5-21 11 4 15-1 15-18 0-31-17-44-67-52-33-5-45-2-60 13s-22 17-31 7c-17-18-15-24 8-24 11 0 20-5 20-10 0-6 12-15 26-20 22-9 24-13 14-25-7-9-11-16-9-18 2-1 18-10 34-19 25-14 30-23 32-58 1-28-3-43-13-47-8-3-14-13-14-22s-7-27-16-39c-13-19-13-22-1-22 8 0 17 7 21 15 7 20 31 9 45-21 6-14 17-24 23-22 16 6 22 28 7 28-6 0-23 12-36 27l-25 26 23 18c21 16 23 20 11 40-12 18-11 24 2 37 14 14 16 14 22-1 7-19 24-23 24-6 0 14-25 39-39 39-6 0-11 5-11 10 0 6-7 10-16 10-8 0-12 5-9 11 4 6 13 8 20 5 14-5 55 33 55 51 0 7 8 13 18 16 16 4 16 5-2 12-13 6-21 3-28-8-11-21-28-22-28-2 0 8 11 17 25 21 14 3 25 10 25 15s9 9 20 9 20-7 20-16c0-8 5-12 10-9 6 3 10 18 10 32 0 16 7 27 19 30 10 2 24 16 30 30 10 22 9 28-10 41-16 11-20 21-15 43 8 42-7 43-43 4zm25-87c-16-22-16-22-16-1 0 12 6 23 13 26 19 7 20 0 3-25zm-136-138c0-5-5-10-11-10-5 0-7 5-4 10 3 6 8 10 11 10 2 0 4-4 4-10z"/><path d="m3996 8331c-4-5-2-12 3-15 5-4 12-2 15 3 4 5 2 12-3 15-5 4-12 2-15-3z"/><path d="m2960 8314c0-8 9-14 20-14s20 4 20 9-9 11-20 14c-13 3-20 0-20-9z"/><path d="m3310 8317c0-14-5-17-21-12-15 5-19 4-15-4 4-6 16-11 27-11 12 0 19-7 19-20 0-11-4-20-8-20s-16-13-25-30c-23-38-17-38 23 1 23 24 34 29 43 20 6-6 15-11 19-11 14 0 9 18-9 36-10 9-26 29-35 43-14 21-18 22-18 8z"/><path d="m3750 8320c0-5 7-7 15-4 8 4 15 8 15 10s-7 4-15 4-15-4-15-10z"/><path d="m5040 8303c0-18 2-33 4-33 9 0 13 39 5 51-6 10-9 4-9-18z"/><path d="m2895 8312c-11-11-4-22 14-22 29 0 34-17 8-25-14-4-17-8-9-12 15-6 42 14 42 31 0 13-46 37-55 28z"/><path d="m3792 8303c2-10 10-18 18-18s18-4 22-10c5-7 8-7 8 0 0 11-35 45-46 45-3 0-4-8-2-17z"/><path d="m3952 8308c6-18 28-21 28-4 0 9-7 16-16 16s-14-5-12-12z"/><path d="m4170 8310c0-5 7-10 15-10s15 5 15 10c0 6-7 10-15 10s-15-4-15-10z"/><path d="m4380 8310c0-5 4-10 9-10 6 0 13 5 16 10 3 6-1 10-9 10-9 0-16-4-16-10z"/><path d="m4635 8311c-3-5-1-12 5-16 5-3 10 1 10 9 0 18-6 21-15 7z"/><path d="m2805 8301c-3-5-1-12 5-16 5-3 10 1 10 9 0 18-6 21-15 7z"/><path d="m7311 8294c0-11 3-14 6-6 3 7 2 16-1 19-3 4-6-2-5-13z"/><path d="m3728 8295c-10-10 4-45 18-45 8 0 14 4 14 8 0 14-25 43-32 37z"/><path d="m4513 8293c-18-7-16-23 2-23 8 0 15 7 15 15s-1 15-2 14c-2 0-9-3-15-6z"/><path d="m2860 8275c-11-13-10-20 0-40 7-14 17-25 22-25 13 0 9 17-8 31-14 12-14 14 1 25 9 7 12 15 7 18s-15-1-22-9z"/><path d="m2976 8265c-26-39 5-65 34-30 7 9 19 14 27 11 20-8 16 7-7 27-27 23-35 22-54-8z"/><path d="m3200 8280c-8-5-10-10-5-10 6 0 16-14 22-31 13-34 36-35 41-1 3 16-2 22-17 22-11 0-21 7-23 15-2 10-7 12-18 5z"/><path d="m3676 8281c-4-5-2-12 3-15 5-4 12-2 15 3 4 5 2 12-3 15-5 4-12 2-15-3z"/><path d="m5945 8280c-3-5-1-10 4-10 6 0 11 5 11 10 0 6-2 10-4 10-3 0-8-4-11-10z"/><path d="m2580 8265c0-8 7-15 15-15s15 7 15 15-7 15-15 15-15-7-15-15z"/><path d="m4355 8270c3-5 10-10 16-10 5 0 9 5 9 10 0 6-7 10-16 10-8 0-12-4-9-10z"/><path d="m4748 8273c7-3 16-2 19 1 4 3-2 6-13 5-11 0-14-3-6-6z"/><path d="m3645 8260c-3-5 1-10 10-10s13 5 10 10c-3 6-8 10-10 10s-7-4-10-10z"/><path d="m3930 8260c0-5 5-10 10-10 6 0 10 5 10 10 0 6-4 10-10 10-5 0-10-4-10-10z"/><path d="m4940 8260c0-5 5-10 11-10 5 0 7 5 4 10-3 6-8 10-11 10-2 0-4-4-4-10z"/><path d="m5856 8261c-3-5 5-16 19-25 29-19 36-20 29-3-6 18-42 38-48 28z"/><path d="m4224 8242c-5-18-12-22-29-18s-24 1-28-15-2-19 11-14c9 4 23 8 31 9 17 3 34 33 27 49-2 7-8 2-12-11z"/><path d="m2517 8231c-3-12-2-23 3-26 12-7 22 27 12 37-6 6-12 1-15-11z"/><path d="m2620 8237c0-10 8-17 18-17 9 0 13 4 7 8-5 4-13 11-17 16-5 5-8 2-8-7z"/><path d="m3420 8240c0-5 5-10 10-10 6 0 10 5 10 10 0 6-4 10-10 10-5 0-10-4-10-10z"/><path d="m5403 8231c-3-10-14-24-26-30-21-11-21-11 3-5 14 3 38 7 54 8 30 1 51 26 22 26-9 0-16 5-16 10 0 18-32 10-37-9z"/><path d="m2812 8231c4-13 18-16 19-4 0 4-5 9-11 12-7 2-11-2-8-8z"/><path d="m3970 8223c0-8 4-12 9-8 5 3 12 1 16-5 3-5 13-10 22-10 12 0 13 3 4 14-17 21-51 27-51 9z"/><path d="m2680 8210c12-11 27-17 32-14 14 9-12 34-35 34-19 0-19-1 3-20z"/><path d="m4370 8214c0-8 5-12 10-9 6 4 8 11 5 16-9 14-15 11-15-7z"/><path d="m4428 8223c7-3 16-2 19 1 4 3-2 6-13 5-11 0-14-3-6-6z"/><path d="m6018 8223c7-3 16-2 19 1 4 3-2 6-13 5-11 0-14-3-6-6z"/><path d="m3685 8200c3-5 10-10 16-10 5 0 9 5 9 10 0 6-7 10-16 10-8 0-12-4-9-10z"/><path d="m4474 8198c-4-6-3-13 2-17 5-3 10-14 10-23 1-14-4-16-27-11-34 7-40-12-6-21 43-11 56-7 59 22 2 22 7 26 28 24 25-4 25-4 6 15-21 20-63 26-72 11z"/><path d="m4725 8200c-3-5-2-10 4-10 5 0 13 5 16 10 3 6 2 10-4 10-5 0-13-4-16-10z"/><path d="m5017 8203c-12-12-8-20 18-31 14-6 25-9 25-6 0 11-37 44-43 37z"/><path d="m2402 8188c6-18 28-21 28-4 0 9-7 16-16 16s-14-5-12-12z"/><path d="m2570 8180c0-21 8-24 34-14 13 5 14 9 5 20-17 21-39 17-39-6z"/><path d="m3625 8190c3-5 10-10 16-10 5 0 9 5 9 10 0 6-7 10-16 10-8 0-12-4-9-10z"/><path d="m4593 8174c1-15 8-29 15-32 10-3 13 4 10 24-4 37-28 45-25 8z"/><path d="m6320 8192c0-12 19-26 26-19 2 2-2 10-11 17-9 8-15 8-15 2z"/><path d="m3362 8178c6-18 28-21 28-4 0 9-7 16-16 16s-14-5-12-12z"/><path d="m2654 8165c21-16 32-13 21 4-3 6-14 11-23 11-15-1-15-2 2-15z"/><path d="m3987 8173c-10-9-8-43 2-43 5 0 11 11 13 25 5 24-2 32-15 18z"/><path d="m4408 8173c7-3 16-2 19 1 4 3-2 6-13 5-11 0-14-3-6-6z"/><path d="m4970 8165c0-8 5-15 10-15 6 0 10 7 10 15s-4 15-10 15c-5 0-10-7-10-15z"/><path d="m5781 8164c0-11 3-14 6-6 3 7 2 16-1 19-3 4-6-2-5-13z"/><path d="m6458 8173c7-3 16-2 19 1 4 3-2 6-13 5-11 0-14-3-6-6z"/><path d="m2506 8158c-13-7-15-13-6-23 7-8 9-19 6-24-4-5-2-12 4-16 5-3 10-17 10-29 0-19 4-22 25-18 14 2 25 1 25-3s-11-16-25-27-25-24-25-29c0-17 25-9 38 12 11 16 20 20 42 15 16-3 32-2 35 3 7 12-22 34-34 26-6-3-13 6-17 20-3 14-12 25-20 25s-14 6-14 14-6 16-12 19c-10 3-10 7 0 19 10 13 10 17-1 21-7 3-21 1-31-5z"/><path d="m3851 8145c-17-18-19-25-8-25 17 0 40 25 35 39-1 6-14-1-27-14z"/><path d="m3402 8151c4-13 18-16 19-4 0 4-5 9-11 12-7 2-11-2-8-8z"/><path d="m3775 8150c3-5 13-10 21-10s14 5 14 10c0 6-9 10-21 10-11 0-17-4-14-10z"/><path d="m3947 8125c-5-29-2-44 10-57 19-21 41-25 24-4-6 8-15 33-19 57l-8 44z"/><path d="m4330 8125c0-15 6-25 14-25 7 0 16 11 18 25 4 19 1 25-13 25s-19-7-19-25z"/><path d="m5810 8140c0-5 5-10 10-10 6 0 10 5 10 10 0 6-4 10-10 10-5 0-10-4-10-10z"/><path d="m2360 8115c0-8 4-15 9-15s11 7 15 15c3 9 0 15-9 15-8 0-15-7-15-15z"/><path d="m2420 8109c0-11 5-17 10-14 6 3 10 13 10 21s-4 14-10 14c-5 0-10-9-10-21z"/><path d="m2467 8105c-3-17-17-41-30-55-19-20-21-27-11-35 8-5 15-28 16-49 3-38 5-39 41-40 20-1 37 3 37 8s-16 23-35 42c-19 18-35 35-35 39 0 3 10 19 21 34 17 24 19 35 12 57l-10 29z"/><path d="m3725 8120c-9-15 5-32 21-26 10 4 14-2 14-21 0-21-2-24-15-13-12 10-15 10-15-3 0-18 10-25 50-37 18-5 30-5 30 1 0 5-6 9-14 9-17 0-30 31-17 39 5 3-1 18-14 34-26 30-31 32-40 17z"/><path d="m4030 8121c0-8-7-11-20-8-21 5-25-7-14-37 5-14 10-12 31 10 17 19 21 30 14 37-8 8-11 7-11-2z"/><path d="m5758 8123c6-2 18-2 25 0 6 3 1 5-13 5s-19-2-12-5z"/><path d="m3650 8110c-8-5-11-12-7-16s13-2 19 4c15 15 7 24-12 12z"/><path d="m4210 8110c0-5 5-10 10-10 6 0 10 5 10 10 0 6-4 10-10 10-5 0-10-4-10-10z"/><path d="m2283 8095c-3-9-3-18 0-21 9-9 27 6 27 22 0 19-19 18-27-1z"/><path d="m2836 8085c-3-10 1-15 12-15 10 0 22-4 28-9 10-10 44-15 84-12 22 1 23 3 8 12-10 5-18 16-18 24 0 17-40 8-47-12-4-11-9-9-20 7-17 24-38 26-47 5z"/><path d="m3547 8075c-10-14-13-26-7-30 10-6 50 29 50 45 0 18-25 10-43-15z"/><path d="m3816 8074c-6-24-2-44 8-33 9 11 15 59 7 59-5 0-12-12-15-26z"/><path d="m3870 8082c0-7 5-10 10-7 9 6 14-8 11-27 0-5 4-8 9-8 6 0 10 13 10 28 0 21-5 28-20 28-11 0-20-6-20-14z"/><path d="m2336 8071c-4-7-5-15-2-18 9-9 19 4 14 18-4 11-6 11-12 0z"/><path d="m2390 8070c0-5 4-10 9-10 6 0 13 5 16 10 3 6-1 10-9 10-9 0-16-4-16-10z"/><path d="m3111 8066c-7-8-9-25-6-38 4-16-1-33-14-50-25-31-26-38-8-38 25 0 45 35 49 88 5 53 0 63-21 38z"/><path d="m4192 8068c2-6 10-14 16-16 7-2 10 2 6 12-7 18-28 22-22 4z"/><path d="m4410 8070c0-5 7-10 15-10s15 5 15 10c0 6-7 10-15 10s-15-4-15-10z"/><path d="m3068 8063c-11-18-18-63-11-63 13 0 34 53 24 63-5 5-11 5-13 0z"/><path d="m2685 8050c3-5 10-10 16-10 5 0 9 5 9 10 0 6-7 10-16 10-8 0-12-4-9-10z"/><path d="m3290 8040c0-17-4-19-26-14-19 5-25 4-20-5 4-6 3-11-2-11-12 0-23-38-13-44 4-3 22 4 39 14 18 11 32 15 32 10 0-6 9-10 20-10 25 0 25 9 3 26-15 11-16 16-5 33 11 19 10 21-8 21-13 0-20-7-20-20z"/><path d="m3493 8035c-8-22 6-33 17-15 13 20 12 30 0 30-6 0-13-7-17-15z"/><path d="m3610 8034-25-15 29 3c16 2 31 9 34 16 5 15-6 14-38-4z"/><path d="m2492 8024c1-9 9-19 16-22 9-3 13 2 10 14-1 9-9 19-16 22-9 3-13-2-10-14z"/><path d="m2728 8014c12-8 22-22 22-30s5-14 10-14c6 0 10 7 10 15s-4 15-10 15c-5 0-10 7-10 15 0 9-9 15-22 15h-22z"/><path d="m2986 8013c-4-9-3-20 2-25 11-11 36 17 27 32s-22 12-29-7z"/><path d="m3740 8010c0-5 5-10 10-10 6 0 10 5 10 10 0 6-4 10-10 10-5 0-10-4-10-10z"/><path d="m3933 8012c-6-5-4-14 8-26 19-19 19-19 19 2 0 24-11 34-27 24z"/><path d="m2680 8000c20-13 33-13 25 0-3 6-14 10-23 10-15 0-15-2-2-10z"/><path d="m2941 7994c0-11 3-14 6-6 3 7 2 16-1 19-3 4-6-2-5-13z"/><path d="m3581 7994c0-11 3-14 6-6 3 7 2 16-1 19-3 4-6-2-5-13z"/><path d="m3648 8003c6-2 12-11 12-19 0-9 5-12 10-9 19 12 10 35-12 34-13 0-17-3-10-6z"/><path d="m3845 7997c-8-19-2-31 13-26 5 2 6 13 2 24-7 19-8 19-15 2z"/><path d="m3160 7980c0-11-7-20-16-20-17 0-69-104-59-120 3-5 15-10 25-10s21-5 23-10c3-6 4-5 3 2s-11 17-23 22c-20 9-20 10 4 45 13 20 35 42 49 49 25 13 28 20 18 46-9 23-24 20-24-4z"/><path d="m3800 7991c0-10 19-25 25-20 1 2-3 10-11 17s-14 8-14 3z"/><path d="m2560 7965c-10-12-10-15 3-15 19 0 31 16 18 24-5 3-14-1-21-9z"/><path d="m2644 7965c3-8-1-21-9-29-21-20-19-24 10-18 27 5 35-15 10-24-8-4-15-10-15-16 0-5 4-7 9-4 5 4 20 2 33-3 15-5 30-6 39 0 10 6 10 9 2 9-7 0-13 6-13 14s-7 17-16 20c-11 4-13 10-6 23 8 13 5 20-15 30-32 17-36 16-29-2z"/><path d="m3290 7966c0-9 5-16 10-16 6 0 10 4 10 9 0 6-4 13-10 16-5 3-10-1-10-9z"/><path d="m3706 7958c3-13 11-24 15-26 5-2 9-10 9-17 0-18 36-25 56-10 12 8 14 14 6 19-7 4-12 2-12-3 0-6-7-11-15-11-19 0-20 29 0 36 22 9 9 23-15 17-11-3-20 0-20 6s-7 11-16 11c-11 0-14-6-8-22z"/><path d="m3882 7960c0-14 2-19 5-12 2 6 2 18 0 25-3 6-5 1-5-13z"/><path d="m3990 7971c0-6 5-13 10-16 6-3 10 1 10 9 0 9-4 16-10 16-5 0-10-4-10-9z"/><path d="m3545 7960c-3-5-1-10 4-10 6 0 11 5 11 10 0 6-2 10-4 10-3 0-8-4-11-10z"/><path d="m3355 7950c-4-6-2-17 4-23 15-15 25-2 13 19-7 12-11 13-17 4z"/><path d="m3960 7949c0-5 5-7 10-4 6 3 10 8 10 11 0 2-4 4-10 4-5 0-10-5-10-11z"/><path d="m4058 7953c7-3 16-2 19 1 4 3-2 6-13 5-11 0-14-3-6-6z"/><path d="m3910 7920c0-11 5-20 10-20 6 0 10 9 10 20s-4 20-10 20c-5 0-10-9-10-20z"/><path d="m3055 7920c-3-5-1-10 4-10 6 0 11 5 11 10 0 6-2 10-4 10-3 0-8-4-11-10z"/><path d="m3238 7923c7-3 16-2 19 1 4 3-2 6-13 5-11 0-14-3-6-6z"/><path d="m3331 7914c0-11 3-14 6-6 3 7 2 16-1 19-3 4-6-2-5-13z"/><path d="m3561 7914c0-11 3-14 6-6 3 7 2 16-1 19-3 4-6-2-5-13z"/><path d="m3623 7914c-3-8-1-20 6-27 8-8 11-4 11 16 0 30-7 35-17 11z"/><path d="m3193 7903c-3-10-8-21-10-25-6-10 19-10 35 0 13 9 6 42-9 42-5 0-12-8-16-17z"/><path d="m3353 7893c-18-7-16-23 2-23 8 0 15 7 15 15s-1 15-2 14c-2 0-9-3-15-6z"/><path d="m3307 7876c-4-10-5-21-2-24 9-9 17 6 13 25-3 17-4 17-11-1z"/><path d="m3575 7880c-3-5 1-10 9-10 9 0 16 5 16 10 0 6-4 10-9 10-6 0-13-4-16-10z"/><path d="m3685 7877c-16-5-37-15-45-22s-24-15-35-17-21-11-23-21c-3-17-1-17 18-5 60 35 64 37 77 26 10-8 13-6 13 5 0 9 8 20 17 26 26 14 12 20-22 8z"/><path d="m2948 7864c-9-8 9-44 22-44 14 0 12 13-3 34-7 9-16 14-19 10z"/><path d="m3202 7836c-32-36-42-66-22-66 6 0 10 11 10 25 0 15 6 25 14 25 17 0 39 26 34 41-2 6-18-5-36-25z"/><path d="m2610 7849c0-4 4-10 10-14 5-3 7-12 3-20-7-21 11-19 30 3 25 27 21 39-13 39-16 0-30-4-30-8z"/><path d="m3009 7848c-1-7-2-22-3-33s-11-24-23-30c-13-5-25-15-27-22-6-16 16-17 30-3 8 8 20 5 42-7 25-14 34-15 44-5 9 9 8 12-8 12-25 0-44 18-44 43 0 14 4 17 13 10 25-18 67-33 67-23 0 6-11 15-24 20s-27 18-31 29c-7 23-34 29-36 9z"/><path d="m3280 7842c0-27 29-74 41-66 5 3 9 12 9 21s-3 13-7 9-15 8-25 26c-15 29-17 30-18 10z"/><path d="m3730 7845c0-8 0-18-1-22 0-4 4-9 10-11s11 8 11 22-4 26-10 26c-5 0-10-7-10-15z"/><path d="m2702 7831c4-13 18-16 19-4 0 4-5 9-11 12-7 2-11-2-8-8z"/><path d="m3510 7820c6-11 17-20 25-20 19 0 19 5-1 24-22 23-37 20-24-4z"/><path d="m2570 7820c0-5 5-10 10-10 6 0 10 5 10 10 0 6-4 10-10 10-5 0-10-4-10-10z"/><path d="m3206 7792c-8-13 11-35 23-28 16 10 14 36-3 36-8 0-17-4-20-8z"/><path d="m2590 7775c7-8 17-15 22-15 6 0 5 7-2 15s-17 15-22 15c-6 0-5-7 2-15z"/><path d="m3132 7760c-15-25-15-30 2-30 7 0 16 11 18 25 6 30-3 32-20 5z"/><path d="m3256 7765c-15-11-17-18-8-27 13-13 42 6 42 28 0 18-10 17-34-1z"/><path d="m3510 7767c0-11-8-17-24-17-27 0-42-15-26-25 6-4 8-11 5-16-4-5 1-9 9-9 9 0 16 7 16 15s4 15 9 15c12 0 25 39 17 47-3 4-6-1-6-10z"/><path d="m3388 7753c7-3 16-2 19 1 4 3-2 6-13 5-11 0-14-3-6-6z"/><path d="m3541 7744c0-11 3-14 6-6 3 7 2 16-1 19-3 4-6-2-5-13z"/><path d="m3302 7738c-20-20-14-38 13-38 14 0 25-4 25-10 0-10-14-14-39-10-13 1-13-1-2-14 13-15 15-15 32 0 11 10 25 13 39 9 17-5 21-3 18 10-1 10-12 23-23 29s-24 17-28 24c-10 15-20 15-35 0z"/><path d="m3190 7729c0-5 5-7 10-4 6 3 10 8 10 11 0 2-4 4-10 4-5 0-10-5-10-11z"/><path d="m2960 7718c0-15 13-38 22-38 5 0 18 10 28 23l18 22 12-30c13-34 6-74-17-90-11-8-13-20-8-43 8-38 9-38 35-12l21 21-26-7c-35-9-33 16 4 37 27 16 29 21 29 73l-1 56-58-2c-33-2-59-6-59-10z"/><path d="m3393 7717c2-7 14-14 26-15 28-4 20 13-9 21-14 3-20 1-17-6z"/><path d="m3105 7710c-4-6-1-10 4-10 6 0 11-6 11-14 0-19 17-29 22-13 6 15-29 50-37 37z"/><path d="m2920 7693c0-12-7-26-15-31-14-7-14-12 1-40 10-21 13-43 10-60l-7-27 25 30c25 31 25 45 0 45-18 0-19 37-1 42 11 2 12 8 1 33-11 26-13 27-14 8z"/><path d="m3166 7695c4-8 11-15 16-15 6 0 5 6-2 15-7 8-14 15-16 15s-1-7 2-15z"/><path d="m3218 7703c6-2 18-2 25 0 6 3 1 5-13 5s-19-2-12-5z"/><path d="m3020 7670c0-5 5-10 10-10 6 0 10 5 10 10 0 6-4 10-10 10-5 0-10-4-10-10z"/><path d="m2986 7651c-4-5-3-17 0-26 5-13 8-14 15-3 5 7 9 19 9 26 0 14-16 16-24 3z"/><path d="m3216 7639c15-17 20-18 29-6 5 7 17 16 25 20 8 3-5 6-29 6-44 1-44 1-25-20z"/><path d="m3360 7640c0-5 5-10 10-10 6 0 10 5 10 10 0 6-4 10-10 10-5 0-10-4-10-10z"/><path d="m3118 7622c-5-16 1-19 34-20 25-1 37 2 33 9-4 6-9 8-12 5s-12 1-20 9c-19 20-30 19-35-3z"/><path d="m3098 7583c6-2 12-11 12-19s5-14 10-14c6 0 10 4 10 8 0 12-22 32-34 31-6 0-5-3 2-6z"/><path d="m3228 7583c7-3 16-2 19 1 4 3-2 6-13 5-11 0-14-3-6-6z"/><path d="m3150 7535c-14-16-3-20 19-6 8 5 9 11 3 15-5 3-15-1-22-9z"/><path d="m3068 7526c-19-14-24-36-9-36 5 0 11 6 14 13 3 8 9 6 20-8 21-27 30-15 14 18-14 31-16 31-39 13z"/><path d="m3126 7472c-2-4-1-14 4-22 7-11 12-12 21-3 6 6 8 16 5 22-8 13-23 14-30 3z"/></g></svg>