<!-- Generated by IcoMoon.io -->
<svg version="1.1" xmlns="http://www.w3.org/2000/svg" width="1200" height="1200" viewBox="0 0 1200 1200">
<title>type-dark-alt</title>
<path d="M1012.867 266.64c-7.348 2.668-10.079 4.774-39.676 30.602-8.606 7.508-20.971 16.452-27.469 19.873-6.505 3.421-15.795 9.055-20.653 12.527-17.767 12.696-55.277 30.2-77.238 36.048-40.189 10.699-46.954 24.629-32.904 67.734 21.596 66.259 20.762 172.88-1.924 244.459-4.274 13.489-9.566 30.25-11.759 37.252-2.193 6.995-6.919 17.589-10.495 23.545-3.581 5.948-8.936 15.675-11.909 21.615-56.691 113.212-181.692 155.375-274.893 92.704-31.443-21.142-66.745-60.37-82.536-91.725-3.805-7.555-9.824-18.593-13.382-24.529s-8.827-18.739-11.72-28.452c-2.897-9.712-8.19-26.931-11.773-38.263-19.659-62.153-20.068-171.17-0.874-232.69 15.28-48.981 9.544-60.898-34.989-72.667-17.43-4.607-61.897-25.431-71.156-33.316-1.655-1.405-11.093-7.236-20.988-12.952-10.566-6.103-25.373-17.183-35.916-26.871-37.097-34.097-51.853-32.657-78.444 7.656-4.628 7.016-11.234 16.283-14.686 20.604-29.183 36.513-55.232 94.764-75.901 169.721-9.541 34.6-5.614 115.745 7.226 149.258 3.544 9.247 7.481 22.048 8.748 28.452 14.15 71.46 116.177 203.859 205.535 266.716 65.15 45.824 93.301 60.863 147.725 78.895 11.332 3.752 28.843 9.859 38.92 13.574 37.227 13.72 124.765 21.971 177.895 16.767 56.876-5.568 85.023-10.069 99.843-15.955 7.943-3.155 21.836-7.887 30.872-10.52 36.252-10.552 108.799-45.625 130.241-62.958 4.316-3.486 19.316-14.21 33.33-23.828 83.82-57.519 179.554-183.382 200.361-263.425 2.609-10.044 6.935-23.461 9.612-29.811 14.077-33.461 15.585-123.352 2.691-160.545-2.122-6.128-6.896-21.436-10.611-34.035-14.123-47.93-61.604-131.673-93.913-165.64-11.223-11.797-16.487-13.699-27.186-9.821zM555.217 409.487c-19.897 6.949-27.724 23.803-40.396 86.904-13.322 66.379 0.511 156.207 30.868 200.489 39.878 58.164 85.559 49.842 121.942-22.205 10.615-21.012 21.891-83.065 21.947-120.746 0.095-65.598-18.18-131.057-39.559-141.714-11.198-5.582-80.904-7.59-94.801-2.728z"></path>
</svg>
