<!-- Generated by IcoMoon.io -->
<svg version="1.1" xmlns="http://www.w3.org/2000/svg" width="1200" height="1200" viewBox="0 0 1200 1200">
<title>type-fighting-sw</title>
<path d="M244.037 1012.343h-78.002l-89.317-223.587c-7.486-18.25-11.831-39.431-11.831-61.629s4.345-43.379 12.232-62.741l-0.401 1.112 89.317-223.291h78.002zM1135.113 995.966c0 9.043-7.331 16.375-16.375 16.375v0h-744.299c-35.188 0-63.713-28.525-63.713-63.713v0-393.885c0.093-5.258 1.068-10.259 2.781-14.902l-0.102 0.314c-1.695-3.976-2.679-8.602-2.679-13.459 0-0.083 0-0.166 0.002-0.25v0.013-297.721c0-22.691 18.394-41.085 41.085-41.085v0h76.513c21.911 0.979 39.305 18.983 39.305 41.045 0 0.223-0.002 0.445-0.006 0.667v-0.033 261.696c0 9.043 7.331 16.375 16.375 16.375h29.773c9.043 0 16.375-7.331 16.375-16.375v0-261.696c0-22.691 18.394-41.085 41.085-41.085v0h78.002c22.691 0 41.085 18.394 41.085 41.085v0 261.696c0 9.043 7.331 16.375 16.375 16.375v0h29.773c9.043 0 16.375-7.331 16.375-16.375v0-261.696c0-0.006 0-0.011 0-0.016 0-22.691 18.394-41.085 41.085-41.085 0.417 0 0.837 0.007 1.25 0.019l-0.061-0.002h76.513c0.443-0.016 0.964-0.028 1.489-0.028 22.691 0 41.085 18.394 41.085 41.085 0 0.009 0 0.019 0 0.029v-0.002 261.696c0 9.043 7.331 16.375 16.375 16.375v0h29.773c9.043 0 16.375-7.331 16.375-16.375v0-261.696c0-22.691 18.394-41.085 41.085-41.085h75.025c22.691 0 41.085 18.394 41.085 41.085v0z"></path>
</svg>
