<!-- Generated by IcoMoon.io -->
<svg version="1.1" xmlns="http://www.w3.org/2000/svg" width="1200" height="1200" viewBox="0 0 1200 1200">
<title>type-bug-sw</title>
<path d="M928.241 316.676c109.373 93.382 178.268 231.396 178.268 385.499 0 193.321-108.425 361.318-267.783 446.498l-2.718 1.328c-127.249-92.917-208.985-241.576-208.985-409.328 0-88.683 22.845-172.032 62.97-244.481l-1.317 2.591c103.725-25.555 188.658-91.712 238.595-180.234l0.969-1.87zM346.564 95.967l47.442-45.968 147.334 149.104h28.289c10.018 0 20.039 0 29.467 0v0c10.312 0 20.331 0 29.467 0h28.289l149.104-149.104 45.968 45.968-117.868 117.868c50.631 14.412 94.876 34.526 135.267 60.166l-2.077-1.232c-52.68 96.387-153.348 160.673-269.034 160.673s-216.354-64.286-268.234-159.082l-0.798-1.591c38.314-24.407 82.559-44.523 129.591-58.048l3.598-0.887zM272.307 316.676c50.907 90.395 135.841 156.552 236.994 181.567l2.57 0.537c38.807 69.857 61.651 153.205 61.651 241.891 0 167.752-81.736 316.413-207.554 408.333l-1.431 0.996c-162.379-86.415-271.049-254.573-271.049-448.112 0-153.95 68.757-291.837 177.24-384.634l0.693-0.579z"></path>
</svg>
