<!-- Generated by IcoMoon.io -->
<svg version="1.1" xmlns="http://www.w3.org/2000/svg" width="1200" height="1200" viewBox="0 0 1200 1200">
<title>type-dark-sw</title>
<path d="M600 49.999c-303.757 0-550.001 246.244-550.001 550.001s246.244 550.001 550.001 550.001c303.757 0 550.001-246.244 550.001-550.001v0c0-303.757-246.244-550.001-550.001-550.001v0zM600 1041.69c-0.114 0-0.247 0-0.381 0-50.3 0-98.611-8.507-143.578-24.159l3.063 0.928c179.811-57.396 307.752-222.987 307.752-418.458s-127.939-361.061-304.645-417.6l-3.105-0.859c41.902-14.726 90.214-23.232 140.514-23.232 0.134 0 0.27 0 0.401 0h-0.020c243.938 0 441.69 197.753 441.69 441.69s-197.753 441.69-441.69 441.69v0z"></path>
</svg>
