<!-- Generated by IcoMoon.io -->
<svg version="1.1" xmlns="http://www.w3.org/2000/svg" width="1200" height="1200" viewBox="0 0 1200 1200">
<title>type-flying-alt</title>
<path d="M1024.944 112.93c-126.123 42.948-249.748 93.9-378.877 123.046-84.552 19.086-200.198 22.097-262.731 89.045-38.332 41.041-63.548 91.782-84.635 142.903-36.894 89.443-64.774 183.301-88.151 277.116-22.883 91.816-45.716 184.984-53.081 279.608-1.792 23.025-3.095 46.318-0.613 69.279 0.704 6.524 3.989 14.223 9.941 16.997 5.816 2.702 19.296 3.401 23.808-1.159 31.147-31.479 55.226-65.973 79.976-102.689 24.417-36.214 65.229-110.627 91.051-124.945 16.356-9.067 78.113-10.591 93.588-12.482 89.981-10.95 149.895-17.602 242.232-72.178 25.707-15.188 57.218-34.359 68.666-62.282 2.398-5.85-5.019-12.983-10.117-13.003-12.543-0.061-24.989 2.225-37.404 4.030-99.532 14.476-101.589 24.518-201.823 23.239-5.83-0.075-33.251-2.256-38.914-3.638-18.504-4.512-9.697-8.156 1.914-12.827 11.371-4.576 45.922-12.577 58.044-14.381 43.666-6.496 42.755-5.22 83.128-16.922 90.878-26.338 168.168-66.287 242.999-124.901 17.334-13.582 42.087-38.68 53.875-55.772 3.195-4.63 22.254-27.78 10.228-38.415-17.501-15.485-60.987 9.203-78.125 15.493-65.53 24.059-132.204 41.468-202.035 48.657-21.68 2.239-110.449 9.016-92.193-2.897 26.632-17.382 108.538-41.85 138.473-53.685 93.402-36.922 182.793-93.117 254.483-163.413 39.070-38.314 77.229-84.967 104.118-132.892 8.098-14.432 48.916-84.121 0.68-84.602-9.579-0.091-19.123 1.713-28.502 3.657z"></path>
</svg>
