<!-- Generated by IcoMoon.io -->
<svg version="1.1" xmlns="http://www.w3.org/2000/svg" width="1200" height="1200" viewBox="0 0 1200 1200">
<title>type-water-alt</title>
<path d="M598.922 79.862c-2.177 0.114-4.534 0.621-7.532 1.493-11.505 3.335-27.109 28.612-31.845 51.594-1.345 6.534-9.802 42.537-13.813 55.136-4.011 12.595-15.258 57.84-17.98 65.302-2.73 7.465-6.888 21.111-9.232 30.32-2.352 9.217-16.982 44.747-20.348 54.827-6.026 18.040-48.149 99.187-52.685 106.793-4.54 7.605-12.838 21.93-18.434 31.856-13.502 23.917-35.161 60.512-39.4 66.537-16.364 23.289-45.936 77.678-64.513 117.374-23.070 43.596-36.148 93.315-36.148 146.055 0 172.755 140.251 313.007 313.007 313.007s313.007-140.251 313.007-313.007c0-54.162-13.78-105.125-38.032-149.577-9.837-22.631-23.849-48.359-43.073-80.174-35.549-58.837-50.196-83.562-61.331-103.466-6.064-10.84-13.942-24.345-17.495-30.011-3.554-5.662-45.514-86.523-52.243-106.030-3.721-10.793-17.298-44.218-20.047-54.304s-6.927-23.396-9.271-29.6c-2.344-6.204-14.659-56.701-18.762-69.296-4.099-12.599-9.107-31.684-11.116-42.412-5.476-29.19-18.318-53.672-31.207-59.529-4.76-2.161-7.881-3.071-11.507-2.88zM822.945 847.475c2.742-0.183 5.104 0.491 7.020 2.407 7.004 7.008-3.268 48.96-14.173 65.212-8.596 12.813-38.658 56.189-77.45 77.2-7.928 4.302-35.482 21.864-61.445 28.971-23.558 6.448-57.285 8.7-94.624 8.295-51.898-0.565-107.719-29.766-117.185-34.944-37.758-20.613-60.893-43.486-77.842-76.946-13.049-25.764-22.24-58.636-17.242-66.612 4.584-7.318 21.963 3.554 41.448 11.836 8.584 3.645 20.562 7.888 26.626 9.416s17.603 5.399 25.637 8.603c27.42 10.956 79.945 17.753 137.143 17.753 32.135 0 49.426-0.712 58.841-2.427 7.334-1.334 55.581-2.872 130.042-34.315 13.341-5.63 24.983-13.909 33.204-14.462z"></path>
</svg>
