<!-- Generated by IcoMoon.io -->
<svg version="1.1" xmlns="http://www.w3.org/2000/svg" width="1200" height="1200" viewBox="0 0 1200 1200">
<title>type-dark</title>
<path d="M1015.208 258.416c0 0-62.473 84.772-207.22 129.56 16.146 43.826 25.373 94.768 25.373 151.857 0 195.11-105.725 353.503-236.053 353.503s-236.053-139.747-236.053-353.503c0-56.707 11.148-107.261 29.218-150.704-147.436-44.597-211.065-130.713-211.065-130.713s-144.939 154.549-131.29 330.436c8.074 102.457 63.435 222.981 198.955 334.089 0 0 144.939 128.021 350.235 128.021s350.235-128.021 350.235-128.021c135.52-111.104 190.88-231.441 198.955-334.089 13.84-175.887-131.29-330.436-131.29-330.436z"></path>
<path d="M543.102 414.504c-18.452 38.446-30.371 93.997-30.371 148.398 0 97.65 37.869 176.654 84.387 176.654s84.387-79.199 84.387-176.654c0-54.592-11.725-110.147-30.371-148.398-17.299 0.768-35.37 0.962-54.015 0.386-18.647 0.577-36.717 0.386-54.015-0.386z"></path>
</svg>
