<!-- Generated by IcoMoon.io -->
<svg version="1.1" xmlns="http://www.w3.org/2000/svg" width="1200" height="1200" viewBox="0 0 1200 1200">
<title>type-poison</title>
<path d="M759.627 916.478c-9.537-81.157-78.382-144.105-162.142-144.105s-152.603 62.948-162.142 144.105c-199.598 14.568-343.357 55.146-343.357 102.833 0 60.002 226.303 108.555 505.499 108.555s505.499-48.555 505.499-108.555c0-47.862-143.759-88.266-343.357-102.833z"></path>
<path d="M617.602 335.025c0 107.266-86.957 194.221-194.221 194.221s-194.221-86.957-194.221-194.221c0-107.266 86.957-194.221 194.221-194.221s194.221 86.957 194.221 194.221z"></path>
<path d="M936.854 583.873c0 63.594-51.552 115.145-115.145 115.145s-115.145-51.552-115.145-115.145c0-63.594 51.552-115.145 115.145-115.145s115.145 51.552 115.145 115.145z"></path>
</svg>
