<!-- Generated by IcoMoon.io -->
<svg version="1.1" xmlns="http://www.w3.org/2000/svg" width="1200" height="1200" viewBox="0 0 1200 1200">
<title>type-electric</title>
<path d="M591.32 83.092c40.946 18.673 210.301 98.926 324.952 200.147 5.078 4.423 5.569 12.284 1.146 17.361-25.386 29.482-109.080 126.934-209.973 245.516-4.423 5.242-3.932 13.103 1.146 17.689 29.482 26.043 122.511 109.573 178.691 170.828 4.587 4.914 4.259 12.612-0.655 17.361-48.809 47.006-290.393 279.42-384.079 359.837-4.914 4.259-12.448-0.328-10.973-6.715 12.12-49.464 45.86-180.984 81.73-276.634 1.965-5.078 0.328-10.809-4.095-14.086-35.214-26.861-189.336-145.113-290.556-235.852-4.192-3.75-5.29-9.941-2.62-14.905 22.275-42.913 127.753-241.093 300.055-476.126 3.439-4.751 9.827-6.551 15.068-4.095l0.164-0.328z"></path>
</svg>
