<!-- Generated by IcoMoon.io -->
<svg version="1.1" xmlns="http://www.w3.org/2000/svg" width="1200" height="1200" viewBox="0 0 1200 1200">
<title>type-fire-sw</title>
<path d="M603.894 673.876c-86.207 0-156.093 69.885-156.093 156.093v0c0 18.986 13.446 158.202 177.976 197.753 136.58 33.223 319.303-49.044 352.262-79.102-79.35 121.907-214.962 201.381-369.136 201.381-242.343 0-438.824-196.365-439.010-438.666v-0.015c-0.089-3.004-0.138-6.536-0.138-10.083 0-93.032 34.414-178.024 91.207-242.944l-0.368 0.429s-34.014 136.317 40.341 239.675c0 0-56.425-286.608 170.329-403.941 78.396-37.399 131.644-115.95 131.834-206.955v-0.026c-0.096-12.83-1.245-25.32-3.36-37.477l0.195 1.354c82.256 35.992 138.69 116.668 138.69 210.525 0 0.144 0 0.288 0 0.432v-0.022c0 9.756-1.845 29.004-1.845 29.004-71.298 1.942-128.355 60.203-128.355 131.788 0 72.81 59.025 131.834 131.834 131.834s131.834-59.025 131.834-131.834c0-31.809-11.266-60.988-30.025-83.764l0.18 0.226c83.897 53.25 147.538 131.895 180.712 224.999l0.956 3.076c4.025 19.835 6.329 42.633 6.329 65.97 0 0.26 0 0.52-0.001 0.78v-0.040c-0.149 194.013-157.236 351.284-351.164 351.735h-0.042c-15.455-0.022-30.641-1.076-45.52-3.095l1.752 0.193c72.381-14.527 126.143-77.58 126.143-153.192 0-86.207-69.885-156.093-156.093-156.093-0.131 0-0.264 0-0.395 0h0.020z"></path>
</svg>
