<!-- Generated by IcoMoon.io -->
<svg version="1.1" xmlns="http://www.w3.org/2000/svg" width="1200" height="1200" viewBox="0 0 1200 1200">
<title>type-dragon-alt</title>
<path d="M477.073 73.416c-9.785 4.972-13.814 11.353-18.184 28.788-1.973 7.859-15.804 48.57-18.57 59.845-2.773 11.284-6.92 26.793-9.219 34.473-2.297 7.678-6.401 24.635-9.113 37.68-2.712 13.042-7.226 29.933-10.029 37.527-3.284 8.912-6.889 24.916-10.146 45.077-7.254 44.857-11.37 56.798-27.492 79.757-11.634 16.57-25.943 42.081-31.925 56.916-3.094 7.675-7.464 17.583-9.711 22.014-19.472 38.43-18.265 168.594 2.010 216.866 3.509 8.35 7.747 18.945 9.428 23.543s6.237 14.38 10.136 21.737c3.896 7.357 7.962 16.161 9.043 19.573 1.073 3.408 6.608 12.594 12.295 20.408s14.948 20.827 20.572 28.914c5.624 8.082 18.795 24.335 29.257 36.109 34.888 39.253 32.491 33.314 35.775 88.493 1.327 22.311 2.809 44.333 3.291 48.93 9.28 88.59 11.905 98.743 31.020 120.032 54.705 60.926 184.246 50.81 220.508-17.215 9.852-18.485 17.205-70.41 21.893-154.646 2.477-44.556 3.578-48.619 17.412-64.479 5.955-6.836 17.633-20.238 25.945-29.789 8.31-9.551 20.52-25.351 27.127-35.109s14.536-20.868 17.616-24.673c3.080-3.81 7.43-11.602 9.668-17.309 2.241-5.708 7.003-15.759 10.584-22.331 3.585-6.571 7.48-14.963 8.661-18.636s4.936-13.082 8.346-20.9c2.899-6.645 5.822-16.877 8.461-28.822 5.618-25.468 9.932-58.736 9.932-81.722 0-25.856-7.859-90.875-12.246-101.346-14.182-33.818-19.371-44.891-28.287-60.374-5.501-9.547-13.209-21.974-17.128-27.615-16.37-23.552-21.526-40.002-29.298-93.459-1.037-7.14-4.481-20.684-7.655-30.093-3.177-9.414-7.709-26.522-10.079-38.016s-6.908-29.925-10.085-40.961c-3.177-11.036-7.571-27.585-9.755-36.78s-14.37-43.065-16.771-52.091c-4.916-18.469-8.474-25.252-15.322-29.223-17.907-10.38-24.97-3.695-32.299 30.568-1.895 8.868-22.509 99.095-25.191 109.433-2.689 10.339-6.089 26.572-7.571 36.069-5.775 37.193-4.813 36.608-60.661 36.608-55.28 0-54.238 0.596-59.644-33.779-1.502-9.534-5.264-27.492-8.364-39.905-3.096-12.412-25.232-107.544-26.759-115.364-5.13-26.221-12.125-32.517-27.475-24.716zM156.282 374.625c-4.972 3.48-24.934 51.783-28.816 61.698-1.879 4.802-17.215 43.065-20.007 53.733-2.789 10.668-6.922 24.312-9.183 30.321-15.492 41.164-18.544 176.215-4.852 214.946 1.424 4.032 5.632 17.866 9.343 30.742s9.755 29.802 13.433 37.617c3.679 7.814 8.584 19.402 10.902 25.745 4.384 12.022 17.549 34.564 30.558 52.317 4.17 5.699 13.608 19.188 20.96 29.989 17.767 26.087 29.989 51.155 40.139 50.536 9.604-0.585 17.245-25.474 29.766-49.917 24.716-48.245 36.497-68.016 55.238-92.693 6.724-8.859 10.133-15.65 10.046-23.903-0.089-8.995-4.328-19.731-12.925-36.764-5.925-11.745-12.028-25.804-13.561-31.24-1.535-5.438-4.966-15.373-7.628-22.075-2.661-6.705-7.424-22.726-10.581-35.607-6.718-27.411-11.895-37.166-30.12-56.735-46.794-50.258-68.709-95.647-70.529-166.608-1.321-51.66-3.468-78.204-12.178-72.101zM1035.858 378.261c-2.224 2.358-3.796 20.65-3.81 21.339-1.237 59.575-5.535 99.807-17.998 129.894-13.996 33.788-29.407 57.261-58.983 89.811-14.045 15.459-20.439 28.378-25.622 51.723-2.273 10.253-6.705 25.302-9.845 33.437-3.141 8.133-7.009 19.279-8.598 24.756-1.588 5.484-7.898 20.071-14.029 32.425-14.673 29.599-15.386 39.369-3.986 54.886 21.662 29.484 39.968 59.845 55.642 92.297 13.346 27.628 21.93 50.125 32.926 49.806 8.825-0.254 19.823-18.502 31.411-35.844 12.404-18.563 28.077-41.132 32.831-47.282 6.906-8.926 22.811-36.521 24.916-43.229 1.037-3.308 5.507-13.915 9.932-23.569 4.429-9.654 11.939-30.334 16.69-45.947 4.754-15.618 8.968-28.916 9.367-29.555 3.81-6.17 9.969-89.595 8.31-112.588-3.664-50.854-7.731-80.111-13.553-97.5-3.211-9.601-7.705-24.803-9.98-33.788-2.277-8.982-5.741-19.984-7.705-24.449-1.956-4.461-6.473-15.185-10.036-23.834-3.561-8.645-22.075-50.946-24.178-54.408-5.334-8.768-8.143-13.090-10.587-12.006-0.37 0.164-3.124 3.632-3.124 3.632zM380.695 547.848c2.631-0.809 15.425 29.371 19.951 38.16 10.584 20.55 16.821 29.585 20.522 37.112 8.089 16.445 24.934 42.536 29.919 49.187 2.123 2.829 5.923 9.286 8.445 14.346 2.514 5.055 23.466 36.307 27.094 41.363 27.316 38.082 37.282 51.091 30.056 58.086-5.618 5.44-36.139-7.025-64.705-23.278-45.877-26.101-59.561-30.912-63.473-41.73-4.521-12.51-8.712-70.448-10.702-99.78-1.405-20.659 0.251-72.653 2.892-73.466zM824.927 627.026c-0.532 9.98-2.873 41.66-5.367 55.555-2.923 16.262-9.598 35.872-14.396 44.309-4.9 8.625-29.201 19.402-52.579 33.664-26.358 16.075-59.836 28.682-67.196 25.549-9.755-4.16 12.059-34.59 35.588-70.54 9.755-14.902 20.054-31.076 22.894-35.945 2.831-4.866 11.003-18.251 18.145-29.749s14.77-24.404 16.948-28.688c6.635-13.056 36.625-75.977 40.738-73.332 6.471 4.164 5.702 70.189 5.223 79.177z"></path>
</svg>
