<!-- Generated by IcoMoon.io -->
<svg version="1.1" xmlns="http://www.w3.org/2000/svg" width="1200" height="1200" viewBox="0 0 1200 1200">
<title>type-poison-alt</title>
<path d="M575.52 744.779c-56.662 9.432-102.473 47.95-125.611 105.599-16.943 42.223-13.7 40.651-103.836 50.123-51.959 5.455-60.536 6.894-112.357 18.857-10.056 2.323-23.777 5.196-30.487 6.391-31.61 5.619-87.841 33.605-96.87 48.209-17.278 27.954 12.13 60.26 70.743 77.709 12.454 3.705 27.742 8.249 33.968 10.099 6.227 1.842 25.039 5.379 41.802 7.846 16.766 2.47 40.676 6.698 53.129 9.412 26.011 5.66 62.698 9.577 114.807 12.266 20.027 1.035 44.324 2.613 53.996 3.505 50.639 4.689 195.462 3.769 278.012-1.763 14.852-1 39.872-2.646 55.6-3.661 39.232-2.538 66.37-5.895 89.48-11.071 10.747-2.411 33.48-6.375 50.515-8.809 19.009-2.718 37.514-6.531 47.905-9.865 9.308-2.989 23.426-7.222 31.366-9.412 45.343-12.498 76.779-42.853 69.92-67.538-5.787-20.863-55.907-47.721-109.615-58.748-12.934-2.654-36.059-7.594-51.387-10.979-30.335-6.698-34.344-7.27-105.963-15.076-65.295-7.123-65.747-7.39-81.67-48.529-27.994-72.321-101.379-116.562-173.456-104.559zM813.652 449.389c63.984 0 115.927 51.946 115.927 115.93s-51.942 115.927-115.927 115.927c-63.984 0-115.93-51.942-115.93-115.927s51.946-115.93 115.93-115.93zM425.552 126.054c105.243 0 190.69 85.443 190.69 190.69 0 105.239-85.443 190.682-190.69 190.682-105.239 0-190.682-85.443-190.682-190.682 0-105.243 85.443-190.69 190.682-190.69z"></path>
</svg>
