<!-- Generated by IcoMoon.io -->
<svg version="1.1" xmlns="http://www.w3.org/2000/svg" width="1200" height="1200" viewBox="0 0 1200 1200">
<title>type-flying</title>
<path d="M358.234 422.618c-31.862 72.759-123.182 379.73-144.698 544.466-11.004 83.599-21.516 112.671 0 119.077 27.265 8.211 142.070-169.335 182.967-237.66 0 0 261.475 39.254 395.661-127.945 3.121-3.942-0.328-9.69-5.256-8.705-52.887 9.033-243.244 38.433-327.5 5.749 0 0 343.104 13.304 498.97-240.945 2.135-3.285-1.314-7.555-4.928-6.241-54.036 19.545-287.425 96.246-427.195 60.113 0 0 227.148-13.304 398.781-169.335s185.759-234.867 173.44-247.185c-23.323-23.323-142.070 35.476-237.66 65.534s-215.815 65.534-294.981 81.957c-79.166 16.425-144.698 17.739-207.604 161.122z"></path>
</svg>
