<!-- Generated by IcoMoon.io -->
<svg version="1.1" xmlns="http://www.w3.org/2000/svg" width="1200" height="1200" viewBox="0 0 1200 1200">
<title>type-dragon</title>
<path d="M173.419 362.775c-137.401 180.533-118.123 438.018 49.341 595.842 17.809-58.816 51.301-113.548 99.661-156.844-37.201-49.978-60.025-109.202-66.005-171.22-83.812-64.044-114.366-172.527-82.996-267.941v0.163zM1021.679 362.775c31.369 95.413 0.817 203.897-82.996 267.941-6.209 63.391-29.735 122.044-66.005 171.22 48.36 43.296 81.852 97.863 99.661 156.844 167.463-157.659 186.742-415.308 49.341-595.842v-0.163zM810.104 384.504c-18.299-121.063-59.306-256.995-79.893-320.875-3.594-11.109-20.585-10.782-23.527 0.49-19.114 69.926-42.479 181.187-52.935 231.998-17.482-3.268-37.413-5.229-55.876-5.229s-38.394 1.798-55.876 5.229c-10.455-50.811-33.819-161.907-52.935-231.998-3.104-11.273-19.931-11.763-23.527-0.49-20.585 63.881-61.757 199.649-79.893 320.875-43.623 48.85-70.253 113.222-70.253 185.107 0 103.746 55.059 226.28 137.074 297.512l22.546 200.466c0 29.408 55.059 72.049 123.023 72.049s123.023-42.806 123.023-72.049l22.546-200.466c82.015-71.232 137.074-193.767 137.074-297.512 0-71.886-26.631-136.257-70.253-185.107h-0.327zM458.024 768.607c-48.687-15.032-82.669-58.979-84.139-109.954-1.961-59.96 1.144-124.004 1.144-124.004l150.308 251.767c-26.304-6.046-48.524-12.090-67.313-17.809zM737.401 768.607c-18.626 5.719-41.009 11.926-67.313 17.809l150.308-251.767c0 0 3.104 64.044 1.144 124.004-1.65 50.746-35.584 95.104-84.139 109.954z"></path>
</svg>
