<!-- Generated by IcoMoon.io -->
<svg version="1.1" xmlns="http://www.w3.org/2000/svg" width="1200" height="1200" viewBox="0 0 1200 1200">
<title>type-ghost</title>
<path d="M1057.761 582.896c-42.757-10.121-78.011 8.375-100.348 25.828 8.55-35.95 13.439-71.379 13.439-105.061 0-206.282-167.189-373.47-373.47-373.47s-373.47 167.189-373.47 373.47c0 33.682 4.887 69.109 13.439 105.061-22.338-17.278-57.765-35.95-100.348-25.828-61.256 14.484-111.691 102.616-114.659 178.707-0.524 15.707 18.675 23.735 29.146 12.042 16.929-19.022 39.093-38.569 54.45-32.112 50.262 21.291 54.101 110.297 102.442 110.297 42.408 0 78.881-42.408 96.683-67.365 81.326 153.403 206.631 280.276 292.144 280.276s210.643-126.702 292.144-280.276c17.802 24.955 54.275 67.365 96.683 67.365 48.341 0 52.18-89.003 102.442-110.297 15.357-6.458 37.521 12.915 54.45 32.112 10.471 11.693 29.842 3.664 29.146-12.042-2.966-76.090-53.402-164.223-114.659-178.707h0.349zM506.457 535.079c-31.064 14.484-78.183-20.592-105.233-78.532s-23.561-116.577 7.505-131.064c31.064-14.484 78.183 20.592 105.233 78.532s23.735 116.577-7.505 131.064zM793.541 456.547c-27.050 57.94-74.169 93.019-105.233 78.532s-34.555-73.297-7.505-131.064c27.050-57.94 74.169-93.019 105.233-78.532s34.555 73.297 7.505 131.064z"></path>
</svg>
