<!-- Generated by IcoMoon.io -->
<svg version="1.1" xmlns="http://www.w3.org/2000/svg" width="1200" height="1200" viewBox="0 0 1200 1200">
<title>type-rock-alt</title>
<path d="M397.147 110.266l-286.881 286.881v405.701l141.257 141.268c-4.938-14.070-40.495-115.931-52.4-163.448-13.774-55.015-30.271-171.327-30.271-171.327s111.429 147.698 184.648 219.479c73.219 71.781 209.97 194.288 209.97 194.288s-115.955-16.787-170.934-30.545c-44.318-11.085-126.025-41.441-138.751-46.202l143.368 143.368h405.701l286.881-286.881v-405.701l-145.455-145.468 40.123 199.705c0 0-66.148-88.227-113.086-135.164-45.268-45.272-131.985-103.057-131.985-103.057l204.015 37.575-140.482-140.475h-405.701zM1023.807 609.459c0 0-15.009 120.967-27.884 178.175-11.277 50.106-49.951 158.425-49.951 158.425s-99.703 34.464-149.585 47.215c-53.698 13.723-167.197 29.721-167.197 29.721s148.59-118.618 218.066-194.175c69.476-75.555 176.551-219.366 176.551-219.366z"></path>
</svg>
