<!-- Generated by IcoMoon.io -->
<svg version="1.1" xmlns="http://www.w3.org/2000/svg" width="1200" height="1200" viewBox="0 0 1200 1200">
<title>type-fire</title>
<path d="M871.289 594.364c-91.665-88.734-63.062-157.484-20.849-194.012 0 0-112.515-13.613-152.489 78.053-40.146 91.665 37.218 138.877 37.218 138.877s-111.652-44.455-80.292-153.349c27.742-95.8 78.742-146.113 55.826-247.771-25.845-114.926-189.015-163.515-267.932-133.362 55.137 18.608 94.938 70.472 94.938 131.984 0 71.678-56.687 119.232-132.845 196.252-88.045 88.734-177.817 189.015-177.817 349.946 0 185.742 114.581 300.668 251.905 342.364-69.611-33.253-214.518-137.671-196.424-338.575 18.953-211.931 222.098-356.666 222.098-356.666s-43.766 73.399-24.639 192.291c10.682 66.854 58.584 149.041 104.242 184.709 64.096 50.139 148.869 102.175 136.637 197.285-11.543 89.251-130.089 129.227-189.877 132.845 27.225 4.481 54.964 6.376 82.362 5.515 203.489 0 354.599-151.283 354.599-312.211 0-127.33-60.995-179.711-96.833-214.173h0.172z"></path>
</svg>
