<?xml version="1.0" standalone="no"?>
<!DOCTYPE svg PUBLIC "-//W3C//DTD SVG 20010904//EN"
 "http://www.w3.org/TR/2001/REC-SVG-20010904/DTD/svg10.dtd">
<svg version="1.0" xmlns="http://www.w3.org/2000/svg"
 width="700.000000pt" height="700.000000pt" viewBox="0 0 700.000000 700.000000"
 preserveAspectRatio="xMidYMid meet">
<metadata>
Created by potrace 1.14, written by Peter Selinger 2001-2017
</metadata>
<g transform="translate(0.000000,700.000000) scale(0.100000,-0.100000)"
fill="#000000" stroke="none">
<path d="M3846 6754 c-52 -19 -101 -57 -132 -103 -73 -112 -163 -407 -209
-693 l-6 -38 -77 62 c-204 162 -459 286 -740 359 -155 40 -240 38 -304 -7 -63
-44 -93 -103 -92 -184 1 -58 9 -84 72 -230 39 -90 70 -165 69 -166 -1 -1 -42
9 -92 22 -222 59 -526 76 -730 40 -505 -90 -910 -414 -1151 -921 -62 -131 -94
-230 -94 -293 0 -35 12 -71 49 -147 27 -55 60 -111 73 -125 21 -21 23 -32 20
-77 l-4 -53 -62 0 c-69 0 -100 -19 -112 -67 -14 -56 37 -103 114 -103 l42 0 0
-65 c0 -51 4 -69 20 -85 65 -65 150 -11 150 95 l0 35 63 0 c53 0 67 4 84 23
64 69 14 147 -93 147 -34 0 -34 1 -34 45 0 34 4 45 15 45 46 0 118 58 180 145
15 22 48 61 73 87 l45 47 49 -44 c74 -67 134 -76 260 -39 13 4 2 -19 -33 -75
-48 -76 -54 -81 -86 -81 -23 0 -41 -7 -54 -22 -11 -13 -66 -134 -122 -269 -56
-135 -108 -253 -115 -261 -7 -9 -124 -43 -284 -84 -296 -73 -318 -83 -318
-145 0 -17 10 -43 23 -59 12 -15 27 -35 32 -44 6 -9 120 -62 255 -117 135 -56
250 -107 257 -113 11 -11 119 -442 144 -576 17 -86 44 -114 104 -108 l43 5 46
-109 c25 -59 46 -112 46 -116 0 -5 -17 -16 -37 -26 -21 -10 -101 -57 -178
-104 -161 -100 -251 -182 -313 -287 -67 -115 -86 -183 -86 -310 -1 -133 9
-164 107 -360 65 -129 78 -147 161 -230 103 -103 200 -159 301 -175 78 -13
288 -13 355 0 81 15 177 66 390 207 l195 129 1 -165 c1 -150 3 -175 28 -255
15 -49 57 -148 93 -220 57 -111 78 -142 142 -207 119 -120 242 -169 427 -169
147 0 369 57 523 134 86 44 237 145 340 229 88 71 356 338 616 611 169 178
180 187 188 165 36 -90 131 -274 168 -322 80 -108 220 -193 363 -224 94 -20
264 -12 366 17 179 51 379 178 559 358 121 121 202 226 318 412 124 198 173
319 173 429 0 48 -8 72 -56 169 -31 62 -67 120 -79 128 -22 15 -22 15 56 95
167 171 304 366 410 584 153 317 218 607 206 925 -8 229 -49 404 -135 570 -41
81 -55 99 -95 124 -94 58 -211 44 -281 -34 l-36 -40 -74 148 c-85 167 -182
318 -349 541 -136 183 -192 283 -213 381 -16 78 -13 112 18 208 27 86 22 172
-14 227 -15 22 -30 52 -33 67 -9 37 -70 105 -115 128 -91 46 -188 30 -333 -55
-44 -26 -80 -45 -81 -43 -2 2 -28 51 -58 110 -105 201 -205 331 -289 374 -57
28 -137 32 -192 9 -91 -38 -132 -105 -190 -310 l-34 -119 -62 120 c-89 176
-192 326 -290 425 -109 109 -167 129 -265 93z m142 -286 c187 -229 318 -514
376 -816 25 -129 38 -172 55 -172 5 0 20 9 35 21 56 44 147 276 242 616 47
170 67 223 84 223 18 0 131 -167 180 -265 81 -164 118 -304 123 -463 l2 -73
-233 -101 -233 -100 -62 26 c-33 15 -102 38 -151 51 -50 12 -131 35 -181 50
-110 33 -322 45 -455 26 -45 -7 -83 -11 -85 -9 -3 3 7 116 30 338 26 251 89
519 152 645 29 56 42 75 54 75 4 0 34 -33 67 -72z m-1331 -352 c346 -100 606
-255 800 -479 65 -74 139 -176 132 -180 -2 -1 -51 -18 -109 -36 -140 -45 -285
-109 -395 -175 l-90 -54 -55 28 c-141 71 -380 144 -579 177 -146 25 -487 25
-618 0 -263 -49 -448 -140 -648 -320 -38 -35 -108 -88 -155 -119 -141 -92
-255 -200 -328 -311 -14 -20 -27 -35 -29 -33 -7 7 55 155 103 246 123 231 280
412 466 538 227 153 470 219 768 209 271 -9 476 -63 794 -212 217 -101 237
-107 271 -75 54 51 28 88 -130 181 l-101 60 -116 277 c-144 340 -133 312 -115
312 9 0 69 -15 134 -34z m2862 -223 c-30 -84 -36 -212 -14 -308 37 -169 129
-338 333 -612 151 -202 213 -297 280 -423 97 -182 144 -332 163 -512 12 -116
1 -216 -41 -368 -27 -100 -23 -133 20 -155 60 -31 119 17 179 145 45 97 70
207 80 360 9 134 10 138 53 224 l44 88 23 -82 c95 -348 49 -743 -130 -1119
-104 -218 -228 -389 -405 -562 -145 -140 -250 -216 -412 -298 l-82 -43 -63 64
c-100 104 -216 171 -339 198 -32 7 -58 16 -58 19 0 3 28 48 63 99 57 84 94
121 427 419 321 287 365 331 368 359 3 29 -6 39 -126 143 -71 61 -142 115
-156 121 -15 5 -102 23 -193 40 -91 16 -167 31 -168 32 -1 2 89 149 201 328
112 179 203 330 204 335 0 6 -33 43 -72 82 l-73 72 -215 -9 c-118 -5 -249 -11
-291 -13 l-77 -4 -5 136 c-3 78 -12 162 -21 196 -21 75 -75 192 -117 250 -31
43 -34 68 -11 102 4 6 77 42 162 78 179 77 209 97 241 162 21 43 24 60 22 158
-1 61 -7 133 -12 160 -10 48 -9 51 17 73 45 38 185 122 204 122 16 0 15 -4 -3
-57z m-1374 -638 c303 -79 455 -334 389 -653 -21 -101 -72 -198 -140 -262
-134 -127 -337 -158 -440 -68 -45 40 -60 70 -81 164 -36 163 -108 203 -249
139 -58 -26 -128 -85 -150 -126 -8 -16 -14 -44 -14 -64 0 -85 58 -166 233
-324 148 -132 252 -248 344 -382 l61 -90 -58 -122 c-32 -67 -74 -156 -94 -197
-53 -111 -53 -114 61 -214 54 -47 106 -86 116 -86 40 0 97 -23 97 -39 0 -35
-43 -170 -79 -247 -47 -99 -118 -206 -216 -323 -215 -256 -516 -437 -847 -508
-63 -14 -127 -18 -263 -18 -212 0 -301 18 -450 90 -158 76 -262 182 -315 322
-34 88 -39 243 -11 354 33 135 101 260 185 344 202 202 510 232 582 58 20 -46
17 -135 -6 -222 -22 -81 -19 -113 14 -150 47 -53 146 -66 253 -33 112 35 193
105 262 227 96 168 93 175 -197 450 -232 218 -281 271 -350 374 -91 136 -142
271 -161 426 -15 128 -3 226 32 263 29 30 34 61 15 91 -17 28 72 203 159 311
209 260 578 462 958 526 98 16 277 11 360 -11z m-1834 -81 c125 -17 294 -60
405 -103 l80 -31 -69 -72 c-122 -130 -248 -338 -288 -476 l-12 -43 -106 7
-106 7 -146 151 -146 151 30 13 c16 6 47 12 68 12 26 0 47 8 66 24 24 21 26
27 18 52 -12 34 -42 50 -115 64 -166 31 -515 -16 -738 -100 -62 -23 -115 -40
-118 -38 -16 16 188 194 297 259 215 128 527 172 880 123z m-463 -698 l-3
-160 -150 -117 c-164 -127 -184 -154 -148 -191 19 -19 49 -24 245 -46 145 -15
226 -28 233 -37 5 -7 57 -75 114 -151 123 -165 111 -150 138 -158 17 -5 29 -1
48 18 25 25 25 25 25 219 0 179 2 197 20 218 10 13 20 20 20 14 2 -47 24 -156
45 -229 45 -155 147 -336 264 -469 28 -32 51 -60 51 -62 0 -2 -17 1 -37 7 -21
6 -83 8 -138 6 -261 -12 -500 -169 -659 -431 -16 -26 -18 -27 -39 -12 -12 8
-33 15 -47 15 -63 0 -70 8 -70 72 0 49 -4 63 -25 83 -56 57 -145 15 -145 -69
0 -59 -7 -65 -74 -63 -52 2 -60 -1 -82 -26 -30 -35 -31 -78 -1 -112 17 -20 34
-27 80 -32 l57 -6 -2 -56 c-2 -69 12 -96 56 -111 65 -21 116 27 116 110 l0 40
51 0 c48 0 51 -1 45 -22 -14 -49 -34 -145 -41 -190 -6 -46 -8 -48 -48 -58 -23
-6 -96 -27 -162 -46 -66 -20 -126 -37 -134 -38 -18 -1 -86 152 -137 310 l-36
111 69 145 c58 120 75 146 99 156 16 6 131 47 255 91 253 88 262 92 283 123
23 33 20 56 -16 109 -37 54 -38 55 -355 185 l-192 79 -45 179 -44 179 43 88
c84 167 211 335 366 484 l93 90 8 -40 c5 -21 7 -111 6 -199z m292 -134 c41
-22 53 -23 143 -17 53 3 97 4 97 2 0 -3 -34 -31 -75 -62 -111 -86 -120 -105
-118 -245 1 -90 -1 -112 -10 -100 -140 184 -139 184 -286 190 l-114 5 78 60
c102 77 114 105 115 243 l0 103 63 -78 c40 -51 78 -86 107 -101z m2983 -71
c142 -5 261 -11 263 -14 3 -3 -94 -160 -216 -348 -209 -325 -220 -344 -198
-350 13 -4 138 -19 278 -34 140 -14 263 -30 274 -34 15 -6 -87 -126 -625 -736
-353 -401 -644 -724 -646 -718 -2 6 75 261 172 568 97 306 175 559 172 561 -2
2 -99 7 -215 11 -117 3 -212 9 -212 12 0 3 120 250 267 549 l267 542 80 0 c45
-1 197 -5 339 -9z m-3933 -454 c16 -70 39 -145 50 -166 32 -63 88 -103 230
-161 l131 -54 -146 -38 c-205 -52 -230 -73 -311 -262 -30 -70 -54 -132 -54
-138 0 -30 -13 10 -40 122 -55 222 -76 247 -277 330 -73 29 -131 56 -128 58 2
2 66 19 142 38 206 51 225 68 313 279 29 69 54 124 56 122 2 -2 17 -60 34
-130z m3991 -1557 c129 -39 194 -97 287 -255 73 -122 105 -149 167 -141 71 9
227 65 364 131 73 36 138 65 143 65 20 0 0 -82 -41 -163 -50 -103 -177 -301
-246 -388 -75 -93 -206 -221 -300 -292 -301 -228 -640 -232 -796 -9 -46 66
-73 150 -66 208 12 112 142 281 300 391 101 72 118 102 77 143 -27 27 -87 26
-191 -4 -181 -53 -267 -100 -444 -242 -143 -115 -293 -257 -446 -424 -380
-414 -607 -608 -843 -721 -153 -73 -237 -93 -381 -94 -109 0 -125 2 -177 27
-121 56 -203 183 -234 358 -35 201 7 391 129 576 l40 62 53 -18 c144 -50 364
-73 557 -59 296 22 586 124 837 293 102 70 111 74 120 55 8 -15 21 -19 60 -19
l50 0 247 221 c137 122 264 237 283 255 45 42 134 62 281 63 80 1 123 -4 170
-19z m-3341 -92 c30 -82 97 -191 152 -248 19 -19 54 -62 78 -95 24 -33 76 -91
115 -129 l73 -69 -122 -70 c-66 -38 -223 -136 -347 -218 -125 -82 -253 -161
-285 -176 -56 -27 -67 -28 -204 -28 -140 0 -147 1 -204 29 -72 35 -170 131
-209 203 -41 76 -60 180 -47 251 15 83 61 170 122 228 58 56 232 171 343 226
119 60 325 136 460 171 39 10 47 1 75 -75z"/>
<path d="M2245 4879 c-27 -22 -28 -30 -10 -94 5 -17 -1 -23 -30 -34 -50 -18
-65 -53 -38 -89 21 -28 44 -32 93 -18 23 6 27 3 38 -28 22 -61 75 -71 108 -20
13 19 14 30 5 55 -15 44 -15 43 24 58 60 21 70 74 19 107 -19 13 -30 14 -55 5
-45 -16 -46 -15 -59 24 -11 32 -35 55 -58 55 -5 0 -22 -10 -37 -21z"/>
<path d="M1757 3852 c-19 -21 -21 -49 -7 -87 9 -23 7 -26 -30 -41 -45 -18 -60
-50 -41 -90 8 -18 18 -24 43 -23 18 0 42 4 53 8 17 7 23 1 40 -33 23 -48 63
-60 97 -29 20 17 21 50 3 94 -5 13 2 20 29 29 56 18 74 71 36 105 -19 17 -53
17 -92 0 -14 -5 -20 0 -29 21 -23 62 -69 83 -102 46z"/>
<path d="M3390 1203 c-196 -31 -556 -172 -582 -228 -22 -49 46 -105 130 -105
134 0 371 109 510 235 63 57 80 84 61 96 -14 9 -72 10 -119 2z"/>
<path d="M1840 1665 c-293 -61 -405 -131 -329 -207 26 -27 34 -29 72 -23 68
10 137 35 221 78 80 41 196 138 196 163 0 19 -24 17 -160 -11z"/>
</g>
</svg>
