<?xml version="1.0" standalone="no"?>
<!DOCTYPE svg PUBLIC "-//W3C//DTD SVG 20010904//EN"
 "http://www.w3.org/TR/2001/REC-SVG-20010904/DTD/svg10.dtd">
<svg version="1.0" xmlns="http://www.w3.org/2000/svg"
 width="490.000000pt" height="490.000000pt" viewBox="0 0 490.000000 490.000000"
 preserveAspectRatio="xMidYMid meet">
<metadata>
Created by potrace 1.14, written by Peter Selinger 2001-2017
</metadata>
<g transform="translate(0.000000,490.000000) scale(0.100000,-0.100000)"
fill="#000000" stroke="none">
<path d="M1637 4702 c-9 -9 -55 -115 -102 -235 -49 -122 -94 -221 -103 -226
-10 -5 -96 -30 -192 -56 -162 -43 -176 -45 -185 -29 -46 80 -132 87 -170 14
-8 -16 -51 -134 -96 -262 -106 -303 -115 -324 -153 -347 -40 -23 -272 -94
-431 -131 -146 -33 -160 -40 -175 -84 -15 -47 6 -88 57 -109 21 -8 153 -51
293 -97 140 -45 263 -89 273 -99 16 -15 207 -613 207 -648 0 -27 47 -63 82
-63 57 0 73 21 129 165 29 74 55 133 58 130 2 -3 15 -42 28 -86 45 -154 138
-320 263 -467 l62 -74 -34 9 c-60 15 -218 9 -293 -11 -233 -63 -454 -252 -551
-472 -141 -320 -124 -625 51 -869 46 -66 216 -225 320 -303 81 -59 190 -113
305 -150 149 -47 226 -57 430 -56 161 0 201 3 311 27 236 50 432 133 630 266
123 82 272 213 349 305 48 57 58 65 80 60 156 -38 370 -44 542 -15 652 112
1131 651 1164 1311 13 248 -36 472 -152 701 -136 267 -349 478 -620 613 -95
48 -260 106 -300 106 -7 0 -18 19 -24 43 -54 210 -223 408 -425 496 -96 42
-351 119 -434 132 -168 24 -364 3 -616 -67 l-60 -16 -130 49 c-87 34 -135 58
-147 74 -9 13 -44 123 -77 244 -40 143 -66 224 -78 232 -24 18 -67 16 -86 -5z
m53 -373 c43 -158 51 -167 220 -234 154 -61 156 -53 -25 -101 -150 -39 -168
-56 -232 -219 -26 -69 -51 -125 -54 -125 -3 0 -20 55 -38 123 -34 128 -56 175
-94 200 -13 8 -77 36 -142 61 -66 26 -121 48 -123 50 -1 2 50 18 115 35 65 18
130 37 146 43 48 18 82 70 132 202 40 106 50 125 56 105 4 -13 22 -76 39 -140z
m1198 -380 c251 -63 402 -254 402 -509 0 -294 -178 -517 -423 -528 -68 -4 -84
-1 -131 22 -69 34 -99 78 -126 186 -12 47 -30 99 -41 116 -26 43 -78 67 -126
58 -102 -18 -224 -106 -245 -176 -28 -93 29 -187 221 -364 209 -193 309 -310
407 -477 104 -175 146 -327 146 -517 -1 -204 -73 -408 -213 -605 -87 -122
-291 -326 -404 -402 -368 -248 -801 -325 -1161 -204 -140 47 -210 88 -299 176
-113 112 -157 223 -156 390 1 301 195 579 460 661 68 21 181 19 234 -4 72 -32
117 -104 117 -187 0 -16 -9 -64 -20 -105 -32 -122 -24 -163 39 -203 30 -18 50
-22 116 -21 170 1 298 92 395 281 43 84 46 134 10 186 -14 20 -127 133 -252
251 -248 236 -330 334 -403 481 -69 141 -89 225 -89 385 -1 74 2 151 7 170 l7
36 163 48 c397 119 400 121 413 184 10 47 -31 82 -136 117 -47 15 -87 29 -89
31 -2 2 16 56 40 120 l44 117 70 46 c146 95 389 197 565 237 158 36 324 37
458 3z m-1904 -190 c69 -223 71 -228 109 -267 43 -45 92 -69 290 -137 92 -32
166 -59 165 -60 -2 -1 -85 -28 -184 -58 -298 -91 -293 -87 -391 -363 -37 -106
-71 -190 -74 -186 -4 4 -33 90 -64 192 -32 106 -68 201 -83 223 -36 53 -92 82
-291 152 -94 32 -171 62 -171 65 0 4 86 33 192 65 209 65 255 90 295 160 12
22 50 119 84 218 34 98 63 176 66 174 2 -3 28 -83 57 -178z m300 111 c59 -23
117 -51 127 -61 10 -10 23 -37 29 -61 6 -24 13 -50 16 -58 3 -14 -85 -131
-104 -137 -4 -2 -21 5 -37 16 -24 14 -40 41 -78 135 -85 209 -89 219 -75 213
7 -3 62 -24 122 -47z m2222 -1464 c87 -41 154 -143 154 -236 0 -102 -64 -204
-154 -246 -55 -26 -124 -32 -130 -11 -44 148 -77 237 -122 327 -63 126 -63
124 19 165 69 34 161 35 233 1z m619 -531 c160 -42 307 -81 328 -86 21 -6 37
-16 37 -24 0 -28 -106 -221 -162 -296 -159 -211 -395 -368 -655 -435 -106 -28
-313 -43 -415 -30 l-54 7 49 95 c27 53 62 135 78 182 34 98 69 287 69 368 l0
54 35 0 c49 0 150 35 208 72 50 32 120 105 144 151 9 19 20 26 31 23 9 -3 148
-39 307 -81z"/>
</g>
</svg>
