<!-- Generated by IcoMoon.io -->
<svg version="1.1" xmlns="http://www.w3.org/2000/svg" width="1200" height="1200" viewBox="0 0 1200 1200">
<title>logo</title>
<path d="M464.153 1074.321c42.993 13.103 88.594 20.163 135.846 20.163h1.515c44.258-0.154 87.097-6.484 127.635-18.186 51.128 22.196 109.966 34.302 171.741 38.005-86.925 54.025-189.371 85.334-299.031 85.697h-1.861c-110.254 0-213.255-31.309-300.565-85.486l1.669-0.211c54.925-7.079 111.386-19.664 163.050-39.981zM143.061 718.983c21.026 107.012 78.772 200.92 159.539 268.068 24.575 20.432 51.261 38.37 79.712 53.467-51.089 13.16-104.345 19.779-153.035 22.695-61.334-52.393-111.463-117.564-146.244-191.347 14.312-50.033 33.784-103.847 60.029-152.882zM1062.75 681.381c30.35 50.667 49.669 112.614 59.741 178.437-33.784 76.182-83.721 143.617-145.477 197.947-57.957 3.108-114.877-0.768-166.234-13.678 59.798-30.428 112.172-73.4 153.612-125.428l62.753 46.196c4.412 3.472 10.82 2.897 14.523-1.304 3.548-4.375 2.973-10.859-1.304-14.523l-57.458-55.253c42.763-61.621 71.021-134.081 79.846-212.393zM533.659 61.411c-8.652 16.23-22.618 29.62-40.114 37.698-0.671 0.307-1.324 0.633-1.995 0.979-44.759 22.792-75.799 53.679-97.17 87.232-9.593 0.115-30.504 2.629-53.102 28.162-14.887 16.805-27.607 35.108-38.043 54.523-86.58 71.713-146.838 174.178-163.952 290.59-3.108 21.198-4.795 42.839-4.949 64.825-35.28 47.634-62.849 103.808-83.702 160.192-13.525-47.405-21.064-97.343-21.775-148.91-0.039-2.61-0.057-5.257-0.057-7.903 0-4.911 0.057-9.823 0.192-14.734 7.252-286.139 225.401-520.288 504.67-552.653zM735.941 73.9c241.804 59.107 423.443 272.346 434.704 529.458 0.383 8.461 0.555 16.922 0.555 25.438 0 43.895-4.949 86.638-14.331 127.655-20.393-65.516-51.012-123.952-92.911-168.116-7.175-83.223-36.279-160.211-81.478-225.131-10.685-15.367-22.293-30.042-34.686-43.971-0.498-0.555-0.998-1.113-1.478-1.65-6.081-6.754-12.335-13.334-18.782-19.702-0.633-0.633-1.267-1.247-1.918-1.88l-1.362-1.343-1.535-1.478c-1.113-1.075-2.227-2.129-3.337-3.184-0.575-0.537-1.171-1.093-1.765-1.65-0.671-0.613-1.343-1.247-2.014-1.861-26.532-64.307-72.96-118.983-132.93-156.009-11.875-7.329-25.495-9.861-38.464-7.98-0.729-16.671-3.548-32.978-8.269-48.594zM760.861 191.674c-2.418-4.297-5.238-8.384-8.441-12.239 9.976 6.158 19.492 12.912 28.508 20.182l-0.461-0.192c-6.465-2.725-13.008-5.314-19.607-7.751zM596.546 57.593c1.171 0 2.303 0 3.452 0 23.156 0 46.004 1.382 68.47 4.068 11.856 20.892 18.437 44.797 18.38 69.679 0 6.081-1.171 18.071-1.171 18.071-17.17 0.441-33.094 6.081-46.196 15.347-13.027-1.093-26.187-1.65-39.482-1.65-43.184 0-85.027 5.89-124.719 16.922 12.028-10.648 26.053-20.336 42.379-28.663 39.693-18.301 68.278-53.102 78.887-93.775z"></path>
<path d="M634.871 683.232c0-17.897-14.541-32.433-32.457-32.433-17.892 0-32.433 14.536-32.433 32.433v15.539c0 17.926 14.541 32.463 32.433 32.463 17.917 0 32.457-14.536 32.457-32.463v-15.539z"></path>
<path d="M846.271 552.73c15.559 0.057 31.117 1.554 46.407 4.527l1.247 0.25c2.839 0.575 5.679 1.189 8.518 1.861l0.135 0.019 0.729 0.192c2.571 0.613 5.122 1.267 7.655 1.956 2.109 0.575 4.201 1.189 6.292 1.822 0.403 0.135 0.806 0.25 1.228 0.383l1.209 0.364c18.264 5.775 35.991 13.717 52.739 23.827 4.643 2.801 9.189 5.775 13.678 8.902 4.355 3.069 8.633 6.273 12.834 9.632 0.864 0.69 1.707 1.382 2.552 2.091 0.518 0.422 1.036 0.845 1.554 1.286 5.045 4.259 9.938 8.729 14.657 13.41l0.555 0.537 0.768 0.768c2.514 2.532 4.987 5.122 7.424 7.77 1.784 1.956 3.548 3.933 5.296 5.929 3.895 4.508 7.655 9.151 11.3 13.948l0.537 0.709 1.956 2.61 0.652 0.882c11.358 15.502 21.487 32.402 30.408 50.416l0.768 1.535c1.247 2.552 2.475 5.142 3.684 7.731l0.729 1.573c41.668 90.839 54.81 207.52 47.194 317.218-61.334 14.964-126.158 23.827-188.643 23.904-97.438 0.096-189.103-21.237-252.661-74.168-86.657-72.768-112.096-196.604-61.161-297.65 1.898-3.779 3.933-7.54 6.101-11.186l61.008 44.45 34.877 207.731c0.729 3.742 4.029 6.465 7.846 6.465 4.355 0 7.942-3.568 7.98-7.923l-1.88-170.532 101.678 74.514 26.59 131.895c0.096 1.113 0.441 2.129 0.941 3.050l0.096 0.135 0.076 0.154c0.902 1.515 2.303 2.705 3.953 3.357 0.941 0.383 1.976 0.594 3.032 0.594 0.211 0 0.403 0 0.613-0.019 4.029-0.364 7.155-3.779 7.155-7.808 0-0.268-0.019-0.518-0.039-0.768l2.475-97.9 138.129 101.678c1.515 1.189 3.261 1.918 5.064 2.167l0.25 0.019c3.357 0.403 6.85-0.806 9.209-3.491 3.548-4.375 2.973-10.859-1.304-14.523l-123.472-118.676 96.019-19.318c4.355-0.461 7.616-4.355 7.271-8.729-0.115-1.247-0.518-2.399-1.132-3.415l-0.019-0.019-0.057-0.096c-1.4-2.187-3.857-3.626-6.599-3.626-0.25 0-0.518 0.019-0.768 0.039l-134.657-3.337-91.069-87.156 169.073-29.64c4.336-0.441 7.54-4.375 7.118-8.709-0.135-1.956-0.998-3.703-2.321-4.987-0.211-0.192-0.422-0.383-0.652-0.575-0.096-0.057-0.192-0.135-0.287-0.192-0.23-0.172-0.461-0.326-0.709-0.461-0.479-0.268-0.998-0.479-1.535-0.633-0.69-0.211-1.419-0.326-2.167-0.326-0.307 0-0.594 0.019-0.902 0.057l-209.899 2.187-54.33-52.297c3.204-2.763 6.541-5.372 9.88-7.846 43.222-32.307 94.58-48.403 145.86-48.537h1.267z"></path>
<path d="M384.959 548.873c68.662 0.537 136.882 30.58 183.252 87.846 81.861 101.084 66.647 251.146-33.708 332.413-98.416 80.441-261.333 95.98-371.644 96.076h-2.091c-67.3-0.039-114.493-5.794-114.493-5.794s29.736-329.208 189.773-458.821c43.107-34.936 95.386-51.837 147.492-51.741l1.419 0.019zM399.079 630.023c-29.64-0.057-59.395 9.554-83.932 29.429-26.934 21.813-44.316 53.313-48.461 87.846l0.787-0.825c3.933-4.164 8.154-8.057 12.605-11.665 24.346-19.702 53.851-29.257 83.262-29.2h0.806c38.753 0.307 77.257 17.285 103.444 49.593 23.846 29.448 34.187 67.607 28.451 104.903l0.461-0.498c10.015-10.341 18.225-22.273 24.307-35.357 22.964-46.907 16.46-103.385-16.632-144.23-26.379-32.576-65.208-49.689-104.288-49.995h-0.806z"></path>
<path d="M602.494 387.607c0 0-0.902 0-0.902 0-41.055 0-76.584 25.189-91.414 60.566-4.738 11.338-7.366 23.693-7.366 36.623 0 11.817 8.518 98.494 112.634 123.127 86.427 20.681 202.052-30.543 222.906-49.248l-0.594 0.902c-51.165 77.544-138.993 124.489-232.997 124.489-152.326 0-277.697-123.28-277.812-273.151 0-0.479-0.019-0.96-0.019-1.439-1.228-57.132 19.242-112.73 57.42-155.837 5.411-6.101 8.883-8.825 10.973-8.787h0.096c6.85 0.345-1.593 31.252-3.971 68.201-0.441 6.83-0.671 13.85-0.555 20.911 0.154 9.113 0.864 18.301 2.418 27.243 2.629 15.098 7.692 29.525 16.575 41.668 0 0-5.026-25.093-3.742-60.316l0.057-1.113c2.36-58.666 22.35-144.71 111.463-190.082 50.743-23.406 83.319-73.745 83.434-128.863-0.019-3.108-0.154-6.197-0.383-9.285l-0.039-0.594-0.019-0.115c-0.326-4.086-0.825-8.173-1.515-12.239l-0.039-0.268c13.948 5.909 26.629 13.813 37.737 23.31 31.252 26.723 50.091 65.957 50.014 108.029 0 6.081-1.171 18.071-1.171 18.071-43.338 1.113-78.676 35.319-81.093 77.449-0.076 1.515-0.115 3.050-0.115 4.604 0 6.445 0.768 12.739 2.227 18.782 8.729 36.105 41.995 63.289 81.189 63.289h0.537c45.525-0.287 82.897-37.218 82.897-82.072 0-1.995-0.076-3.971-0.23-5.947-0.076-1.267-0.211-2.532-0.364-3.799-0.172-1.496-0.403-2.973-0.671-4.451-0.575-3.223-1.324-6.388-2.284-9.496-3.146-10.263-8.326-19.914-15.347-28.335 53.391 32.978 93.851 82.82 114.724 141.314l0.25 0.69c0.555 2.858 1.056 5.736 1.496 8.595 1.093 7.003 1.822 14.044 2.207 21.103 0.211 3.953 0.307 7.903 0.307 11.856-0.096 119.981-100.316 218.723-222.253 218.992-9.266-0.019-18.513-0.613-27.703-1.804 46.196-8.883 79.827-49.073 79.827-95.386 0-1.88-0.057-3.742-0.172-5.583-1.688-28.854-16.421-54.504-38.427-71.271-16.71-12.72-37.622-20.336-60.182-20.336z"></path>
</svg>
