<!-- Generated by IcoMoon.io -->
<svg version="1.1" xmlns="http://www.w3.org/2000/svg" width="1200" height="1200" viewBox="0 0 1200 1200">
<title>type-ice</title>
<path d="M484.032 162.975l113.502-113.502 113.502 113.502-113.502 113.502-113.502-113.502z"></path>
<path d="M158.947 759.046h160.516v160.516h-160.516v-160.516z"></path>
<path d="M484.017 1032.172l113.502-113.502 113.502 113.502-113.502 113.502-113.502-113.502z"></path>
<path d="M875.637 277.498v159.537l-278.087-160.516-278.087 160.516v-159.537h-160.516v160.516h160.516v320.053l278.087 160.516 278.087-160.516v-320.053h160.516v-160.516h-160.516zM479.817 531.743v157.087h-83.442v-205.748h0.817l177.335-102.384 41.64 72.175-136.349 78.871zM875.637 759.046h160.516v160.516h-160.516v-160.516z"></path>
</svg>
