<!-- Generated by IcoMoon.io -->
<svg version="1.1" xmlns="http://www.w3.org/2000/svg" width="1200" height="1200" viewBox="0 0 1200 1200">
<title>type-tera-bg</title>
<path d="M595.923 1.618c-4.095 3.234-55.327 103.506-55.677 104.202-16.137 31.811-19.847 35.014-27.667 40.579-6.116 4.354-174.959 100.542-194.102 110.822-23.871 12.82-28.303 14.061-43.049 12.068-6.095-0.824-153.683-19.259-164.373-19.279-21.654-0.048-21.633 5.659 0.173 50.994 9.2 19.126 78.287 174.152 78.287 174.152l1.010 255.52c0 0-86.859 190.898-89.516 196.421-12.47 25.922-6.935 33.086 22.075 28.579 17.619-2.739 143.438-17.957 149.423-18.67 21.364-2.555 23.244-2.079 45.66 11.633 7.064 4.32 193.057 106.748 195.734 108.118 7.847 4.024 10.085 7.375 26.453 39.532 5.65 11.102 50.619 96.176 53.667 99.964l0.004 0.004v-0.004c6.762 8.408 11.565 2.585 21.588-16.725 4.078-7.857 50.272-99.495 51.477-102.087 7.779-16.763 10.147-19.525 22.589-26.387 6.574-3.626 172.702-95.699 191.843-105.977 23.871-12.82 28.303-14.061 43.049-12.068 6.095 0.824 153.683 19.259 164.373 19.279 21.654 0.048 21.633-5.659-0.173-50.994-9.2-19.126-78.287-174.152-78.287-174.152l-1.010-255.52c0 0 86.859-190.898 89.516-196.421 12.47-25.922 6.935-33.086-22.075-28.579-17.619 2.739-143.438 17.957-149.423 18.67-21.364 2.555-23.246 2.079-45.66-11.633-7.064-4.32-193.057-106.748-195.734-108.118-7.847-4.024-10.085-7.375-26.453-39.532-8.558-16.82-50.545-99.206-54.536-103.709-2.48-2.796-6.164-3.068-9.188-0.68z"></path>
</svg>
