<!-- Generated by IcoMoon.io -->
<svg version="1.1" xmlns="http://www.w3.org/2000/svg" width="1200" height="1200" viewBox="0 0 1200 1200">
<title>type-steel</title>
<path d="M643.461 406.161l159.591 556.655 301.969-219.394-139.6-429.573-321.963 92.311zM839.906 584.354c-43.811 0-79.273-35.464-79.273-79.273s35.464-79.273 79.273-79.273c43.811 0 79.273 35.464 79.273 79.273s-35.464 79.273-79.273 79.273z"></path>
<path d="M589.569 594.957l-74.579-259.901 418.448-119.954-22.252-68.323h-627.585l-193.839 596.638 499.807-148.464zM383.214 195.461c32.509 0 58.76 26.251 58.76 58.76s-26.251 58.76-58.76 58.76c-32.509 0-58.76-26.251-58.76-58.76s26.251-58.76 58.76-58.76zM609.388 663.976l-446.611 132.643 434.616 315.878 116.302-84.664-104.306-363.86z"></path>
</svg>
