<!-- Generated by IcoMoon.io -->
<svg version="1.1" xmlns="http://www.w3.org/2000/svg" width="1200" height="1200" viewBox="0 0 1200 1200">
<title>type-normal-alt</title>
<path d="M280.329 140.789c-117.633 19.465-180.701 131.184-133.997 237.363 14.191 32.269 13.63 42.863-4.356 82.161-7.47 16.33-10.259 26.079-20.67 72.221-14.532 64.46-14.341 140.225 0.521 198.386 3.175 12.442 7.163 28.888 8.846 36.544s4.996 18.23 7.348 23.493c2.352 5.263 6.86 16.229 10.025 24.362 25.14 64.724 90.789 153.783 139.24 188.91 3.827 2.775 12.442 9.456 19.144 14.851 33.568 27.023 90.169 56.923 133.126 70.336 10.049 3.138 24.982 8.068 33.183 10.959 55.598 19.601 199.191 19.225 256.567-0.667 9.572-3.321 25.625-8.672 35.673-11.893 85.12-27.304 179.175-97.609 231.973-173.386 35.809-51.391 65.331-112.67 74.221-154.057 2.041-9.497 5.977-25.882 8.749-36.412 12.655-48.12 12.716-134.355 0.125-186.094-2.805-11.544-7.023-29.613-9.362-40.138-2.549-11.467-7.498-26.345-12.336-37.116-16.249-36.148-16.529-46.854-2.024-76.418 34.029-69.341 17.283-154.545-39.844-202.678-57.299-48.275-125.728-50.255-198.423-19.601-14.408 6.080-24.63 13.417-34.879 13.846-14.768 0.626-30.134-8.473-62.791-17.498-42.011-11.613-98.469-14.868-120.394-14.311-34.72 0.886-60.287-1.002-121.001 14.483-25.5 6.505-42.454 19.282-56.070 18.95-10.309-0.254-21.955-8.404-34.712-15.843-29.79-17.38-76.177-26.007-107.884-20.761zM651.002 289.977c112.207 14.892 203.592 81.489 262.409 191.221 7.73 14.422 15.84 39.376 26.63 81.966 15.82 62.42 3.246 155.009-30.076 221.517-42.758 85.334-140.914 164.127-223.29 179.249-77.954 14.313-96.458 14.341-172.084 0.264-59.255-11.026-136.63-59.85-179.236-113.096-32.699-40.855-50.482-70.641-59.418-99.521-2.038-6.573-6.342-19.784-9.575-29.355-19.144-56.716-17.77-119.173 4.373-198.67 23.675-85.017 110.531-179.939 192.483-210.347 6.611-2.454 17.637-6.769 24.509-9.592 14.998-6.163 27.832-8.982 62.351-13.693 43.638-5.95 55.68-5.946 100.923 0.061z"></path>
</svg>
