<!-- Generated by IcoMoon.io -->
<svg version="1.1" xmlns="http://www.w3.org/2000/svg" width="1200" height="1200" viewBox="0 0 1200 1200">
<title>type-ghost-sw</title>
<path d="M1076.548 1060.854c-0.271 0.004-0.593 0.006-0.915 0.006-44.303 0-80.216-35.914-80.216-80.216 0-0.002 0-0.004 0-0.006v0c0-0.064 0-0.142 0-0.219 0-19.194 6.793-36.802 18.105-50.548l-0.111 0.139c76.97-92.285 123.7-212.135 123.7-342.899 0-296.638-240.472-537.111-537.111-537.111s-537.111 240.472-537.111 537.111c0 134.558 49.479 257.557 131.238 351.799l-0.565-0.664 8.236 9.455c1.261 1.165 2.366 2.464 3.307 3.886l0.048 0.077 2.439 2.439c46.362 49.328 101.467 89.804 162.941 119.070l3.287 1.407c92.541 47.55 201.92 75.423 317.808 75.423 8.262 0 16.487-0.142 24.681-0.424l-1.191 0.034s227.837 0 377.593-91.502c5.794-1.829-10.371 2.746-16.165 2.746zM390.291 633.852c-66.441-0.13-120.251-54.020-120.251-120.476 0-49.37 29.694-91.804 72.2-110.413l0.776-0.301c0 1.526 0 3.052 0 4.269 1.165 66.483 55.332 119.93 121.984 119.93 16.494 0 32.225-3.274 46.577-9.206l-0.811 0.296c-2.034 64.607-54.898 116.208-119.811 116.208-0.236 0-0.469 0-0.702-0.002h0.037zM814.549 633.852c-0.022 0-0.048 0-0.076 0-64.866 0-117.73-51.395-120.089-115.686l-0.007-0.217c13.543 5.637 29.275 8.91 45.769 8.91 66.652 0 120.82-53.449 121.984-119.821l0.002-0.109s0-2.746 0-4.269c43.277 18.913 72.974 61.346 72.974 110.716 0 66.457-53.81 120.347-120.237 120.476h-0.013z"></path>
</svg>
