<!-- Generated by IcoMoon.io -->
<svg version="1.1" xmlns="http://www.w3.org/2000/svg" width="1200" height="1200" viewBox="0 0 1200 1200">
<title>type-dragon-sw</title>
<path d="M505.762 701.743c-251.741 0-345.308 92.491-345.308 92.491 41.235 186.901 192.96 329.043 381.78 355.488l2.405 0.275s-216.353-226.273-38.873-448.256z"></path>
<path d="M625.065 243.029c37.533-86.059 4.29-193.030 4.29-193.030-44.505 131.367-238.876 246.649-250.4 253.35v0c-131.636 76.14-238.070 212.602-243.968 375.335 0 0 46.65-46.65 259.785-57.909 217.426-11.259 259.785-169.705 259.785-169.705 14.745 59.25 88.74 118.5 88.74 118.5 37.1 35.248 60.18 84.949 60.18 140.041 0 6.669-0.339 13.262-0.998 19.757l0.066-0.817c0.014 0.943 0.025 2.059 0.025 3.177 0 75.948-41.228 142.267-102.524 177.798l-0.986 0.529c-44.502 20.094-96.48 31.8-151.194 31.8-14.645 0-29.094-0.838-43.3-2.47l1.734 0.163c16.6 66.094 57.697 120.566 112.843 154.337l1.096 0.625c30.027 19.992 66.928 31.9 106.611 31.9 33.4 0 64.827-8.436 92.271-23.293l-1.027 0.509c147.799-77.38 246.922-229.665 246.922-405.101 0-246.15-195.137-446.725-439.153-455.466l-0.799-0.022zM401.204 491.019c-31.1 35.657-116.353 58.98-116.353 58.98s35.926-116.621 130.294-141.018c3.055 8.46 4.82 18.221 4.82 28.398 0 20.361-7.072 39.071-18.892 53.809l0.131-0.168z"></path>
</svg>
