<!-- Generated by IcoMoon.io -->
<svg version="1.1" xmlns="http://www.w3.org/2000/svg" width="1200" height="1200" viewBox="0 0 1200 1200">
<title>type-fire-alt</title>
<path d="M475.506 99.778c-25.971 4.57-25.417 2.23 9.758 37.513 34.617 34.726 45.708 43.826 51.653 69.253 5.003 21.4 4.689 34.645-1.407 57.656-6.357 23.987-24.812 46.39-29.429 52.369-19.454 25.2-10.792 18.329-87.284 98.848-28.355 29.851-54.579 58.044-58.267 62.659s-10.195 12.292-14.457 17.068c-38.299 42.934-80.077 113.832-90.26 153.206-2.341 9.036-6.469 22.995-9.182 31.010-11.405 33.739-13.404 114.108-3.729 150.035 1.781 6.6 11.154 44.147 14.167 55.279 19.198 70.951 66.966 129.892 138.959 172.748 48.606 28.939 64.78 23.828 28.761-13.354-39.040-40.3-83.12-126.909-81.656-209.528 0.611-34.536 1.575-50.9 3.425-58.297 1.416-5.658 5.781-23.791 9.691-40.297s9.853-36.563 13.198-44.584c3.345-8.016 8.746-21.021 11.999-28.905 20.595-49.86 72.988-121.638 87.757-120.19 7.411 0.722 6.386 9.973 8.688 42.786 2.105 29.892 3.144 34.369 15.555 66.871 18.886 49.467 46.363 85.508 109.384 143.471 55.794 51.326 76.144 65.168 89.534 82.035 62.121 78.225 3.79 172.302-83.095 204.572-20.944 7.779-56.951 19.948-56.951 23.287 0 9.973 77.573 19.761 115.772 10.003 7.57-1.931 32.195-6.236 43.516-8.414 11.316-2.182 29.16-10.864 34.818-13.4 5.658-2.539 15.884-6.792 22.721-9.462 73.462-28.608 154.516-109.309 174.807-174.035 2.364-7.542 6.455-19.505 9.087-26.578 13.066-35.096 13.78-112.785 1.389-150.893-8.347-25.656-27.75-60.761-47.999-86.818-5.959-7.668-14.65-18.855-19.318-24.863-4.671-6.006-13.612-16.704-19.876-23.777-56.004-63.267-67.283-109.977-37.628-155.857 12.919-19.984 9.789-29.327-9.803-29.321-48.367 0.027-100.027 30.172-118.785 69.32-15.964 33.304-7.348 75.103-0.379 100.679 5.512 20.227 23.967 31.574 21.991 35.821-1.644 3.54-24.906-3.071-39.444-17.687-38.854-39.060-32.911-106.515-15.349-147.809 2.412-5.675 7.043-16.876 10.29-24.893s9.295-21.907 13.448-30.865c6.968-15.042 13.465-37.020 21.796-73.732 2.53-11.143 3.348-21.636 3.486-44.584 0 0-0.621-20.728-2.313-30.183-1.070-5.965-6.386-25.389-6.386-25.389-21.005-60.483-60.649-92.209-129.429-111.457-37.877-10.597-80.829-12.67-103.213-11.316z"></path>
</svg>
