<!-- Generated by IcoMoon.io -->
<svg version="1.1" xmlns="http://www.w3.org/2000/svg" width="1200" height="1200" viewBox="0 0 1200 1200">
<title>type-psychic-alt</title>
<path d="M501.961 135.557c0 0-59.72 91.761-101.988 116.161-42.259 24.404-151.595 30.239-151.595 30.239-37.71 7.525-70.35 30.928-89.582 64.23s-23.177 73.273-10.835 109.691c0 0 49.605 97.608 49.605 146.412 0 48.798-49.605 146.406-49.605 146.406-12.342 36.418-8.392 76.395 10.835 109.691s51.872 56.705 89.582 64.23c0 0 109.336 5.839 151.595 30.239 42.27 24.404 101.988 116.161 101.988 116.161 25.373 28.904 61.958 45.462 100.412 45.462s75.039-16.562 100.412-45.462c0 0 59.72-91.761 101.988-116.161 42.259-24.404 151.595-30.239 151.595-30.239 37.71-7.525 70.35-30.928 89.582-64.23s23.177-73.273 10.835-109.691c0 0-49.605-97.608-49.605-146.406 0-48.804 49.605-146.412 49.605-146.412 12.342-36.418 8.392-76.395-10.835-109.691s-51.872-56.705-89.582-64.23c0 0-109.336-5.839-151.595-30.239-42.27-24.404-101.988-116.161-101.988-116.161-25.373-28.904-61.958-45.462-100.412-45.462s-75.039 16.562-100.412 45.462zM602.373 246.253l90.814 103.437c21.531 24.523 50.542 41.269 82.541 47.652l134.985 26.924-44.175 130.365c-10.48 30.907-10.48 64.407 0 95.314l44.175 130.365-134.985 26.924c-31.999 6.383-61.011 23.129-82.541 47.652l-90.814 103.437-90.814-103.437c-21.525-24.523-50.542-41.269-82.541-47.652l-134.979-26.924 44.175-130.365c10.47-30.907 10.47-64.407 0-95.314l-44.175-130.365 134.979-26.924c31.999-6.383 61.017-23.129 82.541-47.652l90.814-103.437z"></path>
</svg>
