<!-- Generated by IcoMoon.io -->
<svg version="1.1" xmlns="http://www.w3.org/2000/svg" width="1200" height="1200" viewBox="0 0 1200 1200">
<title>type-fairy-alt</title>
<path d="M205.464 132.47c-47.871 2.61-69.898 14.058-83.597 43.455-16.161 34.675-15.63 159.43 0.879 207.977 2.303 6.768 6.206 19.835 8.68 29.036 7.577 28.226 35.089 82.775 54.068 107.221 33.291 42.884 49.845 56.722 107.059 89.515 38.518 22.071 38.693 22.634 16.403 52.68-7.586 10.226-14.16 21.452-27.766 47.42-2.344 4.475-12.388 37.625-18.268 60.302-10.818 41.725-2.223 69.198 26.149 83.577 31.993 16.214 119.797 15.258 159.443-1.731 23.089-9.892 48.332-35.002 54.989-31.438 7.539 4.031-5.648 38.822-15.224 63.352-3.513 9.007-8.211 24.516-10.447 34.473-2.234 9.953-6.754 27.407-10.044 38.781-5.938 20.529-7.268 26.868-15.722 74.974-4.669 26.562-5.85 57.571-2.637 69.141 7.339 26.413 32.011 17.251 48.905-18.161 4.105-8.606 19.095-35.339 20.191-38.747 1.098-3.411 5.767-14.5 10.37-24.646s10.301-25.096 12.654-33.224c2.358-8.13 16.48-45.332 18.979-54.334s6.953-22.968 9.892-31.023c2.944-8.057 7.868-24.898 10.942-37.423 5.83-23.753 12.176-58.787 18.633-58.107 6.375 0.667 12.86 36.746 19.056 61.179 3.234 12.731 7.909 28.48 10.384 34.998 2.482 6.521 6.817 20.327 9.629 30.683 2.82 10.356 15.564 42.684 18.067 51.586 2.5 8.902 8.283 24.33 12.846 34.288s9.175 20.886 10.242 24.298c1.068 3.409 16.070 30.255 20.145 38.999 31.546 67.699 63.296 35.123 47.42-48.649-1.977-10.427-5.51-29.044-7.862-41.368-2.344-12.325-6.524-29.774-9.286-38.781s-6.712-24.341-8.788-34.076c-2.068-9.737-6.798-25.27-10.505-34.52-9.43-23.507-22.846-58.552-16.615-63.479 5.065-4.005 26.975 19.144 43.378 25.992 39.878 16.648 54.715 19.097 107.548 17.74 84.596-2.176 110.215-31.314 89.026-101.252-2.441-8.057-6.446-22.017-8.902-31.023-5.15-18.899-20.297-48.901-35.244-69.804-22.121-30.929-22.196-30.714 18.185-53.739 94.775-54.027 139.453-115.77 171.748-237.312 7.307-27.504 11.798-103.943 8.224-139.978-7.649-77.16-25.622-94.834-100.672-99.002-108.386-6.021-218.244 23.029-290.436 76.807-24.884 18.531-44.324 40.788-71.825 82.222-23.665 35.663-28.002 35.632-51.96-0.343-35.762-53.698-60.404-77.999-104.742-103.294-60.949-34.766-160.027-59.064-231.666-56.814-4.268 0.135-18.635 0.838-31.932 1.562zM611.433 413.688c1.678 4.739 3.163 9.916 5.026 15.523 0.35 1.054 2.805 5.582 3.267 6.56 17.828 37.868 62.505 70 111.067 79.875 22.509 4.577 42.98-5.541 38.95 6.021-5.83 16.726-56.639 68.797-77.362 77.558-5.194 2.193-14.978 6.619-21.751 9.831-30.653 14.561-96.763 17.276-128.363 5.271-39.165-14.873-53.266-23.429-75.648-45.86-16.477-16.521-35.17-42.679-35.018-51.425s31.427 5.573 48.514-0.697c48.696-17.88 81.083-41.68 101.020-83.234 10.179-21.21 15.197-49.93 24.076-38.026 0 0 4.011 12.325 6.231 18.592z"></path>
</svg>
