<!-- Generated by IcoMoon.io -->
<svg version="1.1" xmlns="http://www.w3.org/2000/svg" width="1200" height="1200" viewBox="0 0 1200 1200">
<title>type-flying-sw</title>
<path d="M459.6 273.823h374.843c0.066 0 0.144 0 0.221 0 124.867 0 235.85-59.454 306.177-151.6l0.684-0.933c0 11.822 1.73 23.932 1.73 36.043-0.28 186.635-127.168 343.554-299.362 389.488l-2.82 0.64c-30.791 8.425-66.143 13.263-102.629 13.263-0.009 0-0.014 0-0.023 0h-126.005c-0.654-0.091-1.405-0.144-2.171-0.144-9.077 0-16.436 7.359-16.436 16.436s7.359 16.436 16.436 16.436c0.766 0 1.518-0.053 2.256-0.154l-0.084 0.011h241.055c0.284 0.002 0.618 0.002 0.954 0.002 105.045 0 198.468-49.752 257.991-126.976l0.564-0.761c-27.981 159.315-165.306 278.827-330.546 278.827-0.267 0-0.533 0-0.802-0.002h-121.639c-8.093 1.111-14.262 7.979-14.262 16.291s6.169 15.182 14.177 16.28l0.084 0.011h214.24c52.318-0.074 101.194-14.756 142.78-40.188l-1.205 0.684c-38.638 89.195-121.765 152.508-220.624 162.248l-1.111 0.088h-74.968c-9.077 0-16.436 7.359-16.436 16.436v0c0 0 0 0.002 0 0.004 0 8.918 7.23 16.146 16.146 16.146 0.101 0 0.203-0.002 0.304-0.004h27.090c5.858 0.046 10.589 4.805 10.589 10.669 0 2.783-1.066 5.318-2.811 7.216l0.007-0.009c-73.896 79.127-178.839 128.446-295.301 128.446-36.268 0-71.419-4.784-104.857-13.753l2.822 0.645c-144.741-37.356-255.812-150.926-288.976-294.326l-0.519-2.668c-6.621-27.374-10.419-58.804-10.419-91.117 0-222.655 180.262-403.206 402.805-403.677h0.046z"></path>
</svg>
