<!-- Generated by IcoMoon.io -->
<svg version="1.1" xmlns="http://www.w3.org/2000/svg" width="1200" height="1200" viewBox="0 0 1200 1200">
<title>type-bug-alt</title>
<path d="M571.791 125.695c-22.024 2.521-64.853 11.58-79.685 16.859-61.448 21.884-88.567 36.599-132.645 71.98-54.247 43.545-75.908 75.946-66.546 99.529 16.957 42.7 147.217 116.535 225.916 128.054 135.975 19.908 243.216-6.19 347.631-84.595 55.843-41.934 57.956-62.107 11.47-109.267-30.896-31.336-61.341-55.095-93.258-72.773-8.986-4.98-17.981-10.127-19.988-11.446s-10.962-5.058-19.9-8.311c-8.939-3.255-23.714-8.644-32.842-11.963-40.032-14.577-101.434-22.494-140.149-18.073zM207.364 401.316c-18.63 8.511-43.698 55.172-54.357 101.179-1.979 8.542-5.558 21.745-7.95 29.336-11.883 37.693-20.559 131.109-16.385 176.412 1.114 12.128 2.823 30.976 3.786 41.891 3.613 40.768 6.717 54.037 26.474 113.034 28.755 85.875 89.057 168.79 154.62 212.596 42.785 28.59 56.25 28.604 66.083 0.063 2.366-6.866 18.661-55.345 20.918-64.049s27.28-85.798 30.113-92.932c2.837-7.133 43.611-137.092 46.71-148.005s17.704-53.323 20.736-64.714c3.037-11.388 29.202-93.41 32.936-104.536 16.020-47.745 2.655-67.712-53.619-80.095-46.467-10.229-143.066-51.3-162.206-68.972-2.372-2.19-10.915-8.727-18.983-14.52-8.068-5.796-21.171-15.529-29.111-21.618-23.029-17.657-43.043-22.704-59.762-15.073zM956.698 402.273c-5.484 2.255-17.445 9.805-26.57 16.781-40.92 31.276-54.227 40.338-76.766 52.298-41.171 21.845-93.639 42.006-130.877 50.284-56.545 12.574-68.667 31.625-52.113 81.907 3.888 11.809 39.108 125.36 44.21 140.545 12.054 35.905 24.329 75.404 26.816 86.285 1.082 4.745 37.091 113.387 40.465 125.423s42.942 131.082 48.168 136.308c22.004 22.004 106.438-43.732 161.071-125.404 28.274-42.267 41.508-71.851 62.51-139.784 22.627-73.18 25.233-208.225 5.452-282.154-2.92-10.915-7.937-29.941-11.154-42.281-3.209-12.34-8.501-28.648-11.764-36.238-3.255-7.595-8.113-19.124-10.791-25.629-15.105-36.705-39.507-50.339-68.659-38.348zM555.416 789.987c-19.208 3.939-40.157 58.24-29.911 77.517 9.073 17.073 46.249 25.129 96.47 20.902 56.354-4.745 67.716-21.594 46.998-69.698-13.072-30.354-10.938-29.391-65.558-29.68-23.254-0.121-44.855 0.306-48 0.955zM498.084 949.017c-12.313 6.206-21.292 27.264-23.529 55.174l-1.068 13.32 6.768 6.768c26.892 26.892 145.573 34.686 210.509 13.821 35.388-11.372 39.626-16.677 34.532-43.269-8.878-46.307-18.207-53.141-64.036-46.949-31.604 4.274-92.862 4.329-120.698 0.104-25.368-3.847-33.184-3.663-42.471 1.021z"></path>
</svg>
