<!-- Generated by IcoMoon.io -->
<svg version="1.1" xmlns="http://www.w3.org/2000/svg" width="1200" height="1200" viewBox="0 0 1200 1200">
<title>type-fighting-alt</title>
<path d="M210.364 163.996c-14.734 3.068-23.882 11.374-28.987 26.316-2.95 8.636-4.233 370.351-1.378 388.833 4.607 29.851 22.969 40.237 73.109 41.355 34.659 0.771 46.113-2.617 63.176-13.295 19.495-12.203 16.16-19.044 17.368-212.886 1.423-228.254 1.833-215.306-22.215-227.115-9.18-4.508-83.508-6.866-101.077-3.211zM441.203 163.922c-20.566 4.382-29.061 14.34-32.786 38.405-3.503 22.63-3.327 377.462 0.363 388.316 8.235 24.221 54.036 32.367 79.3 30.49 27.025-2.003 47.671-7.229 63.954-21.138 15.103-12.905 12.521-35.545 12.186-212.903-0.404-212.818-4.47-202.184-7.009-207.496-2.573-5.394-12.318-15.335-25.688-16.526-11.17-0.994-41.617-0.325-41.617-0.325-22.891-0.179-44.803 0.349-48.701 1.178zM670.368 163.891c-16.638 2.996-26.244 11.517-30.851 27.35-4.857 16.716 1.396 285.557 1.396 285.557h146.733c0 0 6.877-269.339 2.259-284.627-5.996-19.873-18.172-26.579-29.645-27.939-17.426-2.064-85.412-1.151-89.892-0.347zM899.569 163.949c-14.895 3.123-23.244 9.627-29.582 23.030-5.396 11.421 0.418 289.82 0.418 289.82h145.459c0 0 7.007-271.104 2.586-285.981-3.204-10.794-11.503-20.959-20.263-24.818-7.199-3.173-85.5-4.802-98.619-2.051zM682.936 539.262c-32.796 6.717-44.844 30.765-44.891 89.568-0.055 63.184 10.342 89.194 38.474 96.278 14.954 3.764 345.081-0.265 345.081-0.265v-181.992c0 0-321.216-7.158-338.664-3.588zM213.824 718.607c-31.871 5.441-33.765 11.333-33.806 105.068-0.047 119.304 1.425 122.043 97.373 181.252 14.123 8.713 28.863 18.383 32.761 21.489 3.896 3.102 10.672 7.711 15.054 10.24s13.546 8.278 20.365 12.786c58.52 38.66 121.423 52.418 174.843 38.236 9.48-2.515 28.206-6.245 41.617-8.289 13.413-2.039 31.159-6.011 39.437-8.831 8.278-2.817 24.614-7.175 36.305-9.684 11.691-2.513 26.832-6.592 33.647-9.073 6.819-2.484 21.163-6.795 31.88-9.585 36.725-9.558 47.836-12.83 60.741-17.877 7.111-2.776 21.524-7.437 32.029-10.352 10.502-2.919 23.858-7.24 29.675-9.602 5.815-2.359 17.109-5.964 25.096-8.003 7.99-2.039 23.087-7.623 33.547-12.407 10.46-4.786 21.414-9.266 24.336-9.96 18.557-4.382 60.39-23.467 73.495-33.529 32.788-25.161 39.676-43.191 38.658-101.264-0.639-36.541-1.772-40.942-12.664-49.061-5-3.727-5.003-3.727-212.513-4.612l-236.716-1.008v-55.204c0 0-2.094-3.812-6.555-7.084-4.811-3.523-12.029-3.961-12.029-3.961l-161.599-0.462c-86.78-0.251-161.021 0.091-164.987 0.771z"></path>
</svg>
