<!-- Generated by IcoMoon.io -->
<svg version="1.1" xmlns="http://www.w3.org/2000/svg" width="1200" height="1200" viewBox="0 0 1200 1200">
<title>type-grass-sw</title>
<path d="M970.895 968.921c-93.684 111.034-232.917 181.077-388.511 181.077-83.3 0-161.912-20.077-231.259-55.655l2.856 1.331c-7.827-3.913-15.657-8.13-23.183-12.646l92.13-126.454 430.545-72.258c7.696-1.527 13.419-8.225 13.419-16.257 0-9.1-7.339-16.487-16.423-16.56h-0.007l-353.469 3.913 154.454-210.756 273.381-55.098c8.524-0.919 15.104-8.077 15.104-16.77 0-0.455-0.018-0.908-0.053-1.355l0.004 0.061c-0.759-8.341-7.721-14.828-16.196-14.828-0.553 0-1.097 0.027-1.637 0.082l0.068-0.006-202.929-5.118 210.756-286.328c2.95-3.707 4.731-8.456 4.731-13.625 0-6.554-2.869-12.438-7.418-16.463l-0.023-0.020c-3.696-3.019-8.466-4.847-13.662-4.847-6.565 0-12.446 2.918-16.424 7.527l-0.023 0.027-245.984 255.918-40.043-199.016c-0.919-8.524-8.077-15.104-16.77-15.104-0.455 0-0.908 0.018-1.355 0.053l0.061-0.004c-8.341 0.759-14.828 7.721-14.828 16.196 0 0.553 0.027 1.097 0.082 1.637l-0.006-0.068-6.925 279.101-180.648 188.779-61.423-350.457c-0.906-8.371-7.932-14.83-16.468-14.83-0.563 0-1.118 0.027-1.663 0.082l0.069-0.006c-8.327 0.592-14.862 7.493-14.862 15.92 0 0.65 0.039 1.291 0.115 1.921l-0.007-0.076 4.516 435.061-108.39 112.603c-5.72-6.623-11.14-13.548-16.257-20.475-63.039-83.602-100.962-189.233-100.962-303.72 0-124.546 44.879-238.61 119.348-326.899l-0.625 0.761c180.648-214.37 546.461-284.221 880.961-261.036 79.486 325.467 75.872 698.505-104.174 914.681z"></path>
</svg>
