<!-- Generated by IcoMoon.io -->
<svg version="1.1" xmlns="http://www.w3.org/2000/svg" width="1200" height="1200" viewBox="0 0 1200 1200">
<title>type-normal</title>
<path d="M1037.623 391.304c53.946-74.176 42.016-178.613-29.221-238.436-69.163-58.097-169.792-53.774-234.112 6.743-54.984-20.921-114.635-32.508-176.883-32.508s-121.898 11.585-176.883 32.508c-64.148-60.517-164.779-64.665-234.113-6.743-71.409 59.827-83.167 164.087-29.221 238.436-37.521 70.027-58.788 149.909-58.788 234.804 0 275.091 223.912 499.004 499.004 499.004s499.004-223.912 499.004-499.004c0-84.896-21.266-164.779-58.788-234.804zM597.407 986.789c-198.84 0-360.681-161.841-360.681-360.681s161.841-360.681 360.681-360.681c198.84 0 360.681 161.841 360.681 360.681s-161.841 360.681-360.681 360.681z"></path>
</svg>
