<!-- Generated by IcoMoon.io -->
<svg version="1.1" xmlns="http://www.w3.org/2000/svg" width="1200" height="1200" viewBox="0 0 1200 1200">
<title>type-ground-alt</title>
<path d="M106.794 883.453c-6.746 3.543-11.939 12.52-17.459 30.25-5.946 19.112 2.351 38.65 25.834 49.608 6.204 2.905 440.955 190.066 484.826 189.852 44.503-0.219 476.613-186.007 483.219-189.059 28.755-13.266 34.717-31.202 24.909-58.056-11.664-31.979-21.933-19.486-82.451 4.754-5.618 2.248-407.634 161.556-425.678 162.217-16.202 0.593-421.123-160.973-439.516-169.305-34.976-15.837-46.982-23.766-53.684-20.259zM577.816 550.898c-6.834 2.773-18.040 6.715-24.906 8.759-6.87 2.040-17.764 5.985-24.22 8.767-6.452 2.786-327.737 129.947-332.838 131.721-14.074 4.886-60.762 28.404-68.393 34.45-17.318 13.72-18.335 40.386-2.183 57.363 4.487 4.723 46.559 26.407 65.595 33.816 5.196 2.020 338.058 137.228 346.358 139.165 8.304 1.937 47.651 20.009 62.766 19.605 16.812-0.45 48.364-14.964 61.809-20.331 19.912-7.954 345.354-136.829 371.79-149.748 10.5-5.133 27.129-12.341 32.828-16.020 23.145-14.964 26.875-45.217 7.655-62.14-7.32-6.443-59.435-33.573-70.74-36.82-2.359-0.673-11.249-4.595-19.753-8.712-17.733-8.571-332.762-130.163-342.681-133.474-9.922-3.307-21.063-7.396-24.909-8.702-15.932-5.42-16.063-6.682-38.187 2.311zM538.732 365.501c0-5.953-4.834-10.787-10.787-10.787h-94.063c-5.953 0-10.787 4.834-10.787 10.787v94.063c0 5.953 4.834 10.787 10.787 10.787h94.063c5.953 0 10.787-4.834 10.787-10.787v-94.063zM983.557 264.349c0-7.504-6.093-13.596-13.596-13.596h-118.522c-7.504 0-13.596 6.093-13.596 13.596v118.522c0 7.504 6.093 13.596 13.596 13.596h118.522c7.504 0 13.596-6.093 13.596-13.596v-118.522zM363.66 151.596c0-9.018-7.316-16.338-16.334-16.338h-142.444c-9.018 0-16.338 7.32-16.338 16.338v142.444c0 9.018 7.32 16.338 16.338 16.338h142.444c9.018 0 16.334-7.32 16.334-16.338v-142.444z"></path>
</svg>
