<!-- Generated by IcoMoon.io -->
<svg version="1.1" xmlns="http://www.w3.org/2000/svg" width="1200" height="1200" viewBox="0 0 1200 1200">
<title>type-fairy-sw</title>
<path d="M1134.034 573.913l-227.365-135.375c-4.489-2.605-7.459-7.389-7.459-12.866 0-1.481 0.219-2.912 0.622-4.262l-0.027 0.104 37.62-140.868c0.296-1.129 0.469-2.427 0.469-3.763 0-8.491-6.886-15.377-15.377-15.377-1.336 0-2.633 0.17-3.871 0.492l0.108-0.023-140.868 37.62c-1.245 0.377-2.675 0.594-4.159 0.594-5.477 0-10.262-2.972-12.831-7.389l-0.039-0.071-134-227.365c-5.433-8.879-15.077-14.716-26.086-14.716s-20.653 5.835-26.011 14.583l-0.076 0.135-135.375 227.365c-2.605 4.489-7.389 7.459-12.866 7.459-1.481 0-2.912-0.219-4.262-0.622l0.104 0.027-140.868-37.62c-1.129-0.296-2.427-0.469-3.763-0.469-8.491 0-15.377 6.886-15.377 15.377 0 1.336 0.17 2.633 0.492 3.871l-0.023-0.108 37.62 140.868c0.377 1.245 0.594 2.675 0.594 4.159 0 5.477-2.972 10.262-7.389 12.831l-0.071 0.039-228.736 135.375c-8.879 5.433-14.716 15.077-14.716 26.086s5.835 20.653 14.583 26.011l0.135 0.076 227.365 135.375c4.489 2.605 7.459 7.389 7.459 12.866 0 1.481-0.219 2.912-0.622 4.262l0.027-0.104-37.62 140.868c-0.296 1.129-0.469 2.427-0.469 3.763 0 8.491 6.886 15.377 15.377 15.377 1.336 0 2.633-0.17 3.871-0.492l-0.108 0.023 140.868-37.62c1.245-0.377 2.675-0.594 4.159-0.594 5.477 0 10.262 2.972 12.831 7.389l0.039 0.071 135.375 227.365c5.433 8.879 15.077 14.716 26.086 14.716s20.653-5.835 26.011-14.583l0.076-0.135 135.375-227.365c2.605-4.489 7.389-7.459 12.866-7.459 1.481 0 2.912 0.219 4.262 0.622l-0.104-0.027 140.868 37.62c1.129 0.296 2.427 0.469 3.763 0.469 8.491 0 15.377-6.886 15.377-15.377 0-1.336-0.17-2.633-0.492-3.871l0.023 0.108-37.62-140.868c-0.377-1.245-0.594-2.675-0.594-4.159 0-5.477 2.972-10.262 7.389-12.831l0.071-0.039 227.365-134c9.55-5.272 15.911-15.28 15.911-26.773s-6.361-21.5-15.755-26.693l-0.157-0.080zM679.859 685.946l-67.274 116.428c-2.445 5.242-7.671 8.811-13.731 8.811s-11.286-3.567-13.691-8.716l-0.039-0.093-67.274-116.428c-1.421-2.231-3.259-4.070-5.421-5.449l-116.5-67.316c-5.242-2.445-8.811-7.671-8.811-13.731s3.567-11.286 8.716-13.691l0.093-0.039 116.428-67.274c2.231-1.421 4.070-3.259 5.449-5.421l67.316-116.5c2.445-5.242 7.671-8.811 13.731-8.811s11.286 3.567 13.691 8.716l0.039 0.093 67.274 116.428c1.421 2.231 3.259 4.070 5.421 5.449l116.5 67.316c5.242 2.445 8.811 7.671 8.811 13.731s-3.567 11.286-8.716 13.691l-0.093 0.039-116.428 67.274c-2.231 1.421-4.070 3.259-5.449 5.421l-0.041 0.071z"></path>
</svg>
