<!-- Generated by IcoMoon.io -->
<svg version="1.1" xmlns="http://www.w3.org/2000/svg" width="1200" height="1200" viewBox="0 0 1200 1200">
<title>type-ghost-alt</title>
<path d="M554.236 144.027c-6.86 0.837-20.084 3.918-29.393 6.846s-22.937 6.648-30.28 8.273c-84.007 18.571-199.826 126.836-230.475 215.45-2.36 6.809-6.836 18.296-9.959 25.533-3.12 7.232-7.952 23.664-10.74 36.514s-6.279 28.579-7.758 34.951c-4.827 20.825-7.406 69.54-5.004 94.563 2.419 25.191 13.084 45.821 10.471 50.269-3.466 5.897-25.991-3.611-43.167-9.565-48.449-16.784-84.434-8.596-117.055 26.639-18.612 20.1-40.618 58.324-47.706 82.874-2.965 10.266-9.435 31.125-11.864 37.568-16.059 42.668 15.127 59.748 52.671 28.842 11.884-9.788 25.949-29.119 35.75-26.065 10.942 3.403 19.609 23.644 31.87 44.564 44.749 76.345 76.368 85.411 128.175 36.755 17.996-16.908 28.631-33.472 37.318-32.965 7.055 0.41 12.94 15.018 19.477 26.246 2.599 4.47 11.372 17.412 19.493 28.767 8.123 11.355 17.808 25.952 21.521 32.433 20.795 36.289 101.508 122.394 138.246 147.473 8.013 5.473 18.926 12.934 24.245 16.573 48.349 33.103 97.116 31.757 146.058-4.035 6.443-4.711 16.506-11.693 22.366-15.519 30.189-19.729 114.866-111.582 135.321-146.8 3.7-6.368 13.286-20.798 21.3-32.065s17.251-24.73 20.521-29.912c5.487-8.698 10.44-21.676 16.046-21.477 8.227 0.294 18 18.482 34.076 34.118 55.625 54.082 89.13 44.239 137.709-40.454 10.747-18.734 17.665-37.934 28.942-43.693 7.154-3.652 20.344 13.904 37.82 27.151 36.506 27.681 64.070 6.5 46.802-35.952-2.392-5.879-7.324-21.778-9.319-29.614-3.477-13.638-5.564-18.132-22.954-49.361-35.010-62.887-82.056-83.351-142.563-62.017-14.98 5.282-39.477 20.153-41.106 14.67-1.316-4.425 5.367-20.657 6.611-35.542 2.405-28.836 1.407-87.823-1.771-104.664-6.908-36.598-13.535-64.904-17.099-73.035-2.145-4.898-6.921-17.324-10.607-27.609-26.304-73.397-112.61-171.755-172.001-196.027-2.938-1.2-16.165-7.26-29.393-13.466-51.929-24.361-121.383-34.719-182.583-27.226zM442.377 342.346c65.187 30.349 106.725 147.398 71.255 200.782-28.321 42.623-103.295-16.719-121.884-96.472-16.883-72.432 8.182-124.076 50.634-104.309zM783.823 340.182c50.003 14.943 36.098 136.227-21.86 190.693-29.967 28.16-52.070 33.895-69.598 18.055-55.376-50.030 23.107-229.17 91.458-208.748z"></path>
</svg>
