<!-- Generated by IcoMoon.io -->
<svg version="1.1" xmlns="http://www.w3.org/2000/svg" width="1200" height="1200" viewBox="0 0 1200 1200">
<title>type-grass-alt</title>
<path d="M778.184 125.159c-11.337 3.299-182.314 383.34-182.314 383.34s-38.733 266.523-40.553 296.104c-2.152 35.058-8.021 99.179-10.535 115.084-5.619 35.539 2.699 62.070 19.477 62.070 7.167 0 20.998-15.791 31.366-32.696 10.202-16.631 53.523-105.050 98.756-193.827 34.978-68.64 65.808-129.15 65.808-129.15s27.109-244.795 28.538-255.375c9.877-73.119 18.382-199.894 15.009-223.72-2.845-20.077-10.131-26.296-25.554-21.813zM469.723 316.934c-5.433 5.616-12.675 15.791-16.405 23.050-6.606 12.866-294.973 659.381-296.648 662.748-3.987 8.005-18.894 50.57-19.294 55.075-0.755 8.638 0.417 13.22 4.678 18.288 9.854 11.709 4.18 11.209 123.291 10.91 175.14-0.439 166.644 3.279 180.523-79.025 3.326-19.714 58.345-566.741 60.69-582.209 3.238-21.347 4.875-90.824 2.364-100.532-5.445-21.059-23.212-24.825-39.198-8.306zM1034.026 316.582c-5.538 3.008-27.545 31.958-39.424 51.873-4.562 7.649-12.797 20.906-18.301 29.47-5.504 8.561-123.091 215.198-133.568 236.078-3.57 7.117-9.606 18.030-13.413 24.25-5.992 9.797-130.621 258.959-130.621 259.693s-46.964 105.274-50.755 111.757c-13.816 23.65-12.97 43.436 2.157 50.382 7.739 3.557 235.922 6.216 251.409 2.933 27.799-5.898 40.909-21.032 47.388-54.709 1.877-9.742 5.707-25.97 8.522-36.068 2.811-10.098 79.199-462.602 82.109-477.751 2.909-15.155 6.896-42.296 8.865-60.318 4.421-40.58 9.561-79.998 13.281-101.831 5.179-30.418-7.436-46.732-27.65-35.76z"></path>
</svg>
