<!-- Generated by IcoMoon.io -->
<svg version="1.1" xmlns="http://www.w3.org/2000/svg" width="1200" height="1200" viewBox="0 0 1200 1200">
<title>type-poison-sw</title>
<path d="M1148.51 536.92c0-259.020-246.221-469.587-548.511-469.587s-548.511 210.567-548.511 469.587c2.759 141.244 71.471 265.886 176.517 344.745l1.138 0.818c-13.055 24.532-20.722 53.645-20.722 84.548 0 0.273 0 0.545 0.002 0.816v-0.041c0 91.42 63.993 164.856 142.918 164.856 60.243-2.405 110.701-41.75 129.511-95.899l0.305-1.003c15.432 53.479 62.043 92.675 118.4 96.877l0.443 0.026c56.927-4.099 103.682-43.336 118.914-95.961l0.233-0.942c19.113 55.154 69.573 94.498 129.538 96.893l0.277 0.009c78.925 0 142.918-73.745 142.918-164.856 0.002-0.23 0.002-0.503 0.002-0.775 0-30.904-7.668-60.015-21.203-85.541l0.48 0.99c106.070-79.732 174.668-204.366 177.345-345.135l0.007-0.427zM599.998 821.235c-200.51 0-363.54-127.68-363.54-284.312s163.030-284.312 363.54-284.312 363.54 127.377 363.54 284.312-163.030 284.312-363.54 284.312z"></path>
</svg>
