<!-- Generated by IcoMoon.io -->
<svg version="1.1" xmlns="http://www.w3.org/2000/svg" width="1200" height="1200" viewBox="0 0 1200 1200">
<title>type-water</title>
<path d="M869.379 655.339c0 0-68.162-118.079-100.693-168.341-33.909-52.843-65.753-115.842-90.54-217.054-24.785-101.038-38.211-198.464-78.145-198.464s-53.36 97.254-78.145 198.464c-24.785 101.038-56.631 164.038-90.54 217.054-32.36 50.434-100.693 168.341-100.693 168.341-29.141 48.418-44.495 103.913-44.411 160.423 0 172.645 141.144 312.756 313.789 312.756s313.789-139.941 313.789-312.756c0-58.696-16.352-113.433-44.411-160.423zM599.999 1057.948c-140.8 0-251.48-104.998-251.48-180.734 0-50.089 110.678 43.377 251.48 43.377s251.48-93.466 251.48-43.377c0 75.908-110.678 180.734-251.48 180.734z"></path>
</svg>
