<!-- Generated by IcoMoon.io -->
<svg version="1.1" xmlns="http://www.w3.org/2000/svg" width="1200" height="1200" viewBox="0 0 1200 1200">
<title>type-ice-alt</title>
<path d="M602.249 59.421c-3.929 0-7.859 1.501-10.856 4.499l-94.643 94.643c-5.994 5.991-5.994 15.718 0 21.712l94.643 94.643c2.017 2.017 4.448 3.353 7.029 4.011l-274.031 158.215c0.695-1.755 1.071-3.656 1.071-5.653v-133.854c0-8.471-6.879-15.355-15.355-15.355h-133.847c-8.471 0-15.355 6.879-15.355 15.355v133.854c0 8.471 6.879 15.343 15.355 15.343h133.847c3.918 0 7.501-1.46 10.216-3.891v319.636c-2.715-2.421-6.299-3.891-10.216-3.891h-133.847c-8.471 0-15.355 6.879-15.355 15.355v133.847c0 8.48 6.879 15.355 15.355 15.355h133.847c8.471 0 15.355-6.875 15.355-15.355v-133.847c0-2.537-0.612-4.928-1.699-7.041l272.613 157.391c-1.814 0.75-3.509 1.86-4.982 3.333l-94.643 94.643c-5.994 5.994-5.994 15.727 0 21.712l94.643 94.65c5.994 5.991 15.715 5.991 21.705 0l94.651-94.65c5.991-5.991 5.991-15.718 0-21.712l-94.651-94.643c-1.473-1.473-3.168-2.578-4.982-3.333l273.062-157.645c-1.171 2.168-1.845 4.654-1.845 7.294v133.847c0 8.48 6.879 15.355 15.355 15.355h133.854c8.471 0 15.343-6.875 15.343-15.355v-133.847c0-8.471-6.872-15.355-15.343-15.355h-133.854c-4.069 0-7.767 1.579-10.514 4.171v-319.757c2.747 2.589 6.441 4.182 10.514 4.182h133.854c8.471 0 15.343-6.879 15.343-15.355v-133.847c0-8.471-6.872-15.355-15.343-15.355h-133.854c-8.471 0-15.355 6.879-15.355 15.355v133.847c0 1.866 0.34 3.654 0.95 5.305l-274.215-158.316c2.576-0.659 5.016-1.995 7.029-4.011l94.651-94.643c5.991-5.994 5.991-15.727 0-21.712l-94.651-94.643c-2.995-2.998-6.915-4.499-10.849-4.499zM571.146 381.084l38.728 61.138-141.059 88.262v162.79h-71.644v-204.472l173.97-107.718z"></path>
</svg>
