<!-- Generated by IcoMoon.io -->
<svg version="1.1" xmlns="http://www.w3.org/2000/svg" width="1200" height="1200" viewBox="0 0 1200 1200">
<title>type-psychic</title>
<path d="M597.54 235.658c4.755 0 9.674 2.624 11.805 7.87 42.961 103.138 144.13 169.218 253.662 169.218 11.641 0 23.448-0.82 35.254-2.296h1.804c10.33 0 16.561 11.97 10.002 20.66-75.098 98.054-75.098 235.133-0.328 333.352 6.558 8.527 0.164 20.496-10.002 20.496h-1.804c-11.805-1.475-23.448-2.296-35.089-2.296-109.532 0-210.702 65.917-253.662 169.218-2.132 5.248-7.050 7.87-11.805 7.87s-9.674-2.624-11.805-7.87c-42.961-103.138-144.13-169.218-253.662-169.218-11.641 0-23.448 0.82-35.254 2.296h-1.804c-10.33 0-16.561-11.97-10.002-20.66 75.098-98.054 75.098-235.133 0.328-333.352-6.558-8.527-0.164-20.496 10.002-20.496h1.804c11.805 1.475 23.448 2.296 35.089 2.296 109.532 0 210.702-65.917 253.662-169.218 2.132-5.248 7.050-7.87 11.805-7.87zM597.54 93.004c-62.965 0-119.371 37.549-143.475 95.759-20.168 48.536-69.196 81.329-121.993 81.329-5.576 0-11.15-0.328-16.725-1.148-6.558-0.82-13.282-1.311-20.004-1.311-59.357 0-112.812 33.122-139.211 86.412-26.415 52.799-20.365 116.305 15.578 163.151 35.91 47.223 35.91 113.14 0 160.199-36.123 46.814-42.321 110.418-15.906 163.315 25.908 53.078 80.133 86.805 139.211 86.576 6.722 0 13.446-0.492 20.168-1.311 5.576-0.656 11.313-1.148 16.889-1.148 52.799 0 101.825 32.63 121.993 81.329 24.267 58.209 80.51 95.759 143.475 95.759s119.371-37.549 143.475-95.759c20.168-48.536 69.196-81.329 121.993-81.329 5.576 0 11.15 0.328 16.725 1.148 6.558 0.82 13.282 1.311 20.004 1.311 59.357 0 112.812-33.122 139.211-86.412 26.415-52.799 20.365-116.305-15.578-163.151-35.91-47.223-35.91-113.14 0-160.199 36.237-47.387 42.305-109.86 15.906-163.315-25.908-53.078-80.133-86.805-139.211-86.576-6.722 0-13.446 0.492-20.168 1.311-5.576 0.656-11.313 1.148-16.889 1.148-52.799 0-101.825-32.63-121.993-81.329-23.924-57.948-80.771-95.906-143.475-95.759z"></path>
</svg>
