<!-- Generated by IcoMoon.io -->
<svg version="1.1" xmlns="http://www.w3.org/2000/svg" width="1200" height="1200" viewBox="0 0 1200 1200">
<title>type-psychic-sw</title>
<path d="M529.731 52.313l31.011-2.309c9.898 0 19.465 0 29.361 0 158.766 1.225 302.905 62.85 410.786 162.998l-0.387-0.355c84.183 83.562 137.682 197.933 142.165 324.779l0.025 0.837c0 7.917 0 15.834 0 23.754-2.109 35.004-7.402 67.707-15.634 99.219l0.786-3.546c-17.13 69.705-49.854 130.177-94.371 179.863l0.347-0.393c-45.364 49.1-102.56 86.612-167.088 108.060l-2.812 0.812c-26.784 9.4-58.242 16.808-90.738 20.879l-2.292 0.233c-14.503 1.74-31.303 2.732-48.33 2.732s-33.827-0.993-50.338-2.924l2.006 0.191c-69.21-7.037-131.549-31.702-183.889-69.39l1.124 0.77c-54.205-39.083-94.866-93.938-115.509-157.794l-0.616-2.208c-9.304-28.477-14.725-61.254-14.845-95.28v-0.061c-0.030-1.534-0.046-3.34-0.046-5.154 0-33.612 5.818-65.865 16.501-95.809l-0.621 1.992c34.486-95.692 118.509-165.509 220.314-178.986l1.382-0.149c136.911-17.484 230.933 82.146 237.861 164.952 9.237 98.972-24.083 150.107-83.796 177.49-15.379 5.975-33.178 9.438-51.788 9.438-52.171 0-97.986-27.213-124.025-68.223l-0.355-0.599c-1.891-3.868-2.995-8.418-2.995-13.222 0-12.414 7.373-23.108 17.98-27.936l0.193-0.079c3.741-1.597 8.093-2.527 12.664-2.527 12.632 0 23.603 7.099 29.147 17.523l0.087 0.177c9.555 16.518 27.138 27.454 47.277 27.454 10.046 0 19.457-2.721 27.538-7.468l-0.255 0.139c21.611-17.741 35.288-44.456 35.288-74.366 0-9.712-1.443-19.089-4.124-27.925l0.177 0.681c-8.827-34.458-37.052-60.47-72.083-65.916l-0.498-0.064c-8.578-1.88-18.431-2.955-28.538-2.955s-19.959 1.076-29.454 3.121l0.915-0.165c-20.291 3.776-38.352 11.021-54.409 21.157l0.633-0.374c-30.614 19.495-52.726 50.014-60.857 85.842l-0.176 0.921c-2.2 9.819-3.459 21.1-3.459 32.671 0 7.561 0.538 14.993 1.577 22.266l-0.096-0.834c2.875 20.434 8.071 38.891 15.396 56.228l-0.55-1.465c29.76 75.6 101.837 128.275 186.307 128.992h0.090c68.316-2.256 129.712-30.143 175.247-74.292l-0.067 0.064c41.215-46.612 66.381-108.251 66.381-175.771 0-5.132-0.145-10.226-0.431-15.285l0.033 0.701s-2.97-137.57-93.694-215.098c-59.455-50.78-137.223-81.681-222.21-81.681-6.664 0-13.289 0.191-19.86 0.564l0.911-0.040c-2.46-0.061-5.354-0.093-8.261-0.093-89.114 0-170.767 31.948-234.132 85.014l0.571-0.465c-22.874 21.943-42.843 46.634-59.453 73.614l-0.919 1.605c-35.080 57.298-56.832 126.149-59.363 199.882l-0.018 0.7c-0.24 4.189-0.376 9.088-0.376 14.019s0.137 9.833 0.407 14.696l-0.030-0.677c-0.219 3.697-0.347 8.020-0.347 12.371s0.125 8.675 0.374 12.964l-0.028-0.594c2.14 21.308 5.048 39.99 8.87 58.335l-0.622-3.572c7.891 40.242 19.296 75.81 34.269 109.441l-1.277-3.211c29.899 68.634 77.666 124.781 137.487 164.086l1.403 0.864c128.661 83.796 301.53 88.416 468.793 48.168v0c2.075-1.098 4.533-1.743 7.146-1.743 5.407 0 10.17 2.768 12.943 6.964l0.036 0.059c5.278 9.567-4.948 18.804-7.917 21.114-61.379 48.199-139.747 77.3-224.916 77.3-3.045 0-6.079-0.039-9.104-0.111l0.449 0.011c-465.163 0-570.732-332.214-584.918-380.051-6.237-20.011-12.090-44.926-16.341-70.384l-0.484-3.513c-1.978-12.206-3.959-26.063-4.948-40.248s-1.978-24.742-1.978-37.609c0-457.907 375.759-565.784 472.423-565.784z"></path>
</svg>
