<svg aria-hidden="true" style="position: absolute; width: 0; height: 0; overflow: hidden;" version="1.1" xmlns="http://www.w3.org/2000/svg" xmlns:xlink="http://www.w3.org/1999/xlink">
<defs>
<symbol id="pkg-search" viewBox="0 0 1200 1200">
<title>search</title>
<path d="M447.185 756.032q128.686 0 218.767-90.081t90.081-218.767-90.081-218.767-218.767-90.081-218.767 90.081-90.081 218.767 90.081 218.767 218.767 90.081zM858.981 756.032l341.019 341.019-102.949 102.949-341.019-341.019v-54.691l-19.303-19.303q-122.252 106.166-289.545 106.166-186.595 0-316.89-128.686t-130.295-315.281 130.295-316.89 316.89-130.295 315.281 130.295 128.686 316.89q0 67.56-32.171 152.815t-73.995 136.73l19.303 19.303h54.691z"></path>
</symbol>
<symbol id="pkg-brightness-sun2" viewBox="0 0 1200 1200">
<title>brightness-sun2</title>
<path d="M140.426 984.257l97.022-99.574 76.596 76.596-97.022 99.574zM546.382 1196.171v-160.852h107.234v160.852h-107.234zM600 271.915q135.319 0 231.063 95.745t95.745 231.063-95.745 231.063-231.063 95.745-231.063-95.745-95.745-231.063 95.745-231.063 231.063-95.745zM1036.596 545.107h163.404v109.788h-163.404v-109.788zM885.959 961.279l76.596-74.044 97.022 97.022-76.596 76.596zM1059.574 215.746l-97.022 97.022-76.596-76.596 97.022-97.022zM653.618 3.83v160.852h-107.234v-160.852h107.234zM163.404 545.107v109.788h-163.404v-109.788h163.404zM314.041 236.17l-76.596 76.596-97.022-97.022 76.596-76.596z"></path>
</symbol>
<symbol id="pkg-brightness-moon" viewBox="0 0 1200 1200">
<title>brightness-moon</title>
<path d="M466.901 74.999q219.366 0 373.414 154.049t154.049 370.951-154.049 370.951-373.414 154.049q-142.958 0-261.267-69.015 120.773-69.015 191.021-191.021t70.247-264.964-70.247-264.964-191.021-191.021q118.309-69.015 261.267-69.015z"></path>
</symbol>
<symbol id="pkg-brightness-sun" viewBox="0 0 1200 1200">
<title>brightness-sun</title>
<path d="M600 918.673q131.951 0 225.312-93.361t93.361-225.312-93.361-225.312-225.312-93.361-225.312 93.361-93.361 225.312 93.361 225.312 225.312 93.361zM1025.726 776.763v248.962h-248.962l-176.763 174.274-176.763-174.274h-248.962v-248.963l-174.274-176.763 174.274-176.763v-248.963h248.962l176.763-174.274 176.763 174.274h248.962v248.963l174.274 176.763z"></path>
</symbol>
<symbol id="pkg-live-tv" viewBox="0 0 1200 1200">
<title>live-tv</title>
<path d="M436.596 490.213l380.426 219.574-380.426 217.021v-436.596zM1090.213 1036.596v-653.617h-980.426v653.617h980.426zM1090.213 273.191q45.957 0 77.872 31.915t31.915 77.872v653.617q0 43.404-33.191 75.319t-76.596 31.915h-980.426q-43.404 0-76.596-31.915t-33.191-75.319v-653.617q0-45.957 31.915-77.872t77.872-31.915h413.617l-178.724-178.724 38.298-38.298 217.021 217.021 217.021-217.021 38.298 38.298-178.724 178.724h413.617z"></path>
</symbol>
<symbol id="pkg-fullscreen-exit" viewBox="0 0 1200 1200">
<title>fullscreen-exit</title>
<path d="M942.282 257.718h257.718v169.127h-426.846v-426.846h169.127v257.718zM773.154 1200v-426.846h426.846v169.127h-257.718v257.718h-169.127zM257.718 257.718v-257.718h169.127v426.846h-426.846v-169.127h257.718zM0 942.282v-169.127h426.846v426.846h-169.127v-257.718h-257.718z"></path>
</symbol>
<symbol id="pkg-fullscreen" viewBox="0 0 1200 1200">
<title>fullscreen</title>
<path d="M773.154 0h426.846v426.846h-169.127v-257.718h-257.718v-169.127zM1030.873 1030.873v-257.718h169.127v426.846h-426.846v-169.127h257.718zM0 426.846v-426.846h426.846v169.127h-257.718v257.718h-169.127zM169.127 773.154v257.718h257.718v169.127h-426.846v-426.846h169.127z"></path>
</symbol>
<symbol id="pkg-tv" viewBox="0 0 1200 1200">
<title>tv</title>
<path d="M1090.213 873.192v-653.617h-980.426v653.617h980.426zM1090.213 109.788q43.404 0 76.596 33.191t33.191 76.596l-2.554 653.617q0 43.404-31.915 75.319t-75.319 31.915h-273.191v109.787h-434.043v-109.787h-273.191q-43.404 0-76.596-31.915t-33.191-75.319v-653.617q0-43.404 33.191-76.596t76.596-33.191h980.426z"></path>
</symbol>
<symbol id="pkg-brightness" viewBox="0 0 1200 1200">
<title>brightness</title>
<path d="M600 436.596v326.809q66.383 0 114.894-48.511t48.511-114.894-48.511-114.894-114.894-48.511zM382.979 817.021v-135.319l-81.702-81.702 81.702-81.702v-135.319h135.319l81.702-81.702 81.702 81.702h135.319v135.319l81.702 81.702-81.702 81.702v135.319h-135.319l-81.702 81.702-81.702-81.702h-135.319zM1090.213 982.979v-765.957h-980.426v765.957h980.426zM1090.213 109.787q43.404 0 76.596 33.191t33.191 76.596v760.852q0 43.404-33.191 76.596t-76.596 33.191h-980.426q-43.404 0-76.596-33.191t-33.191-76.596v-760.852q0-43.404 33.191-76.596t76.596-33.191h980.426z"></path>
</symbol>
<symbol id="pkg-bike" viewBox="0 0 1200 1200">
<title>bike</title>
<path d="M585 180c-24.938 0-45 20.063-45 45s20.063 45 45 45h48.187l64.875 120h-280.125l-51.375-71.25c-8.438-11.813-22.125-18.75-36.563-18.75h-105c-24.938 0-45 20.063-45 45s20.063 45 45 45h81.937l41.438 57.563-49.875 99.562c-18.75-4.688-38.438-7.125-58.5-7.125-132.563 0-240 107.438-240 240s107.438 240 240 240c122.438 0 223.313-91.688 238.125-210h91.875c15.938 0 30.563-8.438 38.813-22.125l159-269.063 40.688 75.188c-54 44.063-88.5 111-88.5 186 0 132.563 107.438 240 240 240s240-107.438 240-240-107.438-240-240-240c-25.313 0-49.687 3.938-72.562 11.25l-183.563-339.75c-10.5-19.5-30.75-31.5-52.875-31.5h-66zM859.875 689.438l60.562 111.937c11.813 21.938 39.188 30 60.938 18.188s30-39.187 18.188-60.938l-60.562-111.938c6.75-1.125 13.875-1.688 21-1.688 74.625 0 135 60.375 135 135s-60.375 135-135 135-135-60.375-135-135c0-34.875 13.125-66.562 34.875-90.562zM249.75 810h121.875c-13.688 60.188-67.5 105-131.625 105-74.625 0-135-60.375-135-135s60.375-135 135-135c3.188 0 6.375 0.187 9.563 0.375l-45.375 90.938c-16.875 33.938 7.688 73.875 45.563 73.875zM312.938 720l95.063-189.938 136.687 189.75-0.188 0.188h-231.75zM482.813 480h203.25l-91.688 155.25-111.75-155.25z"></path>
</symbol>
<symbol id="pkg-box-opaque" viewBox="0 0 1200 1200">
<title>box-opaque</title>
<path d="M581.953 4.57c11.25-6.094 24.609-6.094 35.859 0l446.951 243.749c11.953 6.563 19.453 19.219 19.453 32.813s-7.5 26.25-19.453 32.813l-446.716 243.749c-11.25 6.094-24.609 6.094-35.859 0l-446.951-243.749c-11.953-6.563-19.453-19.219-19.453-32.813s7.5-26.25 19.453-32.813l446.716-243.749zM130.549 398.318l412.498 224.999c11.953 6.563 19.453 19.219 19.453 32.813v506.248c0 13.125-7.031 25.547-18.281 32.344s-25.547 7.031-37.031 0.703l-412.732-225.233c-11.953-6.563-19.453-18.984-19.453-32.813v-506.248c0-13.125 7.031-25.547 18.281-32.344s25.547-7.031 37.031-0.703zM1069.685 398.318c11.719-6.328 25.781-6.094 37.031 0.703s18.281 18.984 18.281 32.344v506.013c0 13.828-7.5 26.25-19.453 32.813l-412.498 224.999c-11.719 6.328-25.781 6.094-37.031-0.703s-18.281-18.984-18.281-32.344v-506.013c0-13.828 7.5-26.25 19.453-32.813l412.498-224.999z"></path>
</symbol>
<symbol id="pkg-ring" viewBox="0 0 1200 1200">
<title>ring</title>
<path d="M150 487.5c0 18.281 10.313 43.828 40.078 71.016 106.406-56.719 252.656-89.766 409.922-89.766s303.516 33.047 409.922 89.766c29.766-27.188 40.078-52.734 40.078-71.016 0-28.828-25.313-75-112.266-118.594-82.5-41.25-201.797-68.906-337.734-68.906s-255.234 27.656-337.734 68.906c-86.953 43.594-112.266 89.766-112.266 118.594zM600 581.25c-110.156 0-209.297 17.813-288.047 46.172 77.813 29.297 177.422 47.578 288.047 47.578s210.234-18.281 288.047-47.578c-78.75-28.359-177.891-46.172-288.047-46.172zM0 487.5c0-116.25 92.344-201.094 195.234-252.656 107.344-53.672 250.781-84.844 404.766-84.844s297.422 31.172 404.766 84.844c102.891 51.563 195.234 136.406 195.234 252.656v225c0 116.25-92.344 201.094-195.234 252.656-107.344 53.672-250.781 84.844-404.766 84.844s-297.422-31.172-404.766-84.844c-102.891-51.563-195.234-136.406-195.234-252.656v-225z"></path>
</symbol>
<symbol id="pkg-brand-patreon" viewBox="0 0 1200 1200">
<title>brand-patreon</title>
<path d="M1200 456.563c0 237.422-193.125 430.781-430.781 430.781-238.359 0-432.188-193.125-432.188-430.781 0-238.125 193.828-431.953 432.188-431.953 237.656 0 430.781 193.828 430.781 431.953zM0 1175.391h210.938v-1150.781h-210.938v1150.781z"></path>
</symbol>
<symbol id="pkg-motorbike" viewBox="0 0 1200 1200">
<title>motorbike</title>
<path d="M525 180.094c-24.937 0-45 20.063-45 45s20.063 45 45 45h108.187l30.75 56.813-183.938 153.188-84.938-84.938c-22.5-22.5-53.063-35.063-84.938-35.063h-190.125c-33.188 0-60 26.813-60 60v60h180c165.75 0 300 134.25 300 300 0 20.625-2.063 40.688-6 60h132c-3.938-19.313-6-39.375-6-60 0-97.875 46.875-184.875 119.438-239.625l28.875 53.625c-53.813 44.063-88.313 111-88.313 186 0 132.563 107.438 240 240 240s240-107.438 240-240-107.438-240-240-240c-25.313 0-49.688 3.938-72.562 11.25l-103.313-191.25h115.875c33.188 0 60-26.813 60-60v-60c0-33.187-26.813-60-60-60h-38.25c-14.063 0-27.563 4.875-38.438 13.875l-88.875 74.063-26.25-48.75c-13.125-24.188-38.437-39.375-66-39.375h-117.188zM867.563 703.594l52.875 97.875c11.813 21.938 39.188 30 60.938 18.187s30-39.187 18.187-60.938l-52.875-97.875c4.313-0.563 8.813-0.75 13.313-0.75 66.188 0 120 53.812 120 120s-53.813 120-120 120-120-53.812-120-120c0-29.062 10.312-55.687 27.563-76.5zM351.188 825.094c-17.813 44.063-60.938 75-111.188 75-66.187 0-120-53.812-120-120s53.813-120 120-120c50.438 0 93.563 30.938 111.188 75h124.5c-21-111-118.5-195-235.688-195-132.563 0-240 107.438-240 240s107.438 240 240 240c117.188 0 214.688-84 235.875-195h-124.688zM240 840.094c33.188 0 60-26.813 60-60s-26.813-60-60-60-60 26.813-60 60 26.813 60 60 60z"></path>
</symbol>
<symbol id="pkg-gem" viewBox="0 0 1200 1200">
<title>gem</title>
<path d="M273.555 88.474c10.547-14.297 27.422-22.969 45.234-22.969h562.502c17.813 0 34.688 8.438 45.234 22.969l262.501 356.252c15.938 21.563 14.297 51.328-3.516 71.25l-543.752 600.004c-10.781 11.719-25.781 18.516-41.719 18.516s-30.938-6.797-41.719-18.516l-543.752-600.004c-18.047-19.922-19.453-49.688-3.516-71.25l262.501-356.252zM363.79 181.755c-7.734 5.859-9.844 16.406-4.922 24.609l134.532 224.064-345.001 28.828c-9.609 0.703-17.109 8.906-17.109 18.75s7.5 17.813 17.109 18.75l450.002 37.5c0.938 0 2.109 0 3.047 0l450.002-37.5c9.609-0.703 17.109-8.906 17.109-18.75s-7.5-17.813-17.109-18.75l-344.767-28.594 134.532-224.064c4.922-8.203 2.813-18.984-4.922-24.609s-18.516-4.688-25.078 2.344l-211.173 228.517-211.173-228.751c-6.563-7.031-17.344-7.969-25.078-2.344z"></path>
</symbol>
<symbol id="pkg-gem-outline" viewBox="0 0 1200 1200">
<title>gem-outline</title>
<path d="M1190.317 460.079l-244.155-361.068c-10.564-15.612-30.050-24.885-46.718-24.885h-603.11c-16.669 0-34.041 9.273-44.605 24.791l-242.043 361.068c-14.818 21.826-12.398 50.991 5.648 70.171l542.541 577.991c10.785 11.386 25.575 17.725 41.070 17.725s30.379-6.418 41.013-17.718l544.654-577.991c18.148-19.14 20.495-48.251 5.705-70.084zM895.923 225.761l149.31 223.989h-328.905l179.595-223.989zM598.945 418.996l-184.056-232.182h367.876l-183.82 232.182zM301.968 225.761l177.482 223.989h-328.812l151.329-223.989zM598.945 987.361l-400.461-424.924h801.016l-400.555 424.924z"></path>
</symbol>
<symbol id="pkg-dragon" viewBox="0 0 1200 1200">
<title>dragon</title>
<path d="M660.037 353.455l-97.305-24.374c-12.186-3-21.186-13.311-22.499-25.874s5.25-24.561 16.311-30.185l76.495-38.248-80.994-60.745c-10.311-7.688-14.624-21.186-10.499-33.56s15.561-20.436 28.498-20.436h299.98c56.621 0 110.055 26.623 143.991 71.995l107.993 143.991c11.624 15.561 17.999 34.498 17.999 53.996 0 49.684-40.31 89.994-89.994 89.994h-40.31c-31.873 0-62.433-12.561-84.932-35.060l-24.749-24.936h-59.996v40.31c0 46.496 23.999 89.807 63.37 114.554l199.861 124.867c60.184 37.685 96.743 103.493 96.743 174.551 0 113.617-92.057 205.673-205.861 205.673h-933.499c-6.188 0-12.374-0.75-17.999-2.625-17.249-5.25-31.31-17.999-38.060-34.685-2.625-6.375-4.125-12.936-4.5-20.061-0.375-6.937 0.563-13.686 2.438-20.061 5.25-17.249 17.999-31.31 34.873-38.248 5.625-2.25 11.624-3.75 17.811-4.125l757.261-67.683c15.561-1.313 27.56-14.436 27.56-30.185 0-8.062-3.188-15.749-8.811-21.374l-83.244-83.244c-56.246-56.246-87.932-132.553-87.932-212.048v-192.175zM960.016 255.587c0-0.188 0-0.375 0-0.563s0-0.375 0-0.563v1.125zM957.58 269.461l-86.994-21.749c-0.375 2.438-0.563 4.875-0.563 7.313 0 24.936 20.061 44.996 44.996 44.996 19.874 0 36.56-12.749 42.56-30.56zM245.503 338.456c30.56-27.185 75.745-30.373 109.68-7.688l244.859 163.114v51.746c0 61.495 15.749 121.492 44.996 174.363h-434.971c-12.561 0-23.811-7.875-28.123-19.499s-0.938-24.936 8.625-33.185l130.116-111.743-286.105 44.059c-13.124 2.063-26.060-4.875-31.685-16.874s-2.813-26.435 7.125-35.248l235.484-209.048z"></path>
</symbol>
<symbol id="pkg-crown" viewBox="0 0 1200 1200">
<title>crown</title>
<path d="M643.751 287.501c23.75-14.583 39.584-41.041 39.584-70.833 0-46.042-37.291-83.333-83.333-83.333s-83.333 37.291-83.333 83.333c0 30 15.833 56.25 39.584 70.833l-119.375 238.75c-18.959 37.917-68.125 48.75-101.25 22.291l-185.625-148.542c10.417-13.958 16.666-31.25 16.666-50 0-46.042-37.291-83.333-83.333-83.333s-83.333 37.291-83.333 83.333 37.291 83.333 83.333 83.333c0.417 0 1.042 0 1.458 0l95.208 523.75c11.459 63.333 66.667 109.583 131.25 109.583h577.5c64.375 0 119.583-46.042 131.25-109.583l95.208-523.75c0.417 0 1.042 0 1.458 0 46.042 0 83.333-37.291 83.333-83.333s-37.291-83.333-83.333-83.333-83.333 37.291-83.333 83.333c0 18.75 6.25 36.042 16.666 50l-185.625 148.542c-33.125 26.459-82.291 15.625-101.25-22.291l-119.375-238.75z"></path>
</symbol>
<symbol id="pkg-scroll" viewBox="0 0 1200 1200">
<title>scroll</title>
<path d="M0 233.333v100c0 36.875 29.791 66.667 66.667 66.667h133.334v-166.666c0-55.208-44.791-100-100-100s-100 44.791-100 100zM233.333 133.334c20.834 27.916 33.333 62.5 33.333 100v633.333c0 73.542 59.791 133.334 133.334 133.334s133.334-59.791 133.334-133.334v-11.041c0-67.5 54.792-122.292 122.292-122.292h344.375v-400c0-110.416-89.583-200-200-200h-566.667zM966.667 1066.666c128.958 0 233.333-104.375 233.333-233.333 0-18.333-15-33.333-33.333-33.333h-511.042c-30.625 0-55.625 24.792-55.625 55.625v11.041c0 110.416-89.583 200-200 200h566.667z"></path>
</symbol>
<symbol id="pkg-tower" viewBox="0 0 1200 1200">
<title>tower</title>
<path d="M120 430.5v-390.5c0-22 18-40 40-40h140c22 0 40 18 40 40v100c0 11 9 20 20 20h80c11 0 20-9 20-20v-100c0-22 18-40 40-40h200c22 0 40 18 40 40v100c0 11 9 20 20 20h80c11 0 20-9 20-20v-100c0-22 18-40 40-40h140c22 0 40 18 40 40v390.5c0 30.25-17 58-44.25 71.5l-71.5 35.75c-27 13.5-44.25 41.25-43.75 71.5 5 212.5 39.5 350.75 39.5 350.75h-719.999s34.5-138.25 39.5-350.5c0.75-30.25-16.5-58-43.75-71.5l-71.5-36c-27.25-13.5-44.25-41.25-44.25-71.5zM559.999 720h80c22 0 40-18 40-40v-120c0-44.25-35.75-80-80-80s-80 35.75-80 80v120c0 22 18 40 40 40zM199.999 1040h799.999c44.25 0 80 35.75 80 80s-35.75 80-80 80h-799.999c-44.25 0-80-35.75-80-80s35.75-80 80-80z"></path>
</symbol>
<symbol id="pkg-tower-outline" viewBox="0 0 1200 1200">
<title>tower-outline</title>
<path d="M1020 1080h-842.25c-30.875 0-57.75 26.75-57.75 57.75s26.875 62.25 57.75 62.25h842.25c33.25 0 60-26.75 60-60s-26.75-60-60-60zM982.75 0h-770c-50.25 0-92.75 42.5-92.75 95v348.5c0 23.5 10 45.25 27.5 60.5l92.5 80.5c0 22.213 0.127 44.1 0.127 66.15 0 98.3-2.502 199.9-29.825 349.5h122.5c24.574-144.4 27.473-246.9 27.473-366.4 0-37-0.275-76-0.275-118.25l-120-104.25v-291.25h160v120h120v-120h160v120h120v-120h160v291.25l-120 104.25c0 41.925-0.281 80.625-0.281 117.75 0 119.475 2.91 222.875 27.475 366.75h122.5c-27.3-149.575-29.825-251.5-29.825-349.75-0.118-22 0.131-43.75 0.131-65.75l92.5-80.325c17.5-15.425 27.5-37.175 27.5-60.675v-348.5c0-52.5-42.5-95-97.25-95zM600 480c-44 0-80 36-80 80v160h160v-160c0-44-36-80-80-80z"></path>
</symbol>
<symbol id="pkg-crown-queen" viewBox="0 0 1200 1200">
<title>crown-queen</title>
<path d="M731.25 131.25c0-72.422-58.828-131.25-131.25-131.25s-131.25 58.828-131.25 131.25 58.828 131.25 131.25 131.25 131.25-58.828 131.25-131.25zM150 1125c0 41.484 33.516 75 75 75h750c41.484 0 75-33.516 75-75s-33.516-75-75-75h-750c-41.484 0-75 33.516-75 75zM79.688 397.031l-58.125 38.438c-13.359 9.141-21.563 24.375-21.563 40.547 0 7.5 1.641 15 5.156 21.797l238.594 477.187h712.5l238.594-477.188c3.281-6.797 5.156-14.297 5.156-21.797 0-16.172-8.203-31.406-21.563-40.547l-58.125-38.438c-19.219-12.656-44.531-10.313-60.938 6.094-30.234 30.234-72.422 51.328-112.5 36.328-41.953-15.703-65.859-47.109-76.875-83.906-8.672-29.766-32.578-55.547-63.75-55.547h-37.5c-31.172 0-56.016 26.25-69.375 54.375-13.594 28.594-41.719 58.125-99.375 58.125s-85.781-29.531-99.375-58.125c-13.359-28.125-38.203-54.375-69.375-54.375h-37.5c-31.172 0-55.078 25.781-63.984 55.547-11.016 36.562-34.922 68.203-76.875 83.906-39.844 15-82.266-6.328-112.5-36.328-16.172-16.172-41.719-18.75-60.703-6.094z"></path>
</symbol>
<symbol id="pkg-crown-queen-outline" viewBox="0 0 1200 1200">
<title>crown-queen-outline</title>
<path d="M601.015 262.5c72.375 0 131.25-58.875 131.25-131.25s-58.828-131.25-131.25-131.25-133.359 58.875-133.359 131.25 60.938 131.25 133.359 131.25zM1198.905 462.656c0-12.136-5.88-23.906-16.631-31.078l-64.697-37.359c-5.859-4.102-12.884-6.141-19.915-6.141-12.893 0.293-24.914 6.727-32.227 16.98-21.096 28.125-54.281 44.836-89.438 44.836-7.324 0-14.271-0.593-21.302-2.058-54.211-9.961-91.125-61.523-91.125-116.602-2.166-17.173-16.228-31.235-31.462-31.235h-90.82c-14.065 0-27.258 9.375-30.188 23.145-11.18 52.090-56.883 89.355-112.195 89.355-53.32 0-99.023-37.219-110.156-89.344-0.938-13.781-13.828-23.156-28.125-23.156h-90.82c-19.336 0-33.398 14.063-33.398 31.406 0 43.336-32.016 118.641-112.383 118.641-35.461 0-68.672-16.683-89.766-45.094-5.273-10.266-16.852-16.594-29.766-16.828-7.031 0-13.901 2.098-19.763 6.199l-67.102 37.5c-10.732 6.926-16.613 18.879-16.613 30.832 0 5.714 1.309 11.487 4.031 16.84l253.547 533.004h124.523l-218.391-458.438c19.922 5.625 40.453 8.438 61.242 8.438 5.7 0 133.195 3.523 198.656-123.047 40.688 53.906 107.484 85.547 176.156 85.547 68.859 0 133.617-31.359 176.391-84.961 11.578 23.086 69 122.461 198.844 122.461 20.51 0 41.016-2.637 60.937-8.203l-217.969 458.203h124.523l253.359-532.969c2.742-5.391 2.039-11.25 2.039-16.875zM994.765 1087.5h-787.547c-31.078 0-56.25 25.195-56.25 54.141s25.172 58.359 56.25 58.359h787.5c31.078 0 56.25-25.195 56.25-54.141s-25.031-58.359-56.203-58.359z"></path>
</symbol>
<symbol id="pkg-diamond" viewBox="0 0 1200 1200">
<title>diamond</title>
<path d="M3.477 415.774l575.084 713.768-230.626-713.768h-344.457zM410.43 415.774l203.67 715.227 175.255-715.227h-378.925zM645.090 1129.542l553.622-713.768h-341.796l-211.826 713.768zM1200 369.074l-165.983-283.807-166.069 283.807h332.053zM981.821 68.999h-332.053l165.983 293.551 166.069-293.551zM764.718 369.074l-165.983-283.807-166.027 283.807h332.010zM550.145 68.999h-332.010l166.027 293.551 165.983-293.551zM165.983 85.267l-165.983 283.807h332.010l-166.027-283.807z"></path>
</symbol>
<symbol id="pkg-view-grid-4x" viewBox="0 0 1200 1200">
<title>view-grid-4x</title>
<path d="M0 525h525v-525h-525v525zM675 0v525h525v-525h-525zM675 1200h525v-525h-525v525zM0 1200h525v-525h-525v525z"></path>
</symbol>
<symbol id="pkg-view-grid-9x" viewBox="0 0 1200 1200">
<title>view-grid-9x</title>
<path d="M0 300h300v-300h-300v300zM450 300h300v-300h-300v300zM900 0v300h300v-300h-300zM0 750h300v-300h-300v300zM450 750h300v-300h-300v300zM900 750h300v-300h-300v300zM0 1200h300v-300h-300v300zM450 1200h300v-300h-300v300zM900 1200h300v-300h-300v300z"></path>
</symbol>
<symbol id="pkg-view-sidebar" viewBox="0 0 1200 1200">
<title>view-sidebar</title>
<path d="M839.436 1081.691h-839.436v-963.381h839.436v963.381zM960.564 360.565h239.436v-242.254h-239.436v242.254zM960.564 1081.691h239.436v-242.254h-239.436v242.254zM960.564 721.129h239.436v-242.254h-239.436v242.254z"></path>
</symbol>
<symbol id="pkg-box-select" viewBox="0 0 1200 1200">
<title>box-select</title>
<path d="M901.409 1200v-118.31h180.281v-180.281h118.31v208.451q0 36.62-26.761 63.381t-63.381 26.761h-208.451zM298.591 1200h-208.451q-36.62 0-63.381-26.761t-26.761-63.381v-208.451h118.31v180.281h180.281v118.31zM901.409 0h208.451q36.62 0 63.381 26.761t26.761 63.381v208.451h-118.31v-180.281h-180.281v-118.31zM298.591 0v118.31h-180.281v180.281h-118.31v-208.451q0-36.62 26.761-63.381t63.381-26.761h208.451zM659.155 915.493l242.254-138.028v-276.056l-242.254 138.028v276.056zM600 535.212l239.436-138.028-239.436-140.845-239.436 140.845zM298.591 777.465l242.254 138.028v-276.056l-242.254-138.028v276.056zM974.648 335.211q45.070 28.17 45.070 78.873v380.282q0 50.705-45.070 78.873l-329.577 191.549q-45.070 28.17-90.141 0l-329.577-191.549q-45.070-28.17-45.070-78.873v-380.282q0-50.705 45.070-78.873l329.577-191.549q22.535-11.268 45.070-11.268t45.070 11.268z"></path>
</symbol>
<symbol id="pkg-view-horiz-3x-small" viewBox="0 0 1200 1200">
<title>view-horiz-3x-small</title>
<path d="M0 167.188h1200v134.375h-1200v-134.375zM0 432.812h1200v334.375h-1200v-334.375zM0 901.562h1200v131.25h-1200v-131.25z"></path>
</symbol>
<symbol id="pkg-view-vert-3x-rounded" viewBox="0 0 1200 1200">
<title>view-vert-3x-rounded</title>
<path d="M693.333 158.518q26.667 0 45.926 17.777t19.26 44.446v758.518q0 26.667-19.26 44.446t-45.926 17.777h-189.629q-26.667 0-44.446-17.777t-17.777-44.446v-758.518q0-26.667 17.777-44.446t44.446-17.777h189.629zM1137.778 158.518q26.667 0 44.446 17.777t17.777 44.446v758.518q0 26.667-17.777 44.446t-44.446 17.777h-189.629q-26.667 0-45.926-17.777t-19.26-44.446v-758.518q0-26.667 19.26-44.446t45.926-17.777h189.629zM251.851 158.518q26.667 0 44.446 17.777t17.777 44.446v758.518q0 26.667-17.777 44.446t-44.446 17.777h-189.629q-26.667 0-44.446-17.777t-17.777-44.446v-758.518q0-26.667 17.777-44.446t44.446-17.777h189.629z"></path>
</symbol>
<symbol id="pkg-view-horiz-2x" viewBox="0 0 1200 1200">
<title>view-horiz-2x</title>
<path d="M0 142.148h1200v423.141h-1200v-423.141zM0 1057.852v-423.141h1200v423.141h-1200z"></path>
</symbol>
<symbol id="pkg-view-mosaic" viewBox="0 0 1200 1200">
<title>view-mosaic</title>
<path d="M423.141 142.148h776.859v423.141h-776.859v-423.141zM846.281 1057.852v-423.141h353.719v423.141h-353.719zM0 1057.852v-915.702h353.719v915.702h-353.719zM423.141 1057.852v-423.141h353.719v423.141h-353.719z"></path>
</symbol>
<symbol id="pkg-view-grid-6x" viewBox="0 0 1200 1200">
<title>view-grid-6x</title>
<path d="M846.281 142.148h353.719v423.141h-353.719v-423.141zM423.141 565.289v-423.141h353.719v423.141h-353.719zM846.281 1057.852v-423.141h353.719v423.141h-353.719zM423.141 1057.852v-423.141h353.719v423.141h-353.719zM0 1057.852v-423.141h353.719v423.141h-353.719zM0 565.289v-423.141h353.719v423.141h-353.719z"></path>
</symbol>
<symbol id="pkg-view-list" viewBox="0 0 1200 1200">
<title>view-list</title>
<path d="M353.719 107.438h846.281v280.992h-846.281v-280.992zM353.719 1092.563v-280.992h846.281v280.992h-846.281zM353.719 742.148v-284.298h846.281v284.298h-846.281zM0 388.43v-280.992h284.298v280.992h-284.298zM0 1092.563v-280.992h284.298v280.992h-284.298zM0 742.148v-284.298h284.298v284.298h-284.298z"></path>
</symbol>
<symbol id="pkg-view-horiz-4x" viewBox="0 0 1200 1200">
<title>view-horiz-4x</title>
<path d="M0 77.193h1200v147.368h-1200v-147.368zM0 526.316v-150.878h1200v150.878h-1200zM0 1122.807v-147.368h1200v147.368h-1200zM0 824.562v-150.878h1200v150.878h-1200z"></path>
</symbol>
<symbol id="pkg-view-horiz-3x" viewBox="0 0 1200 1200">
<title>view-horiz-3x</title>
<path d="M0 31.111h1200v189.629h-1200v-189.629zM1137.778 348.148q26.667 0 44.445 17.777t17.777 44.445v379.26q0 26.667-17.777 44.445t-44.445 17.777h-1075.555q-26.667 0-44.445-17.777t-17.777-44.445v-379.26q0-26.667 17.777-44.445t44.445-17.777h1075.555zM0 1168.889v-189.629h1200v189.629h-1200z"></path>
</symbol>
<symbol id="pkg-view-vert-3x" viewBox="0 0 1200 1200">
<title>view-vert-3x</title>
<path d="M846.281 142.148h353.719v915.702h-353.719v-915.702zM0 1057.852v-915.702h353.719v915.702h-353.719zM423.141 1057.852v-915.702h353.719v915.702h-353.719z"></path>
</symbol>
<symbol id="pkg-view-slideshow-zoomed" viewBox="0 0 1200 1200">
<title>view-slideshow-zoomed</title>
<path d="M960.564 270.422h239.436v661.972h-239.436v-661.972zM0 932.394v-661.972h239.436v661.972h-239.436zM298.591 1050.704v-901.409h602.817v901.409h-602.817z"></path>
</symbol>
<symbol id="pkg-view-slideshow" viewBox="0 0 1200 1200">
<title>view-slideshow</title>
<path d="M284.298 1057.852v-915.703h634.711v915.703h-634.711zM988.43 142.148h211.57v915.703h-211.57v-915.703zM0 1057.852v-915.703h211.57v915.703h-211.57z"></path>
</symbol>
<symbol id="pkg-view-horiz-2x-rounded" viewBox="0 0 1200 1200">
<title>view-horiz-2x-rounded</title>
<path d="M1137.777 31.111q26.667 0 44.445 17.777t17.777 44.445v379.26q0 26.667-17.777 45.926t-44.445 19.26h-1075.555q-26.667 0-44.445-19.26t-17.777-45.926v-379.26q0-26.667 17.777-44.445t44.445-17.777h1075.555zM1137.777 662.222q26.667 0 44.445 19.26t17.777 45.926v379.26q0 26.667-17.777 44.445t-44.445 17.777h-1075.555q-26.667 0-44.445-17.777t-17.777-44.445v-379.26q0-26.667 17.777-45.926t44.445-19.26h1075.555z"></path>
</symbol>
<symbol id="pkg-view-mosaic-small" viewBox="0 0 1200 1200">
<title>view-mosaic-small</title>
<path d="M0 158.518h1200v379.26h-1200v-379.26zM441.482 1041.482v-441.482h758.518v441.482h-758.518zM0 1041.482v-441.482h379.26v441.482h-379.26z"></path>
</symbol>
<symbol id="pkg-view-grid-12x" viewBox="0 0 1200 1200">
<title>view-grid-12x</title>
<path d="M948.148 158.518h251.852v251.852h-251.852v-251.852zM948.148 1041.482v-251.852h251.852v251.852h-251.852zM631.111 1041.482v-251.852h254.815v251.852h-254.815zM317.037 1041.482v-251.852h251.852v251.852h-251.852zM0 1041.482v-251.852h251.852v251.852h-251.852zM948.148 727.407v-254.815h251.852v254.815h-251.852zM631.111 158.518h254.815v251.852h-254.815v-251.852zM317.037 410.371v-251.852h251.852v251.852h-251.852zM631.111 727.407v-254.815h254.815v254.815h-254.815zM317.037 727.407v-254.815h251.852v254.815h-251.852zM0 727.407v-254.815h251.852v254.815h-251.852zM0 410.371v-251.852h251.852v251.852h-251.852z"></path>
</symbol>
<symbol id="pkg-view-grid-4x-outline" viewBox="0 0 1200 1200">
<title>view-grid-4x-outline</title>
<path d="M1065.625 1065.625v-265.625h-265.625v265.625h265.625zM665.625 665.625h534.375v534.375h-534.375v-534.375zM1065.625 400v-265.625h-265.625v265.625h265.625zM665.625 0h534.375v534.375h-534.375v-534.375zM400 1065.625v-265.625h-265.625v265.625h265.625zM0 665.625h534.375v534.375h-534.375v-534.375zM400 400v-265.625h-265.625v265.625h265.625zM0 0h534.375v534.375h-534.375v-534.375z"></path>
</symbol>
<symbol id="pkg-bars" viewBox="0 0 1200 1200">
<title>bars</title>
<path d="M0 171.429c0-47.411 38.304-85.714 85.714-85.714h1028.571c47.411 0 85.714 38.304 85.714 85.714s-38.304 85.714-85.714 85.714h-1028.571c-47.411 0-85.714-38.304-85.714-85.714zM0 600c0-47.411 38.304-85.714 85.714-85.714h1028.571c47.411 0 85.714 38.304 85.714 85.714s-38.304 85.714-85.714 85.714h-1028.571c-47.411 0-85.714-38.304-85.714-85.714zM1200 1028.571c0 47.411-38.304 85.714-85.714 85.714h-1028.571c-47.411 0-85.714-38.304-85.714-85.714s38.304-85.714 85.714-85.714h1028.571c47.411 0 85.714 38.304 85.714 85.714z"></path>
</symbol>
<symbol id="pkg-user-circle-outline" viewBox="0 0 1200 1200">
<title>user-circle-outline</title>
<path d="M600 262.5c-113.906 0-206.25 92.344-206.25 206.25s92.344 206.25 206.25 206.25 206.25-92.344 206.25-206.25c0-113.906-92.344-206.25-206.25-206.25zM600 562.5c-51.703 0-93.75-42.070-93.75-93.75 0-51.797 41.953-93.75 93.75-93.75s93.75 42.047 93.75 93.75c0 51.797-41.953 93.75-93.75 93.75zM600 0c-331.406 0-600 268.594-600 600s268.594 600 600 600 600-268.594 600-600-268.594-600-600-600zM600 1087.5c-109.523 0-210.375-36.75-291.797-97.945 40.547-77.836 119.297-127.055 207.891-127.055h168.023c88.477 0 167.133 49.242 207.844 127.055-81.492 61.148-182.508 97.945-291.961 97.945zM975.469 910.547c-63.281-98.906-171.094-160.547-291.563-160.547h-167.813c-120.375 0-228.164 61.523-291.563 160.5-69.938-84.328-112.031-192.609-112.031-310.5 0-268.828 218.695-487.5 487.5-487.5s487.5 218.695 487.5 487.5c0 117.891-42.188 226.172-112.031 310.547z"></path>
</symbol>
<symbol id="pkg-user-circle" viewBox="0 0 1200 1200">
<title>user-circle</title>
<path d="M935.156 900.469c-51.797-90-149.063-150.469-260.156-150.469h-150c-111.094 0-208.359 60.469-260.156 150.469 82.5 91.875 202.031 149.531 335.156 149.531s252.656-57.891 335.156-149.531zM1200 600c0 331.406-268.594 600-600 600s-600-268.594-600-600 268.594-600 600-600 600 268.594 600 600zM600 637.5c93.281 0 168.75-75.469 168.75-168.75s-75.469-168.75-168.75-168.75-168.75 75.469-168.75 168.75 75.469 168.75 168.75 168.75z"></path>
</symbol>
<symbol id="pkg-cross-circle" viewBox="0 0 1200 1200">
<title>cross-circle</title>
<path d="M600 0c-331.452 0-600 268.548-600 600s268.548 600 600 600 600-268.548 600-600-268.548-600-600-600zM894.193 757.5c11.371 11.371 11.371 29.759 0 41.129l-95.807 95.564c-11.371 11.371-29.759 11.371-41.129 0l-157.259-158.709-157.5 158.709c-11.371 11.371-29.759 11.371-41.129 0l-95.564-95.807c-11.371-11.371-11.371-29.759 0-41.129l158.709-157.259-158.709-157.5c-11.371-11.371-11.371-29.759 0-41.129l95.807-95.807c11.371-11.371 29.759-11.371 41.129 0l157.259 158.952 157.5-158.709c11.371-11.371 29.759-11.371 41.129 0l95.807 95.807c11.371 11.371 11.371 29.759 0 41.129l-158.952 157.259 158.709 157.5z"></path>
</symbol>
<symbol id="pkg-brand-switch" viewBox="0 0 1200 1200">
<title>brand-switch</title>
<path d="M708.8 1200h183.7c168.8 0 307.5-138.7 307.5-307.5v-585c0-168.75-138.7-307.5-307.5-307.5h-187.5c-3.7 0-7.5 3.7-7.5 7.5v1185c-0.050 3.8 3.75 7.5 11.3 7.5zM937.5 540.050c67.55 0 119.95 56.25 119.95 119.9 0 67.6-56.25 120-119.95 120-67.5 0-120-52.45-120-120-3.75-67.45 52.5-119.9 120-119.9zM570 0h-262.5c-168.75 0-307.5 138.75-307.5 307.5v585c0 168.8 138.75 307.5 307.5 307.5h262.5c3.7 0 7.5-3.7 7.5-7.45v-1185.050c0.050-3.8-3.75-7.5-7.5-7.5zM483.8 1102.55h-176.3c-116.3 0-210.050-93.75-210.050-210.050v-585c0-116.3 93.75-210.050 210.050-210.050h172.5zM187.5 359.95c0 63.75 48.75 112.5 112.5 112.5s112.5-48.75 112.5-112.5c0-63.65-48.75-112.5-112.5-112.5s-112.5 48.85-112.5 112.5z"></path>
</symbol>
<symbol id="pkg-brand-3ds" viewBox="0 0 1200 1200">
<title>brand-3ds</title>
<path d="M882.65 831.503c0 19.662 15.939 35.6 35.6 35.6s35.6-15.939 35.6-35.6v0c0-19.662-15.939-35.6-35.6-35.6s-35.6 15.939-35.6 35.6v0zM410.15 1043.402h378.75c15 0 26.2-11.25 27.2-26.2v-258.75c-1-14.1-13.15-26.25-27.2-25.35h-378.75c-0.062 0-0.136-0.001-0.211-0.001-14.648 0-26.572 11.665-26.988 26.213l-0.001 0.039v257.8c0 15.050 12.2 26.25 27.2 26.25zM1062.7 867.152c0.015 0 0.033 0 0.050 0 20.13 0 36.45-16.32 36.45-36.45v0c0-0.015 0-0.033 0-0.050 0-20.159-16.342-36.5-36.5-36.5s-36.5 16.342-36.5 36.5c0 20.159 16.342 36.5 36.5 36.5v0zM990.55 866.202c-0.391-0.015-0.85-0.025-1.31-0.025-19.717 0-35.7 15.983-35.7 35.7s15.983 35.7 35.7 35.7c0.478 0 0.955-0.009 1.429-0.028l-0.068 0.002c19.123-0.752 34.339-16.436 34.339-35.674 0-19.255-15.245-34.951-34.323-35.674l-0.066-0.002zM954.9 759.353c0 19.662 15.939 35.6 35.6 35.6s35.6-15.939 35.6-35.6v0c0-19.662-15.939-35.6-35.6-35.6s-35.6 15.939-35.6 35.6v0zM127 830.603c0 45.564 36.936 82.5 82.5 82.5s82.5-36.936 82.5-82.5v0c0-45.564-36.936-82.5-82.5-82.5s-82.5 36.936-82.5 82.5v0zM1063.6 0.002h-927.2c-0.12 0-0.26-0.001-0.401-0.001-75.211 0-136.215 60.829-136.499 135.974v927.127c0.95 75.95 61.9 136.9 136.9 136.9h926.3c0.048 0 0.104 0 0.161 0 75.424 0 136.68-60.663 137.639-135.86l0.001-0.090v-927.2c-0.95-75.9-61.9-136.85-136.9-136.85zM1159.25 1064.052c-0.226 52.707-42.893 95.374-95.578 95.6h-927.272c-52.729-0.198-95.423-42.875-95.65-95.578v-422.821h1118.45zM1159.25 579.353h-1118.5v-442.5c0.198-52.746 42.904-95.452 95.631-95.65h927.219c52.45 0 95.6 43.15 95.6 95.65v442.5zM870.45 155.603h-543.75c-15 0-27.2 13.15-27.2 28.15v273.75c0 15 11.3 28.15 27.2 28.15h543.75c15.050-0.108 27.21-12.334 27.21-27.4 0-0.264-0.004-0.527-0.012-0.789l0.001 0.039v-274.7c0-0.015 0-0.033 0-0.050 0-14.994-12.156-27.15-27.15-27.15-0.018 0-0.035 0-0.053 0h0.002z"></path>
</symbol>
<symbol id="pkg-brand-gameboy" viewBox="0 0 1200 1200">
<title>brand-gameboy</title>
<path d="M966.673 0h-733.352c-29.727 0-53.865 24.121-53.865 53.87v1092.26c0 29.749 24.141 53.87 53.865 53.87h537.775c137.771 0 249.451-111.683 249.451-249.432v-896.698c0-29.749-24.143-53.87-53.873-53.87zM281.009 167.968c0-24.43 19.811-44.215 44.223-44.215h549.531c24.414 0 44.22 19.785 44.22 44.215v310.747c0 24.432-19.806 44.215-44.22 44.215h-549.529c-24.414 0-44.223-19.782-44.223-44.215v-310.747zM550.078 894.961c0 9.688-7.855 17.543-17.538 17.543h-64.965v64.962c0 9.69-7.85 17.543-17.541 17.543h-84.915c-9.688 0-17.543-7.85-17.543-17.543v-64.962h-64.954c-9.69 0-17.544-7.855-17.544-17.543v-84.919c0-9.688 7.855-17.543 17.544-17.543h64.957v-64.964c0-9.688 7.855-17.541 17.543-17.541h84.921c9.688 0 17.538 7.849 17.538 17.541v64.964h64.965c9.683 0 17.538 7.85 17.538 17.543v84.918h-0.008zM735.894 1020c-35.898 0-64.997-29.099-64.997-64.999 0-35.898 29.099-65.002 64.997-65.002 35.9 0 64.999 29.099 64.999 65.002 0.005 35.9-29.099 64.999-64.999 64.999zM855.894 820.002c-35.9 0-64.995-29.096-64.995-64.999 0-35.9 29.094-65.002 64.995-65.002 35.903 0 65.002 29.096 65.002 65.002 0 35.9-29.099 64.999-65.002 64.999z"></path>
</symbol>
<symbol id="pkg-brand-gameboy-outline" viewBox="0 0 1200 1200">
<title>brand-gameboy-outline</title>
<path d="M181.663 4.583c-39 14.106-65.681 46.69-72.098 87.748-1.542 10.004-2.313 204.736-1.8 519.027l0.771 502.863 5.903 14.621c13.604 33.355 41.045 58.752 72.87 67.226 14.878 4.102 43.103 4.358 345.847 3.587 327.895-1.029 329.684-1.029 350.205-6.417 49.262-13.348 93.391-38.742 128.278-73.886 46.69-46.946 72.87-104.168 78.258-170.621 3.33-40.287 3.33-832.044 0-855.64-5.132-36.429-28.225-67.739-61.323-84.146l-16.935-8.216-407.941-0.514c-400.998-0.503-408.173-0.503-422.034 4.372zM984.711 522.080c-0.257 467.205 1.029 439.239-19.236 479.782-18.991 38.486-49.777 65.681-93.135 82.616l-17.191 6.674-640.129 1.286v-985.216h769.693v414.859z"></path>
<path d="M303.28 168.531c-14.106 6.417-25.91 21.293-29.252 37.2-2.057 8.975-2.571 74.4-2.057 210.895l0.771 197.817 7.702 12.318c5.645 9.233 11.546 14.621 21.551 19.751l13.848 7.188 573.162-1.286 12.318-7.702c8.975-5.388 14.364-11.546 18.991-20.522l6.674-12.575 0.771-196.274c0.514-131.364-0.257-200.633-2.057-209.352-3.33-16.164-14.878-31.041-29.252-37.457-10.004-4.616-23.865-4.874-296.585-4.874-272.733 0-286.581 0.257-296.585 4.874zM820.507 408.679v137.265h-441.284v-274.532h441.284v137.265z"></path>
<path d="M381.783 765.301v55.164h-110.326v107.755h110.326v107.755h107.755v-107.755h110.326v-107.755h-110.326v-110.326h-107.755v55.164z"></path>
<path d="M858.221 767.358c-13.335 4.102-26.425 15.393-32.842 27.967-4.358 8.461-5.132 14.106-4.358 26.681 1.286 20.009 10.519 34.898 27.71 44.13 23.609 12.575 56.706 3.33 70.298-19.751 17.449-30.012 2.559-68.756-30.282-78.503-14.865-4.384-17.437-4.641-30.526-0.526z"></path>
<path d="M742.261 878.958c-21.551 10.004-33.87 32.070-31.297 54.906 2.057 16.164 8.216 26.681 21.807 37.2 37.2 28.481 91.078-4.616 84.146-51.833-2.057-13.348-14.106-30.783-26.681-37.971-12.318-7.175-35.4-8.204-47.975-2.302z"></path>
</symbol>
<symbol id="pkg-brand-gba" viewBox="0 0 1200 1200">
<title>brand-gba</title>
<path d="M81.229 76.45l130.077-76.448 907.433 523.85 0.565 597.507-133.618 78.415-0.173-0.102-0.565 0.329-904.249-528.28 0.53-595.27zM1015.018 1112.7h0.005l44.088-25.812-0.567-493.195-43.528 25.596v493.411zM985.345 566.536l43.297-25.249-817.091-471.697-40.481 23.755 814.274 473.19zM954.872 1112.153v-493.271l-813.422-473.157-0.565 491.467 813.988 474.962zM773.345 949.396l-482.855-281.055v-380.064l482.855 279.504v381.613zM708.843 604.976l-353.848-204.829v231.11l353.848 205.958v-232.235zM831.32 775.747l-37.404-21.796v67.61l37.404 21.741v57.493l65.38 40.582v-60.071l36.559 21.258-0.387-67.615-36.172-21.088v-58.488l-65.38-40.582v60.957zM202.652 465.070c1.157 27.178 14.473 48.686 29.741 48.040s26.709-23.209 25.553-50.388c-1.157-27.18-14.473-48.686-29.741-48.040s-26.709 23.208-25.553 50.388zM164.517 366.635c1.157 27.18 14.474 48.686 29.746 48.040s26.715-23.209 25.559-50.391-14.474-48.686-29.746-48.040c-15.273 0.65-26.714 23.215-25.559 50.391z"></path>
</symbol>
<symbol id="pkg-brand-playstation" viewBox="0 0 1200 1200">
<title>brand-playstation</title>
<path d="M449.208 129.787v877.376l195.744 63.049v-735.83c0-34.499 15.2-57.548 39.698-49.549 31.799 9.050 37.999 40.699 37.999 75.247v293.791c122.046 59.648 218.094-0.1 218.094-157.645 0-161.845-56.299-233.743-221.895-291.342-65.347-22.399-186.395-59.299-269.543-75.097zM682.001 941.865l314.791-113.747c35.749-12.9 41.299-31.249 12.3-40.898-29.299-9.6-81.847-6.95-117.846 6.15l-210.244 74.947v-119.246l12-4.25c0 0 60.049-21 145.646-30.749 84.798-9 189.245 1.45 271.843 33.049 92.398 30.049 102.048 73.597 78.798 103.597s-81.097 51.799-81.097 51.799l-427.188 155.345v-114.846zM90.367 929.965c-94.998-27.248-110.696-83.398-67.597-116.046 40.049-29.249 107.946-52.549 107.946-52.549l280.792-100.648v115.646l-201.244 73.597c-35.249 13.55-41.249 31.598-11.95 41.299 29.299 9.75 81.847 7.5 117.146-6l96.898-35.299v103.698c-6.050 1.45-12.8 2.2-19.55 3.65-96.898 16.55-199.744 9.8-301.842-23.948z"></path>
</symbol>
<symbol id="pkg-brand-xbox" viewBox="0 0 1200 1200">
<title>brand-xbox</title>
<path d="M205.1 1051.65c105.45 92.4 243.75 148.35 394.9 148.35 151.3 0 289.45-55.95 395.1-148.35 93.85-95.6-215.8-435.45-395.1-570.85-179.1 135.4-488.95 475.25-394.9 570.85zM763.1 331.35c125 148.050 374.2 515.65 303.8 645.6 83.2-102.95 133.1-233.9 133.1-376.75 0-167-68.25-318.1-178.5-426.8 0 0-1.35-1.1-4.1-2.1-3.15-1.1-7.6-2.25-14.050-2.25-29.6 0-99.25 21.7-240.25 162.3zM182.7 171.3c-2.85 1-4.1 2.050-4.3 2.1-110.15 108.7-178.4 259.8-178.4 426.8 0 142.7 49.9 273.65 133.050 376.65-70.050-130.25 178.95-497.55 304-645.5-141-140.65-210.8-162.25-240.3-162.25-6.55 0-11.15 1.050-14.050 2.3zM600 177.55c0 0-147.25-86.15-262.25-90.25-45.15-1.65-72.7 14.75-76.050 16.95 107.25-71.95 221.25-104.25 337.5-104.25h0.8c116.7 0 230.25 32.3 338.3 104.25-3.4-2.3-30.75-18.6-76-16.95-115 4.1-262.3 89.95-262.3 89.95z"></path>
</symbol>
<symbol id="pkg-brand-windows" viewBox="0 0 1200 1200">
<title>brand-windows</title>
<path d="M0.438 559.999l-0.437-390.093 480-65.18v455.272zM560 93.102l639.84-93.102v560h-639.84zM1199.999 640l-0.157 560-639.84-90.020v-469.98zM480.001 1099.794l-479.61-65.742-0.025-394.052h479.636z"></path>
</symbol>
<symbol id="pkg-brand-github" viewBox="0 0 1200 1200">
<title>brand-github</title>
<path d="M600.009 14.815c-331.334 0-600.009 268.615-600.009 599.998 0 265.095 171.919 489.998 410.316 569.339 29.984 5.552 41.006-13.020 41.006-28.866 0-14.302-0.563-61.573-0.816-111.708-166.931 36.3-202.153-70.793-202.153-70.793-27.284-69.347-66.619-87.792-66.619-87.792-54.436-37.24 4.113-36.473 4.113-36.473 60.234 4.23 91.964 61.835 91.964 61.835 53.522 91.723 140.363 65.203 174.614 49.873 5.377-38.773 20.92-65.25 38.093-80.231-133.277-15.166-273.37-66.621-273.37-296.522 0-65.505 23.442-119.032 61.828-161.048-6.23-15.117-26.782-76.139 5.803-158.789 0 0 50.398-16.116 165.047 61.512 47.855-13.298 99.183-19.964 150.18-20.196 50.979 0.232 102.347 6.898 150.3 20.196 114.532-77.63 164.831-61.512 164.831-61.512 32.662 82.65 12.129 143.672 5.902 158.789 38.461 42.019 61.751 95.545 61.751 161.048 0 230.454-140.365 281.191-273.973 296.044 21.52 18.621 40.692 55.132 40.692 111.108 0 80.283-0.698 144.895-0.698 164.658 0 15.97 10.807 34.68 41.217 28.788 238.268-79.425 409.971-304.249 409.971-569.259 0-331.383-268.634-599.998-599.991-599.998z"></path>
</symbol>
<symbol id="pkg-brand-android" viewBox="0 0 1200 1200">
<title>brand-android</title>
<path d="M1049.996 450.006c-41.25 0-75 33.75-75 75v299.998c0 41.25 33.75 75 75 75s75-33.75 75-75v-299.998c0-41.25-33.75-75-75-75zM150.004 450.006c-41.25 0-75 33.75-75 75v299.998c0 41.25 33.75 75 75 75s75-33.75 75-75v-299.998c0-41.25-33.752-75-75-75zM262.502 862.502c0 62.133 50.367 112.499 112.499 112.499v0 149.999c0 41.25 33.75 75 75 75s75-33.75 75-75v-149.999h149.999v149.999c0 41.25 33.75 75 75 75s75-33.75 75-75v-149.999c62.133 0 112.499-50.367 112.499-112.499v-412.496h-674.995v412.496z"></path>
<path d="M935.407 375.008c-11.386-102.988-69.145-191.943-151.897-245.677l37.528-75.054c9.262-18.523 1.753-41.048-16.77-50.311s-41.051-1.753-50.311 16.772l-37.666 75.335-9.785-3.886c-33.478-11.135-69.284-17.18-106.506-17.18-37.221 0-73.027 6.045-106.508 17.175l-9.783 3.886-37.666-75.33c-9.262-18.525-31.791-26.030-50.311-16.772-18.525 9.263-26.032 31.788-16.772 50.311l37.526 75.054c-82.752 53.733-140.511 142.689-151.9 245.674v37.5h672.912v-37.498h-2.091zM487.501 300.007c-20.712 0-37.5-16.791-37.5-37.5 0-20.681 16.744-37.451 37.418-37.495 0.038 0 0.073 0.002 0.11 0.002 0.021 0 0.042-0.002 0.061-0.002 20.67 0.049 37.411 16.816 37.411 37.495 0 20.709-16.788 37.5-37.5 37.5zM712.499 300.007c-20.712 0-37.5-16.791-37.5-37.5 0-20.679 16.741-37.446 37.411-37.495 0.019 0 0.040 0.002 0.059 0.002 0.038 0 0.075-0.002 0.112-0.002 20.672 0.045 37.418 16.814 37.418 37.495 0 20.709-16.788 37.5-37.5 37.5z"></path>
</symbol>
<symbol id="pkg-brand-apple" viewBox="0 0 1200 1200">
<title>brand-apple</title>
<path d="M927.536 637.608c-1.516-151.971 123.935-224.855 129.541-228.476-70.491-103.148-180.293-117.279-219.424-118.912-93.448-9.462-182.339 55.017-229.765 55.017-47.306 0-120.49-53.618-197.991-52.209-101.855 1.514-195.771 59.224-248.217 150.445-105.825 183.63-27.101 455.672 76.043 604.6 50.4 72.895 110.498 154.777 189.405 151.852 75.987-3.033 104.721-49.17 196.589-49.17s117.689 49.17 198.105 47.66c81.766-1.519 133.573-74.295 183.623-147.417 57.879-84.572 81.71-166.451 83.114-170.655-1.814-0.827-159.445-61.214-161.025-242.735zM776.439 191.627c41.88-50.81 70.148-121.303 62.437-191.627-60.326 2.456-133.451 40.184-176.73 90.879-38.838 44.972-72.83 116.749-63.72 185.667 67.343 5.255 136.088-34.223 178.013-84.919z"></path>
</symbol>
<symbol id="pkg-brand-google" viewBox="0 0 1200 1200">
<title>brand-google</title>
<path d="M611.953 514.219v205.781h340.313c-13.828 88.359-102.891 258.75-340.313 258.75-204.844 0-371.953-169.687-371.953-378.75s167.109-378.75 371.953-378.75c116.484 0 194.531 49.688 239.063 92.578l162.891-156.797c-104.531-97.969-240-157.031-401.953-157.031-331.641 0-600 268.359-600 600s268.359 600 600 600c346.172 0 576.094-243.516 576.094-586.172 0-39.375-4.219-69.375-9.375-99.375l-566.719-0.234z"></path>
</symbol>
<symbol id="pkg-brand-instagram" viewBox="0 0 1200 1200">
<title>brand-instagram</title>
<path d="M600 108.047c160.313 0 179.297 0.703 242.344 3.516 58.594 2.578 90.234 12.422 111.328 20.625 27.891 10.781 48.047 23.906 68.906 44.766 21.094 21.094 33.984 41.016 45 68.906 8.203 21.094 18.047 52.969 20.625 111.328 2.812 63.281 3.516 82.266 3.516 242.344s-0.703 179.297-3.516 242.344c-2.578 58.594-12.422 90.234-20.625 111.328-10.781 27.891-23.906 48.047-44.766 68.906-21.094 21.094-41.016 33.984-68.906 45-21.094 8.203-52.969 18.047-111.328 20.625-63.281 2.813-82.266 3.516-242.344 3.516s-179.297-0.703-242.344-3.516c-58.594-2.578-90.234-12.422-111.328-20.625-27.891-10.781-48.047-23.906-68.906-44.766-21.094-21.094-33.984-41.016-45-68.906-8.203-21.094-18.047-52.969-20.625-111.328-2.813-63.281-3.516-82.266-3.516-242.344s0.703-179.297 3.516-242.344c2.578-58.594 12.422-90.234 20.625-111.328 10.781-27.891 23.906-48.047 44.766-68.906 21.094-21.094 41.016-33.984 68.906-45 21.094-8.203 52.969-18.047 111.328-20.625 63.047-2.813 82.031-3.516 242.344-3.516zM600 0c-162.891 0-183.281 0.703-247.266 3.516-63.75 2.813-107.578 13.125-145.547 27.891-39.609 15.469-73.125 35.859-106.406 69.375-33.516 33.281-53.906 66.797-69.375 106.172-14.766 38.203-25.078 81.797-27.891 145.547-2.813 64.219-3.516 84.609-3.516 247.5s0.703 183.281 3.516 247.266c2.813 63.75 13.125 107.578 27.891 145.547 15.469 39.609 35.859 73.125 69.375 106.406 33.281 33.281 66.797 53.906 106.172 69.141 38.203 14.766 81.797 25.078 145.547 27.891 63.984 2.813 84.375 3.516 247.266 3.516s183.281-0.703 247.266-3.516c63.75-2.813 107.578-13.125 145.547-27.891 39.375-15.234 72.891-35.859 106.172-69.141s53.906-66.797 69.141-106.172c14.766-38.203 25.078-81.797 27.891-145.547 2.813-63.984 3.516-84.375 3.516-247.266s-0.703-183.281-3.516-247.266c-2.813-63.75-13.125-107.578-27.891-145.547-14.766-39.844-35.156-73.359-68.672-106.641-33.281-33.281-66.797-53.906-106.172-69.141-38.203-14.766-81.797-25.078-145.547-27.891-64.219-3.047-84.609-3.75-247.5-3.75v0z"></path>
<path d="M600 291.797c-170.156 0-308.203 138.047-308.203 308.203s138.047 308.203 308.203 308.203 308.203-138.047 308.203-308.203c0-170.156-138.047-308.203-308.203-308.203zM600 799.922c-110.391 0-199.922-89.531-199.922-199.922s89.531-199.922 199.922-199.922c110.391 0 199.922 89.531 199.922 199.922s-89.531 199.922-199.922 199.922z"></path>
<path d="M992.344 279.609c0 39.738-32.215 71.953-71.953 71.953s-71.953-32.215-71.953-71.953c0-39.738 32.215-71.953 71.953-71.953s71.953 32.215 71.953 71.953z"></path>
</symbol>
<symbol id="pkg-brand-ios" viewBox="0 0 1200 1200">
<title>brand-ios</title>
<path d="M55 302.5c-30.7 0-55 24-55 54 0 0.002 0 0.006 0 0.009 0 29.823 24.177 54 54 54 0.352 0 0.702-0.004 1.052-0.011l-0.053 0.001c31 0 55.5-24 55.5-54s-24.5-54-55.5-54zM435.5 303.5c-168 0-273 114.5-273 296.5 0 183.5 105 297.5 273 297.5 167 0 272.5-114 272.5-297.5 0-182-105.5-296.5-272.5-296.5zM977.5 303.5c-125 0-214 69-214 171.5 0 81.5 50.5 132.5 156.5 157l74.5 18c72.5 16.5 102 40.5 102 82 0 48-48.5 82-117.5 82-70.5 0-123.5-34.5-129-87.5h-100c4 106 91 171 223 171 139.5 0 227-68.5 227-177.5 0-85.5-50-134-166-160.5l-66.5-15c-70.5-17-99.5-39.5-99.5-77.5 0-48 44-80 109-80 65.5 0 110.5 32.5 115.5 86h98c-2.5-101-86-169.5-213-169.5zM435.5 391c102 0 167.5 81.5 167.5 209 0 128.5-65.5 210-167.5 210-103 0-168-81.5-168-210 0-127.5 65-209 168-209zM5.55 465.5v422.5h99.45v-422.5z"></path>
</symbol>
<symbol id="pkg-brand-reddit" viewBox="0 0 1200 1200">
<title>brand-reddit</title>
<path d="M300 675c0-41.421 33.579-75 75-75s75 33.579 75 75c0 41.421-33.579 75-75 75s-75-33.579-75-75zM750 675c0-41.421 33.579-75 75-75s75 33.579 75 75c0 41.421-33.579 75-75 75s-75-33.579-75-75zM753.647 835.287c19.315-15.218 47.316-11.899 62.536 7.42s11.897 47.318-7.423 62.538c-53.784 42.373-135.729 69.755-208.76 69.755-73.034 0-154.978-27.382-208.762-69.752-19.32-15.223-22.641-43.221-7.42-62.541 15.223-19.315 43.221-22.638 62.538-7.42 30.963 24.396 92.252 50.651 153.645 50.651s122.681-26.255 153.647-50.651zM1200 525c0-82.842-67.158-150-150-150-56.386 0-105.459 31.137-131.077 77.133-77.1-42.18-171.037-69.429-273.375-75.713l89.51-201.007 171.321 49.453c15.413 43.76 57.091 75.134 106.12 75.134 62.133 0 112.5-50.367 112.5-112.5s-50.367-112.5-112.5-112.5c-42.844 0-80.088 23.955-99.087 59.196l-190.905-55.106c-21.356-6.162-43.99 4.362-53.030 24.67l-121.605 273.077c-99.771 7.027-191.323 34.010-266.761 75.277-25.622-45.996-74.726-77.114-131.112-77.114-82.842 0-150 67.158-150 150 0 61.303 36.799 113.97 89.498 137.229-9.457 28.158-14.498 57.544-14.498 87.771 0 207.105 235.050 375 525 375 289.948 0 525-167.895 525-375 0-30.225-5.039-59.604-14.494-87.757 52.699-23.262 89.494-75.94 89.494-137.243zM1012.5 145.313c23.299 0 42.188 18.888 42.188 42.188s-18.888 42.188-42.188 42.188-42.188-18.888-42.188-42.188 18.888-42.188 42.188-42.188zM75 525c0-41.355 33.645-75 75-75 29.892 0 55.748 17.583 67.788 42.945-39.197 29.726-71.679 64.015-95.702 101.646-27.567-11.098-47.086-38.1-47.086-69.591zM600 1035.938c-240.762 0-435.938-128.018-435.938-285.938s195.176-285.938 435.938-285.938c240.762 0 435.938 128.018 435.938 285.938s-195.176 285.938-435.938 285.938zM1077.914 594.591c-24.023-37.631-56.505-71.92-95.702-101.646 12.042-25.362 37.896-42.945 67.788-42.945 41.355 0 75 33.645 75 75 0 31.491-19.519 58.493-47.086 69.591z"></path>
</symbol>
<symbol id="pkg-brand-slack" viewBox="0 0 1200 1200">
<title>brand-slack</title>
<path d="M1060.046 562.5c54.911 0 97.098 40.179 97.098 95.089 0 42.857-22.098 72.991-62.277 87.054l-115.179 39.509 37.5 111.831c3.348 10.044 4.688 20.759 4.688 31.473 0 52.902-42.857 97.098-95.759 97.098-42.188 0-79.688-26.116-93.081-66.294l-36.831-110.491-207.589 70.982 36.831 109.821c3.348 10.044 5.357 20.759 5.357 31.473 0 52.232-42.857 97.098-96.429 97.098-42.188 0-79.018-26.116-92.411-66.294l-36.831-109.152-102.456 35.491c-10.714 3.348-22.098 6.027-33.482 6.027-54.241 0-95.089-40.179-95.089-94.419 0-41.518 26.786-79.018 66.294-92.411l104.464-35.491-70.313-209.598-104.464 36.161c-10.714 3.348-21.429 5.357-32.143 5.357-53.571 0-95.089-40.848-95.089-94.419 0-41.518 26.786-79.018 66.294-92.411l105.134-35.491-35.491-106.473c-3.348-10.044-5.357-20.759-5.357-31.473 0-52.902 42.857-97.098 96.429-97.098 42.188 0 79.018 26.116 92.411 66.294l36.161 107.143 207.589-70.313-36.161-107.143c-3.348-10.044-5.357-20.759-5.357-31.473 0-52.902 43.527-97.098 96.429-97.098 42.188 0 79.688 26.786 93.081 66.294l35.491 107.813 108.482-36.831c9.375-2.679 18.75-4.018 28.794-4.018 52.232 0 97.098 38.839 97.098 92.411 0 41.518-32.143 76.339-69.643 89.062l-105.134 36.161 70.313 211.607 109.821-37.5c10.044-3.348 20.759-5.357 30.804-5.357zM528.35 737.946l207.589-70.313-70.313-210.938-207.589 71.652z"></path>
</symbol>
<symbol id="pkg-brand-telegram" viewBox="0 0 1200 1200">
<title>brand-telegram</title>
<path d="M600 0c-331.406 0-600 268.594-600 600s268.594 600 600 600 600-268.594 600-600-268.594-600-600-600zM894.844 411.328l-98.438 463.828c-6.797 33.047-26.719 40.781-54.375 25.547l-150-110.859-71.953 70.078c-8.438 8.203-15 15-30 15-19.453 0-16.172-7.266-22.734-25.781l-51.094-167.812-148.359-46.172c-32.109-9.844-32.344-31.875 7.266-47.578l577.969-223.125c26.25-11.953 51.797 6.328 41.719 46.875z"></path>
</symbol>
<symbol id="pkg-brand-twitch" viewBox="0 0 1200 1200">
<title>brand-twitch</title>
<path d="M150 0l-112.5 187.5v862.5h300v150h150l150-150h187.5l337.5-337.5v-712.5h-1012.5zM1012.5 637.5l-187.5 187.5h-187.5l-150 150v-150h-225v-675h750v487.5z"></path>
<path d="M750 300h112.5v300h-112.5v-300z"></path>
<path d="M525 300h112.5v300h-112.5v-300z"></path>
</symbol>
<symbol id="pkg-brand-twitter" viewBox="0 0 1200 1200">
<title>brand-twitter</title>
<path d="M1200.117 227.813c-44.063 19.688-91.641 32.813-141.328 38.672 50.859-30.469 89.766-78.75 108.281-136.172-47.578 28.125-100.313 48.75-156.328 59.766-45-47.813-108.984-77.578-179.766-77.578-135.938 0-246.094 110.156-246.094 246.094 0 19.219 2.109 37.969 6.328 56.016-204.609-10.313-386.016-108.281-507.422-257.344-21.094 36.328-33.281 78.75-33.281 123.75 0 85.313 43.359 160.781 109.453 204.844-40.313-1.172-78.281-12.422-111.563-30.703 0 0.938 0 2.109 0 3.047 0 119.297 84.844 218.906 197.578 241.406-20.625 5.625-42.422 8.672-64.922 8.672-15.938 0-31.172-1.641-46.406-4.453 31.406 97.734 122.344 168.984 229.922 171.094-84.375 66.094-190.313 105.469-305.859 105.469-19.922 0-39.375-1.172-58.828-3.516 109.219 70.078 238.594 110.625 377.578 110.625 452.812 0 700.547-375.234 700.547-700.547 0-10.781-0.234-21.328-0.703-31.875 48.047-34.453 89.766-77.813 122.813-127.266z"></path>
</symbol>
<symbol id="pkg-brand-unity" viewBox="0 0 1200 1200">
<title>brand-unity</title>
<path d="M994.999 959.998l-215-359.999 215-359.999 105 359.999zM520 924.997l-270-265h429.998l215 359.999zM520 270l374.999-95-215 359.999h-434.999c0 5 275-265 275-265zM1069.999 0l-489.998 125-75 125h-145l-359.999 349.999 359.999 349.999h145l70 125 489.998 125 130-474.998-70-125 75-125z"></path>
</symbol>
<symbol id="pkg-brand-godot" viewBox="0 0 1200 1200">
<title>brand-godot</title>
<path d="M477.989 34.127c-54.805 12.202-109.059 29.153-159.913 54.755 1.15 44.904 4.050 87.907 9.952 131.611-19.751 12.652-40.504 23.502-58.904 38.304-18.751 14.401-37.903 28.202-54.854 45.054-33.902-22.403-69.806-43.453-106.759-62.054-39.853 42.853-77.107 89.107-107.509 140.912 22.902 37.054 46.804 71.756 72.606 104.708h0.7v317.827c0.6 0 1.15 0 1.75 0.15l194.816 18.802c10.201 1 18.202 9.202 18.901 19.451l6 86.007 169.964 12.101 11.701-79.357c1.5-10.301 10.351-17.902 20.752-17.902h205.568c10.402 0 19.252 7.601 20.752 17.902l11.701 79.357 169.964-12.101 6-86.007c0.7-10.252 8.701-18.451 18.901-19.451l194.767-18.802c0.6 0 1.15-0.15 1.75-0.15v-25.352h0.1v-292.425h0.7c25.802-32.952 49.705-67.656 72.606-104.708-30.402-51.805-67.706-98.058-107.559-140.961-36.954 18.601-72.855 39.654-106.759 62.054-16.951-16.852-36.054-30.653-54.805-45.054-18.451-14.801-39.204-25.652-58.904-38.304 5.85-43.704 8.752-86.707 9.952-131.611-50.855-25.602-105.060-42.553-159.913-54.755-21.902 36.804-41.904 76.656-59.354 115.609-20.701-3.45-41.454-4.7-62.305-4.95h-0.8c-20.851 0.25-41.604 1.5-62.305 4.95-17.452-38.953-37.453-78.807-59.405-115.609zM323.825 499.417c64.856 0 117.459 52.555 117.459 117.409s-52.604 117.409-117.459 117.409c-64.806 0-117.409-52.555-117.409-117.409s52.555-117.409 117.409-117.409zM876.273 499.417c64.806 0 117.409 52.555 117.409 117.409s-52.555 117.409-117.409 117.409-117.459-52.555-117.459-117.409 52.555-117.409 117.459-117.409zM335.077 545.921c-43.054 0-77.957 34.902-77.957 77.957s34.902 77.907 77.957 77.907 77.957-34.902 77.957-77.907-34.853-77.957-77.957-77.957zM864.971 545.921c-43.054 0-77.907 34.902-77.907 77.957s34.853 77.907 77.907 77.907 77.957-34.902 77.957-77.907-34.853-77.957-77.957-77.957zM600.049 568.573c20.851 0 37.854 15.401 37.854 34.352v108.109c0 18.952-16.951 34.352-37.854 34.352s-37.804-15.401-37.804-34.352v-108.109c0-18.952 16.951-34.352 37.804-34.352zM73.004 847.296c0.1 18.851 0.3 39.454 0.3 43.554 0 185.065 234.72 273.974 526.344 275.024h0.7c291.625-1 526.295-89.957 526.295-275.024 0-4.2 0.25-24.752 0.35-43.554l-175.116 16.901-6.050 86.457c-0.75 10.402-9.001 18.751-19.451 19.501l-209.067 14.801c-10.301 0-19.201-7.552-20.752-17.902l-11.902-80.707h-169.314l-11.902 80.707c-1.6 10.852-11.302 18.652-22.253 17.851l-207.567-14.801c-10.402-0.75-18.751-9.052-19.451-19.451l-6-86.457z"></path>
</symbol>
<symbol id="pkg-brand-unreal" viewBox="0 0 1200 1200">
<title>brand-unreal</title>
<path d="M600 0c-328.6 0-594.95 268.65-594.95 600 0 331.4 266.35 600 594.95 600 328.55 0 594.95-268.6 594.95-600 0-331.35-266.4-600-594.95-600zM600 26.4c151.9 0 294.75 59.7 402.15 168 102.957 103.463 166.603 246.127 166.603 403.655 0 0.683-0.001 1.368-0.004 2.051v-0.105c0 153.2-59.15 297.25-166.6 405.6-102.135 103.732-244.089 168.001-401.053 168.001-0.368 0-0.736 0-1.104-0.001h0.057c-0.346 0.001-0.757 0.001-1.167 0.001-156.959 0-298.905-64.269-400.962-167.929l-0.071-0.073c-102.987-103.475-166.654-246.165-166.654-403.726 0-0.659 0.001-1.317 0.004-1.976v0.102c0-153.2 59.2-297.25 166.6-405.6 102.12-103.731 244.059-168.001 401.012-168.001 0.417 0 0.836 0 1.253 0.001h-0.064zM570.251 237.55c-96.9 26-186.6 75.8-306.15 212.9-119.6 137.1-96.9 250.3-96.9 250.3s33-77.9 112.35-159.95c37.6-38.85 65.7-51.85 84.9-51.9 0.509-0.030 1.103-0.048 1.702-0.048 16.513 0 29.9 13.386 29.9 29.9 0 0.088 0 0.175-0.001 0.261v-0.013 278.35c0 27.5-17.7 33.45-34 33.15-13.95-0.25-26.85-5.1-26.85-5.1 81.5 118.4 276.3 135 276.3 135l85.55-91.4 2 1.75 78.4 66.8c143.3-85.15 212.4-243 212.4-243-63.95 67.65-104.7 83.45-128.9 83.35-21.45-0.15-29.85-12.75-29.85-12.75-1.15-5.85-3.15-90.5-3.9-175.25-0.7-87.8-0.050-175.65 4.35-175.9 24.7-46.45 103.65-140.1 103.65-140.1-147.4 29.050-227.8 125.65-227.8 125.65-23.75-18.7-72.2-15.55-72.2-15.55 22.7 12.5 45.35 48.8 45.35 78.9v296c0 0-49.5 43.65-87.6 43.65-22.55 0-36.45-12.35-44.050-22.45-2.879-3.729-5.393-7.976-7.352-12.517l-0.148-0.383v-365.55c-5.021 3.724-11.305 6.012-18.117 6.15h-0.033c-8.1 0-16.5-4.1-22.2-16-4.3-9-7.050-22.5-7.050-42.1 0-67.5 76.25-112.15 76.25-112.15z"></path>
</symbol>
<symbol id="pkg-brand-vscode" viewBox="0 0 1200 1200">
<title>brand-vscode</title>
<path d="M1157.509 129.374l-247-118.85c-9.475-4.668-20.624-7.398-32.411-7.398-20.637 0-39.32 8.368-52.839 21.896v0l-473 431.5-206-156.4c-8.284-6.336-18.79-10.153-30.186-10.153-12.964 0-24.775 4.939-33.653 13.038l-66.061 60.064c-10.072 9.18-16.368 22.354-16.368 36.997 0 14.62 6.275 27.775 16.279 36.918l0.039 0.035 178.65 163-178.65 163c-10.042 9.177-16.317 22.332-16.317 36.953 0 14.644 6.295 27.818 16.328 36.962l0.040 0.035 66.15 60.050c8.839 8.064 20.65 13.003 33.614 13.003 11.396 0 21.901-3.817 30.306-10.241l-0.121 0.088 206-156.4 473 431.5c13.505 13.532 32.176 21.902 52.802 21.902 11.783 0 22.928-2.732 32.837-7.597l-0.439 0.195 247.1-118.85c25.295-12.412 42.4-37.98 42.4-67.545 0-0.020 0-0.039 0-0.059v0.004-806.050c0-0.002 0-0.005 0-0.007 0-29.603-17.15-55.2-42.057-67.397l-0.443-0.196zM900.21 872.423l-358.9-272.4 358.9-272.4z"></path>
</symbol>
<symbol id="pkg-brand-discord" viewBox="0 0 1200 1200">
<title>brand-discord</title>
<path d="M1011.1 0c70.3 0 127 56.85 130.35 123.75v1076.25l-133.85-113.65-73.5-66.9-80.2-69.9 33.5 110.25h-701.9c-70.1 0-127-53.25-127-123.8v-812c0-66.9 57-123.85 127.25-123.85h825zM705.2 284.15h-1.5l-10.1 10c103.65 30 153.8 76.85 153.8 76.85-66.8-33.4-127-50.1-187.2-56.85-43.5-6.75-87-3.2-123.75 0h-10c-23.5 0-73.5 10-140.5 36.75-23.35 10.15-36.75 16.8-36.75 16.8s50.1-50.1 160.5-76.85l-6.75-6.75c0 0-83.6-3.2-173.85 63.5 0 0-90.25 157.2-90.25 351 0 0 50 87 187.15 90.3 0 0 20-26.65 40.25-50.1-77-23.4-107-70.2-107-70.2s6.7 3.3 16.75 10h3c1.5 0 2.2 0.75 3 1.5v0.3c0.8 0.8 1.5 1.5 3 1.5 16.5 6.8 33 13.5 46.5 20 23.3 10.1 53.25 20.15 90 26.8 46.5 6.75 99.8 10 160.5 0 30-6.75 60-13.35 90-26.75 19.5-10 43.5-20 69.85-36.85 0 0-30 46.8-110.25 70.2 16.5 23.3 39.75 50 39.75 50 137.2-3 190.5-90 193.5-86.3 0-193.5-90.75-351-90.75-351-81.75-60.7-158.25-63-171.75-63zM713.6 504.8c35.15 0 63.5 30 63.5 66.75 0 37-28.5 67-63.5 67s-63.5-30-63.5-66.7c0.1-37 28.65-66.9 63.5-67.050zM486.45 504.8c35 0 63.3 30 63.3 66.75 0 37-28.5 67-63.5 67s-63.5-30-63.5-66.7c0-37 28.5-66.9 63.7-67.050z"></path>
</symbol>
<symbol id="pkg-brand-whatsapp" viewBox="0 0 1200 1200">
<title>brand-whatsapp</title>
<path d="M1022.93 174.375c-112.266-112.5-261.563-174.375-420.703-174.375-327.656 0-594.375 266.719-594.375 594.609 0 104.766 27.422 207.188 79.453 297.188l-84.375 308.203 315.234-82.734c86.953 47.344 184.688 72.422 284.063 72.422h0.234c0 0 0 0 0 0 327.656 0 594.609-266.719 594.609-594.609 0-158.906-61.875-308.203-174.141-420.703zM602.461 1089.375v0c-88.828 0-175.781-23.906-251.719-68.906l-18.047-10.781-187.031 48.984 49.922-182.344-11.719-18.75c-49.688-78.516-75.703-169.453-75.703-262.969 0-272.578 221.719-494.297 494.531-494.297 131.953 0 256.172 51.563 349.453 144.844 93.281 93.516 144.609 217.5 144.609 349.687-0.234 272.813-221.953 494.531-494.297 494.531zM873.398 719.063c-14.766-7.5-87.891-43.359-101.484-48.281s-23.438-7.5-33.516 7.5c-9.844 14.766-38.437 48.281-47.109 58.359-8.672 9.844-17.344 11.25-32.109 3.75s-62.813-23.203-119.531-73.828c-44.063-39.375-74.063-88.125-82.734-102.891s-0.938-22.969 6.563-30.234c6.797-6.563 14.766-17.344 22.266-26.016s9.844-14.766 14.766-24.844c4.922-9.844 2.578-18.516-1.172-26.016s-33.516-80.625-45.703-110.391c-11.953-29.063-24.375-25.078-33.516-25.547-8.672-0.469-18.516-0.469-28.359-0.469s-26.016 3.75-39.609 18.516c-13.594 14.766-52.031 50.859-52.031 123.984s53.203 143.672 60.703 153.75c7.5 9.844 104.766 160.078 253.828 224.297 35.391 15.234 63.047 24.375 84.609 31.406 35.625 11.25 67.969 9.609 93.516 5.859 28.594-4.219 87.891-35.859 100.313-70.547s12.422-64.453 8.672-70.547c-3.516-6.563-13.359-10.312-28.359-17.813z"></path>
</symbol>
<symbol id="pkg-brand-youtube" viewBox="0 0 1200 1200">
<title>brand-youtube</title>
<path d="M1187.813 360.117c0 0-11.719-82.734-47.813-119.062-45.703-47.813-96.797-48.047-120.234-50.859-167.813-12.188-419.766-12.188-419.766-12.188h-0.469c0 0-251.953 0-419.766 12.188-23.438 2.813-74.531 3.047-120.234 50.859-36.094 36.328-47.578 119.062-47.578 119.062s-11.953 97.031-11.953 194.297v90.938c0 97.031 11.953 194.297 11.953 194.297s11.719 82.734 47.578 119.063c45.703 47.813 105.703 46.172 132.422 51.328 96.094 9.141 408.047 11.953 408.047 11.953s252.188-0.469 420-12.422c23.438-2.813 74.531-3.047 120.234-50.859 36.094-36.328 47.813-119.063 47.813-119.063s11.953-97.031 11.953-194.297v-90.938c-0.234-97.031-12.188-194.297-12.188-194.297zM475.781 755.742v-337.266l324.141 169.219-324.141 168.047z"></path>
</symbol>
<symbol id="pkg-brand-facebook" viewBox="0 0 1200 1200">
<title>brand-facebook</title>
<path d="M1087.5 0h-975c-61.875 0-112.5 50.625-112.5 112.5v975c0 61.875 50.625 112.5 112.5 112.5h487.5v-525h-150v-150h150v-75c0-123.984 101.016-225 225-225h150v150h-150c-41.25 0-75 33.75-75 75v75h225l-37.5 150h-187.5v525h337.5c61.875 0 112.5-50.625 112.5-112.5v-975c0-61.875-50.625-112.5-112.5-112.5z"></path>
</symbol>
<symbol id="pkg-diamond-outline" viewBox="0 0 1200 1200">
<title>diamond-outline</title>
<path d="M124.256 487.509l365.010 389.617-175.767-389.617h-189.241zM599.999 939.816l204.476-452.307h-408.95zM315.257 412.515l119.521-224.982h-153.503l-168.736 224.982h202.718zM710.732 877.125l365.010-389.617h-189.241zM400.211 412.515h399.577l-119.521-224.982h-160.533zM884.741 412.515h202.718l-168.736-224.982h-153.503zM967.352 127.773l224.982 299.975c11.132 14.061 9.96 34.567-2.344 48.043l-562.454 599.951c-7.030 7.617-16.99 11.719-27.537 11.719s-20.507-4.102-27.537-11.719l-562.454-599.951c-12.304-13.475-13.475-33.982-2.344-48.043l224.982-299.975c7.030-9.96 18.162-15.233 29.88-15.233h674.945c11.719 0 22.85 5.273 29.88 15.233z"></path>
</symbol>
</defs>
</svg>
