<svg height="600" viewBox="0 0 588 600" width="588" xmlns="http://www.w3.org/2000/svg" xmlns:xlink="http://www.w3.org/1999/xlink"><clipPath id="a"><path d="m0 0h588v600h-588z"/></clipPath><g clip-path="url(#a)"><path d="m306.741 2a228 228 0 0 0 -188 356l-104 102.667a52 52 0 0 0 73.333 73.333l105.334-105.333a228 228 0 1 0 113.333-426.667" fill="#fff" transform="translate(26.592 24.667)"/><path d="m306.741 2a228 228 0 0 0 -188 356l-104 102.667a52 52 0 0 0 73.333 73.333l105.334-105.333a228 228 0 1 0 113.333-426.667z" fill="none" stroke="#333" stroke-linejoin="round" stroke-width="40" transform="translate(26.592 24.667)"/><path d="m136.193 10.207a118.667 118.667 0 1 0 117.333 120 118.667 118.667 0 0 0 -118.666-118.667" fill="#333" fill-rule="evenodd" transform="translate(199.807 125.793)"/><path d="m136.193 10.207a118.667 118.667 0 1 0 117.333 120 118.667 118.667 0 0 0 -117.333-120z" fill="none" stroke="#333" stroke-linecap="round" stroke-linejoin="round" stroke-width="53.333" transform="translate(199.807 125.793)"/><path d="m122.533 62.667a50.667 50.667 0 0 1 -49.333-42.667h-56a106.667 106.667 0 0 0 212 0h-56a50.667 50.667 0 0 1 -49.333 42.667" fill="#fff" transform="translate(212.133 246.667)"/><g fill-rule="evenodd"><path d="m123.767 63.486a50.667 50.667 0 0 1 49.333 42.667h56a106.667 106.667 0 0 0 -212 0h56a50.667 50.667 0 0 1 49.333-42.667" fill="#e40b20" transform="translate(210.9 140.514)"/><path d="m57.267 16.6a34.667 34.667 0 1 0 34.666 34.667 34.667 34.667 0 0 0 -34.666-34.667" fill="#fff" transform="translate(278.733 204.733)"/></g></g></svg>