<svg height="35" viewBox="0 0 34.268 35" width="34.268" xmlns="http://www.w3.org/2000/svg" xmlns:xlink="http://www.w3.org/1999/xlink"><clipPath id="a"><path d="m0 0h34.268v35h-34.268z"/></clipPath><g clip-path="url(#a)"><path d="m19.681 0a14.6 14.6 0 0 0 -12.081 22.753l-6.6 6.6a3.308 3.308 0 0 0 4.678 4.678l6.773-6.773a14.583 14.583 0 1 0 7.23-27.258m0 6.032a8.406 8.406 0 0 1 8.276 7.6h-4.318a4.064 4.064 0 0 0 -7.916 0h-4.318a8.422 8.422 0 0 1 8.276-7.6m2.752 8.551a2.752 2.752 0 1 1 -.169-.952 2.752 2.752 0 0 1 .169.952m-2.752 8.551a8.411 8.411 0 0 1 -8.255-7.387h4.36a4.064 4.064 0 0 0 7.81 0h4.339a8.411 8.411 0 0 1 -8.255 7.387" fill="#fff" transform="translate(-.018)"/></g></svg>